<?xml version="1.0" encoding="UTF-8" standalone="no"?>
<!DOCTYPE svg PUBLIC "-//W3C//DTD SVG 1.1//EN" "http://www.w3.org/Graphics/SVG/1.1/DTD/svg11.dtd">
<svg xmlns="http://www.w3.org/2000/svg" version="1.1" viewBox="0.00 0.00 462.00 362.00">
<path fill="none" stroke-width="1.00" stroke="#ffffff" vector-effect="non-scaling-stroke" d="
  M 0.00 0.00
  L 462.00 0.00
  L 462.00 362.00
  L 0.00 362.00
  L 0.00 0.00
  Z
  M 279.12 41.01
  Q 279.32 41.16 279.56 41.23
  Q 280.32 41.42 281.10 41.44
  Q 294.69 41.65 308.68 41.37
  Q 315.22 41.24 321.05 38.84
  Q 321.55 38.63 322.05 38.86
  C 325.08 40.22 330.56 42.74 334.06 42.73
  Q 334.74 42.73 334.84 42.06
  L 335.52 37.42
  Q 335.64 36.58 334.79 36.52
  Q 330.60 36.22 325.87 34.78
  Q 325.18 34.58 325.49 33.93
  C 328.30 27.93 325.25 19.41 317.54 20.56
  C 308.64 21.88 312.61 31.59 316.80 35.51
  A 0.48 0.47 60.4 0 1 316.58 36.32
  Q 313.11 37.08 309.92 37.15
  Q 296.30 37.46 279.37 36.59
  C 278.72 36.55 278.48 36.32 277.97 35.98
  Q 277.53 35.70 277.02 35.66
  Q 272.74 35.37 268.65 35.33
  Q 230.92 34.97 188.81 35.31
  C 187.89 35.31 187.34 35.66 186.81 36.40
  Q 186.47 36.87 185.89 36.89
  Q 170.22 37.40 157.64 37.15
  Q 154.02 37.08 150.44 36.33
  A 0.52 0.52 0.0 0 1 150.20 35.44
  Q 153.83 32.19 154.64 27.80
  C 156.25 19.14 144.84 18.09 141.60 24.56
  Q 139.21 29.32 141.63 34.03
  Q 141.84 34.44 141.41 34.60
  Q 136.61 36.32 132.17 36.43
  Q 131.38 36.44 131.49 37.23
  L 132.18 42.16
  A 0.80 0.80 0.0 0 0 133.13 42.83
  Q 139.42 41.58 144.99 38.76
  Q 145.56 38.47 146.12 38.80
  C 150.18 41.21 156.55 41.46 161.38 41.47
  Q 174.09 41.52 186.26 41.52
  Q 186.95 41.52 187.03 40.83
  Q 187.20 39.27 186.83 37.57
  Q 186.82 37.50 186.86 37.44
  Q 187.68 36.32 188.59 38.03
  A 2.55 2.39 29.9 0 1 188.86 38.91
  Q 189.04 40.61 187.71 41.70
  A 1.98 1.97 70.3 0 0 187.00 43.22
  L 186.99 185.55
  A 1.44 1.43 10.4 0 0 187.92 186.89
  L 232.01 203.45
  Q 232.88 203.77 233.74 203.45
  L 278.15 186.69
  A 0.55 0.54 80.0 0 0 278.50 186.18
  Q 278.75 113.83 278.38 41.38
  Q 278.37 40.44 279.12 41.01
  Z
  M 232.84 225.42
  C 236.30 226.83 236.44 234.27 236.08 237.21
  A 1.19 1.18 -77.2 0 0 236.87 238.47
  C 240.39 239.73 245.17 239.15 248.96 238.90
  Q 249.83 238.84 249.94 237.97
  C 251.07 228.84 249.55 220.29 242.13 214.42
  Q 237.20 210.52 230.93 210.44
  Q 223.56 210.35 218.35 212.92
  C 214.72 214.72 210.93 218.02 209.46 221.76
  C 206.90 228.28 206.15 239.93 212.04 245.40
  Q 221.25 253.95 231.22 262.34
  C 234.14 264.79 235.33 267.40 235.77 271.19
  C 236.68 279.14 223.26 281.76 222.12 273.83
  Q 221.51 269.60 221.80 265.02
  A 0.91 0.91 0.0 0 0 221.05 264.07
  Q 215.51 263.13 209.55 263.67
  A 1.96 1.96 0.0 0 0 207.78 265.44
  Q 207.33 270.57 208.30 276.74
  C 209.35 283.49 213.02 287.30 219.03 290.24
  Q 221.55 291.46 224.70 291.44
  C 229.68 291.39 235.52 291.43 239.90 289.06
  Q 246.85 285.31 248.83 277.26
  C 251.96 264.45 246.43 257.16 237.53 249.55
  C 231.85 244.69 220.63 237.66 222.05 228.80
  Q 222.30 227.23 223.69 226.33
  Q 228.06 223.48 232.84 225.42
  Z
  M 183.84 272.14
  C 184.03 279.15 169.86 279.66 169.52 271.76
  C 169.00 259.70 169.61 247.20 169.53 235.41
  Q 169.44 222.85 169.40 212.10
  A 0.64 0.64 0.0 0 0 168.90 211.49
  Q 162.49 210.14 156.10 211.68
  Q 155.51 211.82 155.50 212.42
  Q 155.22 241.64 155.34 271.35
  Q 155.39 282.93 165.66 288.94
  C 169.75 291.34 174.06 291.45 178.62 291.27
  Q 188.72 290.88 194.55 283.31
  Q 196.06 281.34 196.77 278.77
  Q 197.68 275.46 197.73 273.74
  Q 198.18 260.24 197.95 228.25
  C 197.92 223.20 198.31 218.24 198.28 213.19
  Q 198.27 211.33 196.44 211.07
  Q 190.86 210.27 184.88 211.57
  Q 184.23 211.71 184.20 212.38
  C 183.78 223.32 184.10 234.60 183.80 245.59
  Q 183.46 258.00 183.84 272.14
  Z
  M 391.18 236.35
  C 390.75 230.27 390.29 224.28 398.56 224.33
  C 406.23 224.38 405.76 230.91 405.38 236.32
  A 1.80 1.79 -84.8 0 0 406.97 238.23
  Q 412.63 238.85 418.37 238.01
  A 0.74 0.74 0.0 0 0 418.99 237.34
  C 419.51 230.75 419.46 223.09 414.75 217.65
  C 412.55 215.11 410.05 212.50 406.70 211.68
  Q 401.85 210.49 394.69 210.72
  C 390.39 210.86 386.55 213.23 383.12 215.48
  C 378.24 218.68 377.26 228.20 377.11 233.49
  Q 376.87 241.95 376.93 249.65
  C 376.95 252.15 377.29 254.70 377.21 257.26
  Q 377.02 263.31 377.07 270.86
  Q 377.16 281.80 384.87 287.99
  Q 388.00 290.51 391.29 290.90
  C 399.54 291.89 406.66 291.76 413.42 286.22
  C 420.11 280.74 419.99 272.18 419.43 264.07
  Q 419.39 263.57 418.90 263.46
  Q 412.80 262.09 407.16 263.45
  Q 405.93 263.76 405.98 265.03
  C 406.08 267.55 406.28 273.82 403.82 275.60
  Q 399.80 278.50 395.62 277.27
  C 393.07 276.52 391.61 274.37 391.50 271.76
  Q 390.92 257.56 391.30 242.89
  Q 391.39 239.44 391.18 236.35
  Z
  M 282.94 236.54
  C 279.51 228.90 277.12 220.20 274.00 212.09
  A 1.05 1.03 82.3 0 0 273.15 211.43
  Q 266.40 210.75 258.99 211.40
  A 0.69 0.68 -85.7 0 0 258.40 211.91
  Q 258.33 212.20 258.45 212.47
  Q 263.13 222.97 267.44 234.26
  C 269.96 240.86 272.93 247.24 275.49 253.88
  Q 276.45 256.38 276.30 258.94
  Q 275.65 269.47 276.29 280.29
  C 276.48 283.55 276.17 286.79 276.13 290.03
  Q 276.12 291.06 277.14 291.16
  Q 283.01 291.75 289.57 290.80
  A 0.87 0.86 83.8 0 0 290.30 289.89
  Q 289.82 281.64 290.16 273.45
  C 290.37 268.19 290.19 263.07 290.07 257.83
  A 7.08 7.00 -34.5 0 1 290.62 254.96
  L 308.32 212.97
  A 0.96 0.96 0.0 0 0 307.55 211.64
  Q 300.71 210.79 294.00 211.67
  A 1.15 1.14 4.9 0 0 293.07 212.45
  Q 289.05 224.95 283.78 236.54
  A 0.46 0.46 0.0 0 1 282.94 236.54
  Z
  M 332.78 248.07
  A 0.20 0.20 0.0 0 1 333.12 248.11
  C 339.73 261.71 344.47 275.79 350.68 289.63
  A 1.85 1.84 77.8 0 0 352.36 290.72
  L 364.11 290.78
  A 1.06 1.06 0.0 0 0 365.18 289.74
  C 365.38 279.93 364.76 269.78 364.77 259.82
  Q 364.79 243.65 365.13 224.74
  Q 365.22 219.74 365.01 212.77
  A 1.14 1.13 5.5 0 0 364.11 211.69
  Q 358.03 210.37 351.90 211.63
  A 0.46 0.45 84.1 0 0 351.53 212.09
  C 351.74 226.73 352.05 240.66 351.53 253.95
  Q 351.43 256.60 350.26 254.22
  Q 348.46 250.53 346.91 246.79
  Q 339.75 229.47 332.47 212.69
  Q 331.89 211.35 330.43 211.30
  Q 325.03 211.09 319.75 211.83
  A 0.91 0.91 0.0 0 0 318.97 212.73
  L 318.77 289.48
  A 0.91 0.89 -84.2 0 0 319.48 290.37
  Q 325.14 291.58 331.39 290.57
  A 1.60 1.59 87.7 0 0 332.72 289.12
  Q 333.15 283.42 333.11 277.92
  Q 333.01 264.74 332.58 248.64
  Q 332.57 248.31 332.78 248.07
  Z
  M 62.50 225.69
  L 89.04 226.03
  A 0.94 0.94 0.0 0 0 89.97 225.28
  Q 91.34 218.67 90.23 212.28
  A 0.93 0.92 -4.2 0 0 89.34 211.52
  Q 68.64 210.98 48.53 211.52
  A 1.06 1.05 89.7 0 0 47.50 212.57
  Q 47.46 245.42 47.55 277.56
  C 47.56 281.71 47.82 285.76 47.80 289.95
  A 1.06 1.05 -89.2 0 0 48.82 291.01
  Q 59.16 291.30 69.92 290.55
  C 76.28 290.10 82.73 290.37 89.21 290.72
  Q 89.82 290.75 89.93 290.16
  Q 91.07 283.75 90.34 277.75
  A 0.88 0.88 0.0 0 0 89.44 276.97
  Q 76.06 277.41 62.29 276.80
  A 0.65 0.65 0.0 0 1 61.67 276.14
  L 61.88 258.31
  A 0.56 0.56 0.0 0 1 62.44 257.75
  L 82.96 257.75
  A 1.14 1.14 0.0 0 0 84.10 256.71
  Q 84.57 250.91 83.81 245.62
  A 1.31 1.30 -4.0 0 0 82.51 244.50
  L 62.69 244.55
  A 0.79 0.79 0.0 0 1 61.92 243.98
  Q 61.04 240.89 61.26 237.51
  Q 61.64 231.67 61.82 226.34
  Q 61.84 225.68 62.50 225.69
  Z
  M 103.32 213.22
  L 103.98 289.21
  A 1.79 1.79 0.0 0 0 105.79 290.99
  L 126.61 290.81
  A 20.17 19.81 89.5 0 0 146.24 270.46
  L 145.90 231.23
  A 20.17 19.81 89.5 0 0 125.91 211.23
  L 105.09 211.41
  A 1.79 1.79 0.0 0 0 103.32 213.22
  Z
  M 132.14 304.31
  Q 132.80 304.12 133.07 304.74
  L 133.64 306.06
  A 1.00 0.99 67.1 0 0 134.92 306.59
  Q 135.27 306.44 135.46 306.13
  Q 136.03 305.20 135.51 304.25
  C 132.57 298.88 126.19 304.32 129.98 307.71
  Q 131.73 309.27 133.22 310.88
  Q 133.79 311.49 133.35 312.20
  Q 133.20 312.46 132.93 312.61
  Q 132.13 313.06 131.57 312.34
  Q 131.11 311.76 130.99 311.02
  Q 130.87 310.36 130.21 310.26
  Q 129.09 310.09 128.86 311.67
  A 1.85 1.82 -57.4 0 0 129.12 312.89
  C 132.21 317.96 138.72 312.34 133.89 308.38
  Q 132.49 307.24 131.34 305.87
  A 0.83 0.83 0.0 0 1 131.40 304.73
  Q 131.72 304.44 132.14 304.31
  Z
  M 165.08 307.83
  Q 165.89 308.23 165.87 309.14
  L 165.75 313.76
  Q 165.72 314.71 166.68 314.80
  L 166.97 314.83
  A 0.70 0.70 0.0 0 0 167.74 314.20
  C 168.05 311.43 169.25 304.91 164.27 305.78
  Q 163.63 305.89 163.59 305.24
  L 163.45 302.58
  A 0.61 0.60 86.3 0 0 162.80 302.00
  L 162.42 302.03
  Q 161.50 302.10 161.51 303.02
  L 161.71 314.09
  Q 161.72 314.72 162.34 314.77
  L 162.60 314.80
  A 0.93 0.93 0.0 0 0 163.61 313.89
  L 163.72 308.31
  Q 163.74 307.17 164.77 307.68
  Q 164.93 307.76 165.08 307.83
  Z
  M 263.13 305.64
  Q 261.67 305.03 263.08 304.30
  Q 263.47 304.10 263.89 303.95
  Q 264.46 303.74 264.55 303.14
  Q 264.66 302.39 264.04 302.14
  C 262.46 301.52 260.67 302.97 260.02 304.37
  Q 259.13 306.30 259.60 307.96
  Q 260.35 310.66 260.10 313.63
  A 1.25 1.24 11.3 0 0 260.97 314.93
  Q 261.29 315.03 261.63 314.97
  Q 262.28 314.86 262.29 314.19
  L 262.37 308.66
  Q 262.37 308.21 262.70 307.91
  Q 263.01 307.62 263.46 307.59
  Q 264.04 307.56 264.25 307.02
  Q 264.48 306.39 263.89 306.03
  Q 263.52 305.81 263.13 305.64
  Z
  M 283.68 305.71
  C 279.56 305.46 280.08 310.91 280.93 313.46
  Q 281.37 314.77 282.75 314.74
  L 286.47 314.66
  Q 286.96 314.65 286.96 314.15
  Q 286.95 308.48 286.85 302.99
  Q 286.83 301.98 285.70 301.97
  Q 285.15 301.96 284.96 302.48
  Q 284.61 303.46 284.78 304.47
  A 1.05 1.05 0.0 0 1 283.68 305.71
  Z
  M 194.17 303.18
  A 1.13 1.13 0.0 0 0 193.04 302.05
  A 1.13 1.13 0.0 0 0 191.91 303.18
  A 1.13 1.13 0.0 0 0 193.04 304.31
  A 1.13 1.13 0.0 0 0 194.17 303.18
  Z
  M 220.2400 303.1788
  A 1.26 0.98 0.4 0 0 218.9868 302.1900
  A 1.26 0.98 0.4 0 0 217.7200 303.1612
  A 1.26 0.98 0.4 0 0 218.9732 304.1500
  A 1.26 0.98 0.4 0 0 220.2400 303.1788
  Z
  M 275.34 309.45
  L 277.02 309.54
  A 1.05 1.05 0.0 0 0 278.12 308.50
  L 278.12 308.16
  A 0.69 0.68 -89.2 0 0 277.45 307.46
  L 275.45 307.42
  Q 274.87 307.41 274.54 306.94
  Q 274.02 306.19 274.28 305.15
  Q 274.45 304.44 275.19 304.45
  L 277.83 304.50
  Q 278.76 304.52 279.01 303.62
  Q 279.15 303.15 278.82 302.60
  A 0.75 0.75 0.0 0 0 278.18 302.24
  L 272.79 302.22
  Q 272.03 302.21 272.04 302.97
  L 272.11 314.09
  Q 272.11 314.81 272.84 314.79
  L 278.40 314.64
  A 0.56 0.55 -88.3 0 0 278.94 314.12
  L 278.98 313.72
  Q 279.06 312.62 277.97 312.59
  L 274.87 312.48
  A 0.50 0.49 81.4 0 1 274.42 312.14
  Q 274.12 311.23 274.42 310.12
  Q 274.61 309.42 275.34 309.45
  Z
  M 321.82 303.20
  A 1.15 1.15 0.0 0 0 320.67 302.05
  A 1.15 1.15 0.0 0 0 319.52 303.20
  A 1.15 1.15 0.0 0 0 320.67 304.35
  A 1.15 1.15 0.0 0 0 321.82 303.20
  Z
  M 215.09 307.86
  Q 215.60 307.70 215.85 307.28
  Q 216.16 306.77 215.79 306.30
  L 213.56 303.50
  A 0.46 0.46 0.0 0 0 212.81 303.55
  L 211.05 306.48
  Q 210.84 306.82 211.10 307.14
  L 211.82 308.03
  Q 212.16 308.46 212.21 309.00
  C 212.40 311.24 211.93 315.58 215.83 314.86
  A 0.81 0.80 54.6 0 0 216.08 313.37
  Q 213.69 311.99 214.45 308.57
  Q 214.57 308.03 215.09 307.86
  Z
  M 317.16 307.58
  Q 317.41 307.52 317.63 307.40
  A 0.51 0.51 0.0 0 0 317.78 306.63
  L 315.08 303.37
  A 0.27 0.26 42.2 0 0 314.65 303.39
  L 312.67 306.44
  A 0.72 0.71 44.7 0 0 312.68 307.26
  Q 312.92 307.58 313.26 307.79
  Q 313.74 308.08 313.79 308.63
  C 314.01 310.65 313.47 315.64 317.23 314.82
  Q 319.28 314.37 317.51 313.23
  Q 315.58 311.99 316.20 308.60
  A 1.29 1.29 0.0 0 1 317.16 307.58
  Z
  M 321.73 306.50
  A 1.05 1.05 0.0 0 0 320.68 305.45
  L 320.58 305.45
  A 1.05 1.05 0.0 0 0 319.53 306.50
  L 319.53 313.78
  A 1.05 1.05 0.0 0 0 320.58 314.83
  L 320.68 314.83
  A 1.05 1.05 0.0 0 0 321.73 313.78
  L 321.73 306.50
  Z
  M 140.43 309.53
  L 139.54 306.36
  Q 139.31 305.53 138.45 305.49
  Q 138.20 305.47 137.97 305.59
  Q 137.32 305.93 137.51 306.63
  Q 138.49 310.28 139.52 313.74
  C 139.86 314.89 139.49 315.79 138.54 316.56
  Q 136.41 318.29 139.15 318.08
  Q 141.06 317.93 141.88 315.21
  Q 143.17 310.96 144.21 306.57
  A 0.68 0.68 0.0 0 0 143.53 305.73
  L 143.09 305.75
  Q 142.33 305.76 142.18 306.51
  Q 141.83 308.22 141.14 309.60
  Q 140.70 310.50 140.43 309.53
  Z
  M 155.92 312.27
  Q 155.50 310.53 155.83 308.20
  A 0.76 0.76 0.0 0 1 157.06 307.72
  L 158.53 308.95
  A 0.74 0.74 0.0 0 0 159.74 308.40
  C 159.83 304.55 153.60 304.39 153.33 309.17
  C 153.21 311.27 153.48 314.15 155.98 314.69
  Q 159.14 315.37 159.73 312.33
  Q 159.89 311.54 159.24 311.07
  Q 158.76 310.72 158.40 311.19
  L 157.34 312.57
  A 0.80 0.80 0.0 0 1 155.92 312.27
  Z
  M 172.34 307.95
  L 173.90 307.38
  Q 174.54 307.15 174.48 306.47
  L 174.43 306.07
  A 0.53 0.52 80.4 0 0 173.79 305.61
  Q 172.00 306.02 170.22 305.80
  A 0.68 0.67 -86.7 0 0 169.46 306.48
  L 169.52 314.00
  Q 169.53 314.98 170.50 314.88
  L 170.90 314.84
  A 0.75 0.75 0.0 0 0 171.58 314.10
  L 171.69 308.86
  Q 171.70 308.18 172.34 307.95
  Z
  M 194.0988 306.5010
  A 0.89 0.89 0.0 0 0 193.2182 305.6017
  L 192.9382 305.5988
  A 0.89 0.89 0.0 0 0 192.0389 306.4794
  L 191.9612 313.8990
  A 0.89 0.89 0.0 0 0 192.8418 314.7983
  L 193.1218 314.8012
  A 0.89 0.89 0.0 0 0 194.0211 313.9206
  L 194.0988 306.5010
  Z
  M 199.21 312.68
  A 0.40 0.39 -76.6 0 1 198.82 312.04
  Q 200.71 309.84 201.86 307.07
  A 0.97 0.97 0.0 0 0 200.99 305.73
  L 196.74 305.64
  Q 195.84 305.62 195.96 306.51
  L 196.02 306.95
  Q 196.13 307.75 196.95 307.75
  L 198.29 307.75
  Q 199.18 307.75 198.70 308.50
  L 195.89 312.83
  A 1.28 1.28 0.0 0 0 196.91 314.81
  Q 199.04 314.90 201.03 314.60
  Q 202.51 314.37 201.45 313.30
  Q 200.52 312.37 199.21 312.68
  Z
  M 207.38 308.04
  Q 207.50 308.50 207.21 308.85
  Q 206.83 309.34 206.21 309.42
  Q 203.49 309.79 203.40 312.66
  A 2.18 2.18 0.0 0 0 205.99 314.87
  Q 207.31 314.61 208.72 314.76
  Q 209.54 314.85 209.54 314.03
  L 209.49 307.64
  Q 209.48 307.11 209.11 306.73
  Q 207.08 304.71 204.53 306.09
  Q 202.86 306.99 203.62 308.57
  A 0.71 0.71 0.0 0 0 204.84 308.68
  Q 205.40 307.91 206.24 307.50
  A 0.81 0.80 70.3 0 1 207.38 308.04
  Z
  M 219.9964 306.5418
  A 0.90 0.90 0.0 0 0 219.0980 305.6403
  L 218.7980 305.6397
  A 0.90 0.90 0.0 0 0 217.8964 306.5382
  L 217.8836 313.8982
  A 0.90 0.90 0.0 0 0 218.7820 314.7997
  L 219.0820 314.8003
  A 0.90 0.90 0.0 0 0 219.9836 313.9018
  L 219.9964 306.5418
  Z
  M 241.42 312.86
  Q 240.62 313.41 240.13 312.51
  Q 239.30 310.96 238.10 312.05
  Q 237.53 312.57 239.34 314.38
  Q 239.97 315.01 240.87 315.04
  C 244.08 315.14 245.09 311.26 242.19 309.96
  Q 241.22 309.52 240.36 308.90
  Q 239.80 308.50 240.12 307.89
  L 240.24 307.65
  A 0.41 0.40 -67.2 0 1 240.72 307.45
  Q 241.66 307.76 242.17 308.56
  A 0.90 0.90 0.0 0 0 243.22 308.92
  Q 243.46 308.83 243.60 308.62
  Q 244.06 307.93 243.69 307.28
  C 241.04 302.55 233.79 308.33 241.32 311.70
  A 0.67 0.67 0.0 0 1 241.42 312.86
  Z
  M 291.91 312.75
  Q 291.20 312.52 291.18 311.77
  L 291.05 306.23
  Q 291.04 305.48 290.30 305.57
  L 290.04 305.61
  A 1.09 1.08 89.7 0 0 289.09 306.58
  Q 288.80 309.61 289.17 312.70
  Q 289.43 314.83 291.57 314.75
  L 294.70 314.63
  Q 295.49 314.59 295.49 313.80
  L 295.49 306.56
  Q 295.49 305.76 294.71 305.58
  Q 294.15 305.46 293.66 306.26
  A 0.87 0.82 63.1 0 0 293.52 306.73
  L 293.41 311.97
  Q 293.39 312.72 292.64 312.82
  Q 292.27 312.87 291.91 312.75
  Z
  M 299.47 312.37
  Q 298.96 310.54 299.28 308.82
  Q 299.75 306.32 301.30 308.33
  Q 301.69 308.85 302.27 309.10
  Q 302.96 309.42 303.27 308.72
  Q 303.71 307.74 302.92 306.93
  Q 300.56 304.52 298.14 306.28
  A 1.82 1.82 0.0 0 0 297.41 307.41
  C 296.94 309.76 296.46 314.41 299.74 314.74
  Q 302.88 315.05 303.35 312.06
  Q 303.47 311.26 302.78 310.96
  Q 302.25 310.72 301.90 311.19
  L 300.80 312.63
  A 0.76 0.75 55.7 0 1 299.47 312.37
  Z
  M 309.17 308.34
  A 0.75 0.74 -9.1 0 1 308.52 309.23
  Q 305.42 309.56 305.02 312.15
  A 2.33 2.32 -87.6 0 0 307.47 314.82
  L 310.64 314.62
  Q 311.27 314.58 311.28 313.95
  Q 311.33 310.88 311.16 308.16
  C 310.95 304.91 306.52 304.74 305.13 307.31
  Q 304.91 307.73 305.06 308.19
  Q 305.25 308.76 305.86 308.83
  Q 306.28 308.88 306.61 308.62
  C 307.15 308.18 307.23 307.64 308.04 307.49
  Q 308.96 307.33 309.17 308.34
  Z
  M 147.91 308.01
  A 0.43 0.43 0.0 0 1 148.34 307.59
  L 149.52 307.59
  A 0.43 0.43 0.0 0 1 149.95 308.02
  L 149.99 314.36
  A 0.43 0.43 0.0 0 0 150.38 314.79
  L 151.64 314.91
  A 0.43 0.43 0.0 0 0 152.11 314.48
  L 151.98 306.44
  A 0.43 0.43 0.0 0 0 151.56 306.01
  L 146.27 305.81
  A 0.43 0.43 0.0 0 0 145.82 306.23
  L 145.73 314.38
  A 0.43 0.43 0.0 0 0 146.13 314.82
  L 147.37 314.89
  A 0.43 0.43 0.0 0 0 147.83 314.47
  L 147.91 308.01
  Z
  M 182.2744 308.5980
  A 2.83 2.83 0.0 0 0 179.4692 305.7434
  L 178.7292 305.7369
  A 2.83 2.83 0.0 0 0 175.8746 308.5421
  L 175.8456 311.8620
  A 2.83 2.83 0.0 0 0 178.6508 314.7166
  L 179.3908 314.7231
  A 2.83 2.83 0.0 0 0 182.2454 311.9179
  L 182.2744 308.5980
  Z
  M 187.81 307.56
  A 0.35 0.35 0.0 0 1 188.20 307.90
  L 188.33 314.41
  A 0.35 0.35 0.0 0 0 188.66 314.75
  L 189.74 314.83
  A 0.35 0.35 0.0 0 0 190.11 314.48
  L 189.93 306.07
  A 0.35 0.35 0.0 0 0 189.57 305.72
  L 184.26 305.78
  A 0.35 0.35 0.0 0 0 183.91 306.13
  L 183.97 314.36
  A 0.35 0.35 0.0 0 0 184.24 314.70
  L 185.58 315.01
  A 0.35 0.35 0.0 0 0 186.01 314.67
  L 186.14 308.06
  A 0.35 0.35 0.0 0 1 186.45 307.72
  L 187.81 307.56
  Z
  M 228.4369 308.5456
  A 2.88 2.88 0.0 0 0 225.5170 305.7061
  L 224.8971 305.7148
  A 2.88 2.88 0.0 0 0 222.0576 308.6347
  L 222.1031 311.8944
  A 2.88 2.88 0.0 0 0 225.0230 314.7339
  L 225.6429 314.7252
  A 2.88 2.88 0.0 0 0 228.4824 311.8053
  L 228.4369 308.5456
  Z
  M 233.49 307.61
  A 0.89 0.89 0.0 0 1 234.40 308.48
  L 234.52 314.08
  A 0.95 0.94 -85.0 0 0 235.27 314.98
  L 235.52 315.03
  A 0.52 0.52 0.0 0 0 236.13 314.63
  C 236.58 312.51 237.55 305.28 233.78 305.70
  Q 232.28 305.86 230.79 305.77
  Q 230.03 305.73 230.04 306.48
  L 230.16 314.22
  A 0.71 0.71 0.0 0 0 230.75 314.91
  Q 230.92 314.94 231.09 314.96
  A 1.00 0.99 4.7 0 0 232.22 314.01
  L 232.38 308.30
  A 0.71 0.70 -0.0 0 1 233.07 307.62
  L 233.49 307.61
  Z
  M 257.9791 308.5681
  A 2.95 2.95 0.0 0 0 254.9730 305.6753
  L 254.3931 305.6864
  A 2.95 2.95 0.0 0 0 251.5003 308.6925
  L 251.5609 311.8519
  A 2.95 2.95 0.0 0 0 254.5670 314.7447
  L 255.1469 314.7336
  A 2.95 2.95 0.0 0 0 258.0397 311.7275
  L 257.9791 308.5681
  Z
  M 329.9554 308.5331
  A 2.89 2.89 0.0 0 0 327.0055 305.7043
  L 326.3656 305.7177
  A 2.89 2.89 0.0 0 0 323.5368 308.6676
  L 323.6046 311.9069
  A 2.89 2.89 0.0 0 0 326.5545 314.7357
  L 327.1944 314.7223
  A 2.89 2.89 0.0 0 0 330.0232 311.7724
  L 329.9554 308.5331
  Z
  M 335.59 307.72
  A 0.41 0.41 0.0 0 1 335.98 308.12
  L 336.18 314.55
  A 0.41 0.41 0.0 0 0 336.63 314.95
  L 337.69 314.85
  A 0.41 0.41 0.0 0 0 338.06 314.43
  L 337.86 306.12
  A 0.41 0.41 0.0 0 0 337.44 305.72
  L 332.15 305.79
  A 0.41 0.41 0.0 0 0 331.75 306.21
  L 331.86 314.47
  A 0.41 0.41 0.0 0 0 332.27 314.87
  L 333.52 314.88
  A 0.41 0.41 0.0 0 0 333.93 314.46
  L 333.85 308.08
  A 0.41 0.41 0.0 0 1 334.27 307.67
  L 335.59 307.72
  Z"
/>
<path fill="none" stroke-width="1.00" stroke="#d0021b" vector-effect="non-scaling-stroke" d="
  M 278.38 41.38
  Q 278.75 113.83 278.50 186.18
  A 0.55 0.54 80.0 0 1 278.15 186.69
  L 233.74 203.45
  Q 232.88 203.77 232.01 203.45
  L 187.92 186.89
  A 1.44 1.43 10.4 0 1 186.99 185.55
  L 187.00 43.22
  A 1.98 1.97 70.3 0 1 187.71 41.70
  Q 189.04 40.61 188.86 38.91
  A 2.55 2.39 29.9 0 0 188.59 38.03
  Q 187.68 36.32 186.86 37.44
  Q 186.82 37.50 186.83 37.57
  Q 187.20 39.27 187.03 40.83
  Q 186.95 41.52 186.26 41.52
  Q 174.09 41.52 161.38 41.47
  C 156.55 41.46 150.18 41.21 146.12 38.80
  Q 145.56 38.47 144.99 38.76
  Q 139.42 41.58 133.13 42.83
  A 0.80 0.80 0.0 0 1 132.18 42.16
  L 131.49 37.23
  Q 131.38 36.44 132.17 36.43
  Q 136.61 36.32 141.41 34.60
  Q 141.84 34.44 141.63 34.03
  Q 139.21 29.32 141.60 24.56
  C 144.84 18.09 156.25 19.14 154.64 27.80
  Q 153.83 32.19 150.20 35.44
  A 0.52 0.52 0.0 0 0 150.44 36.33
  Q 154.02 37.08 157.64 37.15
  Q 170.22 37.40 185.89 36.89
  Q 186.47 36.87 186.81 36.40
  C 187.34 35.66 187.89 35.31 188.81 35.31
  Q 230.92 34.97 268.65 35.33
  Q 272.74 35.37 277.02 35.66
  Q 277.53 35.70 277.97 35.98
  C 278.48 36.32 278.72 36.55 279.37 36.59
  Q 296.30 37.46 309.92 37.15
  Q 313.11 37.08 316.58 36.32
  A 0.48 0.47 60.4 0 0 316.80 35.51
  C 312.61 31.59 308.64 21.88 317.54 20.56
  C 325.25 19.41 328.30 27.93 325.49 33.93
  Q 325.18 34.58 325.87 34.78
  Q 330.60 36.22 334.79 36.52
  Q 335.64 36.58 335.52 37.42
  L 334.84 42.06
  Q 334.74 42.73 334.06 42.73
  C 330.56 42.74 325.08 40.22 322.05 38.86
  Q 321.55 38.63 321.05 38.84
  Q 315.22 41.24 308.68 41.37
  Q 294.69 41.65 281.10 41.44
  Q 280.32 41.42 279.56 41.23
  Q 279.32 41.16 279.12 41.01
  Q 278.37 40.44 278.38 41.38
  Z
  M 150.41 28.96
  C 151.66 26.32 150.26 23.65 147.09 24.85
  C 144.41 25.87 144.69 30.23 145.58 32.37
  A 0.87 0.86 -25.8 0 0 146.80 32.79
  Q 149.22 31.47 150.41 28.96
  Z
  M 318.25 24.69
  L 317.87 24.74
  Q 315.82 24.99 316.09 27.03
  Q 316.51 30.28 320.04 32.76
  A 0.90 0.90 0.0 0 0 321.34 32.46
  Q 322.74 29.91 321.68 26.83
  Q 320.83 24.37 318.25 24.69
  Z
  M 243.80 79.95
  Q 243.84 79.23 244.56 79.21
  L 256.42 78.97
  A 1.23 1.22 -2.5 0 1 257.67 80.11
  C 257.89 83.15 257.86 87.77 259.56 90.37
  A 1.70 1.70 0.0 0 0 262.10 90.72
  Q 263.06 89.87 263.11 88.54
  Q 263.30 82.49 263.14 76.48
  C 263.06 73.88 260.23 73.28 258.18 73.19
  Q 243.60 72.49 230.31 74.79
  Q 226.14 75.52 220.09 73.94
  C 216.15 72.92 211.82 73.80 209.48 77.25
  C 202.94 86.94 201.35 100.93 208.48 111.12
  C 210.64 114.22 213.21 118.55 216.61 120.15
  Q 221.80 122.60 227.28 123.15
  Q 229.15 123.33 229.19 125.17
  Q 229.40 133.99 228.58 141.05
  C 228.13 144.90 228.27 148.70 227.88 152.54
  A 2.30 2.28 1.7 0 1 225.69 154.59
  C 223.16 154.68 219.93 154.46 218.00 156.35
  Q 217.61 156.73 217.69 157.26
  C 218.33 161.39 222.18 160.64 225.13 160.07
  Q 226.75 159.76 228.40 159.74
  Q 242.38 159.56 256.78 159.45
  Q 261.47 159.41 261.50 155.05
  Q 261.55 150.31 261.14 145.16
  Q 261.04 143.92 260.21 143.15
  A 1.96 1.96 0.0 0 0 257.03 143.94
  Q 255.65 147.88 255.77 152.27
  A 1.14 1.13 -3.5 0 1 254.74 153.43
  Q 250.06 153.84 245.12 153.77
  Q 242.23 153.73 242.30 150.62
  Q 242.59 138.21 241.56 126.93
  Q 241.24 123.40 244.73 123.35
  Q 247.51 123.31 250.31 122.89
  C 253.86 122.37 253.11 118.23 249.96 117.78
  Q 247.10 117.37 243.66 117.30
  A 1.43 1.42 83.3 0 1 242.31 116.23
  Q 241.85 114.48 241.94 112.70
  Q 242.73 98.03 243.80 79.95
  Z"
/>
<path fill="none" stroke-width="1.00" stroke="#ffffff" vector-effect="non-scaling-stroke" d="
  M 150.41 28.96
  Q 149.22 31.47 146.80 32.79
  A 0.87 0.86 -25.8 0 1 145.58 32.37
  C 144.69 30.23 144.41 25.87 147.09 24.85
  C 150.26 23.65 151.66 26.32 150.41 28.96
  Z"
/>
<path fill="none" stroke-width="1.00" stroke="#ffffff" vector-effect="non-scaling-stroke" d="
  M 321.68 26.83
  Q 322.74 29.91 321.34 32.46
  A 0.90 0.90 0.0 0 1 320.04 32.76
  Q 316.51 30.28 316.09 27.03
  Q 315.82 24.99 317.87 24.74
  L 318.25 24.69
  Q 320.83 24.37 321.68 26.83
  Z"
/>
<path fill="none" stroke-width="1.00" stroke="#ffffff" vector-effect="non-scaling-stroke" d="
  M 243.80 79.95
  Q 242.73 98.03 241.94 112.70
  Q 241.85 114.48 242.31 116.23
  A 1.43 1.42 83.3 0 0 243.66 117.30
  Q 247.10 117.37 249.96 117.78
  C 253.11 118.23 253.86 122.37 250.31 122.89
  Q 247.51 123.31 244.73 123.35
  Q 241.24 123.40 241.56 126.93
  Q 242.59 138.21 242.30 150.62
  Q 242.23 153.73 245.12 153.77
  Q 250.06 153.84 254.74 153.43
  A 1.14 1.13 -3.5 0 0 255.77 152.27
  Q 255.65 147.88 257.03 143.94
  A 1.96 1.96 0.0 0 1 260.21 143.15
  Q 261.04 143.92 261.14 145.16
  Q 261.55 150.31 261.50 155.05
  Q 261.47 159.41 256.78 159.45
  Q 242.38 159.56 228.40 159.74
  Q 226.75 159.76 225.13 160.07
  C 222.18 160.64 218.33 161.39 217.69 157.26
  Q 217.61 156.73 218.00 156.35
  C 219.93 154.46 223.16 154.68 225.69 154.59
  A 2.30 2.28 1.7 0 0 227.88 152.54
  C 228.27 148.70 228.13 144.90 228.58 141.05
  Q 229.40 133.99 229.19 125.17
  Q 229.15 123.33 227.28 123.15
  Q 221.80 122.60 216.61 120.15
  C 213.21 118.55 210.64 114.22 208.48 111.12
  C 201.35 100.93 202.94 86.94 209.48 77.25
  C 211.82 73.80 216.15 72.92 220.09 73.94
  Q 226.14 75.52 230.31 74.79
  Q 243.60 72.49 258.18 73.19
  C 260.23 73.28 263.06 73.88 263.14 76.48
  Q 263.30 82.49 263.11 88.54
  Q 263.06 89.87 262.10 90.72
  A 1.70 1.70 0.0 0 1 259.56 90.37
  C 257.86 87.77 257.89 83.15 257.67 80.11
  A 1.23 1.22 -2.5 0 0 256.42 78.97
  L 244.56 79.21
  Q 243.84 79.23 243.80 79.95
  Z
  M 211.35 82.50
  Q 207.21 91.63 209.06 102.15
  C 209.63 105.34 211.46 107.73 213.21 110.33
  Q 218.19 117.73 228.07 117.97
  A 1.26 1.25 90.0 0 0 229.36 116.67
  Q 228.97 103.69 229.31 91.15
  Q 229.43 86.77 229.18 81.81
  A 1.95 1.94 -87.5 0 0 227.51 79.98
  Q 223.34 79.40 218.25 78.35
  C 214.96 77.68 212.75 79.44 211.35 82.50
  Z"
/>
<path fill="none" stroke-width="1.00" stroke="#d0021b" vector-effect="non-scaling-stroke" d="
  M 211.35 82.50
  C 212.75 79.44 214.96 77.68 218.25 78.35
  Q 223.34 79.40 227.51 79.98
  A 1.95 1.94 -87.5 0 1 229.18 81.81
  Q 229.43 86.77 229.31 91.15
  Q 228.97 103.69 229.36 116.67
  A 1.26 1.25 90.0 0 1 228.07 117.97
  Q 218.19 117.73 213.21 110.33
  C 211.46 107.73 209.63 105.34 209.06 102.15
  Q 207.21 91.63 211.35 82.50
  Z"
/>
<path fill="none" stroke-width="1.00" stroke="#d0021b" vector-effect="non-scaling-stroke" d="
  M 232.84 225.42
  Q 228.06 223.48 223.69 226.33
  Q 222.30 227.23 222.05 228.80
  C 220.63 237.66 231.85 244.69 237.53 249.55
  C 246.43 257.16 251.96 264.45 248.83 277.26
  Q 246.85 285.31 239.90 289.06
  C 235.52 291.43 229.68 291.39 224.70 291.44
  Q 221.55 291.46 219.03 290.24
  C 213.02 287.30 209.35 283.49 208.30 276.74
  Q 207.33 270.57 207.78 265.44
  A 1.96 1.96 0.0 0 1 209.55 263.67
  Q 215.51 263.13 221.05 264.07
  A 0.91 0.91 0.0 0 1 221.80 265.02
  Q 221.51 269.60 222.12 273.83
  C 223.26 281.76 236.68 279.14 235.77 271.19
  C 235.33 267.40 234.14 264.79 231.22 262.34
  Q 221.25 253.95 212.04 245.40
  C 206.15 239.93 206.90 228.28 209.46 221.76
  C 210.93 218.02 214.72 214.72 218.35 212.92
  Q 223.56 210.35 230.93 210.44
  Q 237.20 210.52 242.13 214.42
  C 249.55 220.29 251.07 228.84 249.94 237.97
  Q 249.83 238.84 248.96 238.90
  C 245.17 239.15 240.39 239.73 236.87 238.47
  A 1.19 1.18 -77.2 0 1 236.08 237.21
  C 236.44 234.27 236.30 226.83 232.84 225.42
  Z"
/>
<path fill="none" stroke-width="1.00" stroke="#d0021b" vector-effect="non-scaling-stroke" d="
  M 169.52 271.76
  C 169.86 279.66 184.03 279.15 183.84 272.14
  Q 183.46 258.00 183.80 245.59
  C 184.10 234.60 183.78 223.32 184.20 212.38
  Q 184.23 211.71 184.88 211.57
  Q 190.86 210.27 196.44 211.07
  Q 198.27 211.33 198.28 213.19
  C 198.31 218.24 197.92 223.20 197.95 228.25
  Q 198.18 260.24 197.73 273.74
  Q 197.68 275.46 196.77 278.77
  Q 196.06 281.34 194.55 283.31
  Q 188.72 290.88 178.62 291.27
  C 174.06 291.45 169.75 291.34 165.66 288.94
  Q 155.39 282.93 155.34 271.35
  Q 155.22 241.64 155.50 212.42
  Q 155.51 211.82 156.10 211.68
  Q 162.49 210.14 168.90 211.49
  A 0.64 0.64 0.0 0 1 169.40 212.10
  Q 169.44 222.85 169.53 235.41
  C 169.61 247.20 169.00 259.70 169.52 271.76
  Z"
/>
<path fill="none" stroke-width="1.00" stroke="#d0021b" vector-effect="non-scaling-stroke" d="
  M 398.56 224.33
  C 390.29 224.28 390.75 230.27 391.18 236.35
  Q 391.39 239.44 391.30 242.89
  Q 390.92 257.56 391.50 271.76
  C 391.61 274.37 393.07 276.52 395.62 277.27
  Q 399.80 278.50 403.82 275.60
  C 406.28 273.82 406.08 267.55 405.98 265.03
  Q 405.93 263.76 407.16 263.45
  Q 412.80 262.09 418.90 263.46
  Q 419.39 263.57 419.43 264.07
  C 419.99 272.18 420.11 280.74 413.42 286.22
  C 406.66 291.76 399.54 291.89 391.29 290.90
  Q 388.00 290.51 384.87 287.99
  Q 377.16 281.80 377.07 270.86
  Q 377.02 263.31 377.21 257.26
  C 377.29 254.70 376.95 252.15 376.93 249.65
  Q 376.87 241.95 377.11 233.49
  C 377.26 228.20 378.24 218.68 383.12 215.48
  C 386.55 213.23 390.39 210.86 394.69 210.72
  Q 401.85 210.49 406.70 211.68
  C 410.05 212.50 412.55 215.11 414.75 217.65
  C 419.46 223.09 419.51 230.75 418.99 237.34
  A 0.74 0.74 0.0 0 1 418.37 238.01
  Q 412.63 238.85 406.97 238.23
  A 1.80 1.79 -84.8 0 1 405.38 236.32
  C 405.76 230.91 406.23 224.38 398.56 224.33
  Z"
/>
<path fill="none" stroke-width="1.00" stroke="#d0021b" vector-effect="non-scaling-stroke" d="
  M 282.94 236.54
  A 0.46 0.46 0.0 0 0 283.78 236.54
  Q 289.05 224.95 293.07 212.45
  A 1.15 1.14 4.9 0 1 294.00 211.67
  Q 300.71 210.79 307.55 211.64
  A 0.96 0.96 0.0 0 1 308.32 212.97
  L 290.62 254.96
  A 7.08 7.00 -34.5 0 0 290.07 257.83
  C 290.19 263.07 290.37 268.19 290.16 273.45
  Q 289.82 281.64 290.30 289.89
  A 0.87 0.86 83.8 0 1 289.57 290.80
  Q 283.01 291.75 277.14 291.16
  Q 276.12 291.06 276.13 290.03
  C 276.17 286.79 276.48 283.55 276.29 280.29
  Q 275.65 269.47 276.30 258.94
  Q 276.45 256.38 275.49 253.88
  C 272.93 247.24 269.96 240.86 267.44 234.26
  Q 263.13 222.97 258.45 212.47
  Q 258.33 212.20 258.40 211.91
  A 0.69 0.68 -85.7 0 1 258.99 211.40
  Q 266.40 210.75 273.15 211.43
  A 1.05 1.03 82.3 0 1 274.00 212.09
  C 277.12 220.20 279.51 228.90 282.94 236.54
  Z"
/>
<path fill="none" stroke-width="1.00" stroke="#d0021b" vector-effect="non-scaling-stroke" d="
  M 332.78 248.07
  Q 332.57 248.31 332.58 248.64
  Q 333.01 264.74 333.11 277.92
  Q 333.15 283.42 332.72 289.12
  A 1.60 1.59 87.7 0 1 331.39 290.57
  Q 325.14 291.58 319.48 290.37
  A 0.91 0.89 -84.2 0 1 318.77 289.48
  L 318.97 212.73
  A 0.91 0.91 0.0 0 1 319.75 211.83
  Q 325.03 211.09 330.43 211.30
  Q 331.89 211.35 332.47 212.69
  Q 339.75 229.47 346.91 246.79
  Q 348.46 250.53 350.26 254.22
  Q 351.43 256.60 351.53 253.95
  C 352.05 240.66 351.74 226.73 351.53 212.09
  A 0.46 0.45 84.1 0 1 351.90 211.63
  Q 358.03 210.37 364.11 211.69
  A 1.14 1.13 5.5 0 1 365.01 212.77
  Q 365.22 219.74 365.13 224.74
  Q 364.79 243.65 364.77 259.82
  C 364.76 269.78 365.38 279.93 365.18 289.74
  A 1.06 1.06 0.0 0 1 364.11 290.78
  L 352.36 290.72
  A 1.85 1.84 77.8 0 1 350.68 289.63
  C 344.47 275.79 339.73 261.71 333.12 248.11
  A 0.20 0.20 0.0 0 0 332.78 248.07
  Z"
/>
<path fill="none" stroke-width="1.00" stroke="#d0021b" vector-effect="non-scaling-stroke" d="
  M 61.82 226.34
  Q 61.64 231.67 61.26 237.51
  Q 61.04 240.89 61.92 243.98
  A 0.79 0.79 0.0 0 0 62.69 244.55
  L 82.51 244.50
  A 1.31 1.30 -4.0 0 1 83.81 245.62
  Q 84.57 250.91 84.10 256.71
  A 1.14 1.14 0.0 0 1 82.96 257.75
  L 62.44 257.75
  A 0.56 0.56 0.0 0 0 61.88 258.31
  L 61.67 276.14
  A 0.65 0.65 0.0 0 0 62.29 276.80
  Q 76.06 277.41 89.44 276.97
  A 0.88 0.88 0.0 0 1 90.34 277.75
  Q 91.07 283.75 89.93 290.16
  Q 89.82 290.75 89.21 290.72
  C 82.73 290.37 76.28 290.10 69.92 290.55
  Q 59.16 291.30 48.82 291.01
  A 1.06 1.05 -89.2 0 1 47.80 289.95
  C 47.82 285.76 47.56 281.71 47.55 277.56
  Q 47.46 245.42 47.50 212.57
  A 1.06 1.05 89.7 0 1 48.53 211.52
  Q 68.64 210.98 89.34 211.52
  A 0.93 0.92 -4.2 0 1 90.23 212.28
  Q 91.34 218.67 89.97 225.28
  A 0.94 0.94 0.0 0 1 89.04 226.03
  L 62.50 225.69
  Q 61.84 225.68 61.82 226.34
  Z"
/>
<path fill="none" stroke-width="1.00" stroke="#d0021b" vector-effect="non-scaling-stroke" d="
  M 103.32 213.22
  A 1.79 1.79 0.0 0 1 105.09 211.41
  L 125.91 211.23
  A 20.17 19.81 89.5 0 1 145.90 231.23
  L 146.24 270.46
  A 20.17 19.81 89.5 0 1 126.61 290.81
  L 105.79 290.99
  A 1.79 1.79 0.0 0 1 103.98 289.21
  L 103.32 213.22
  Z
  M 118.00 225.80
  L 118.18 276.40
  A 1.49 1.49 0.0 0 0 119.67 277.88
  L 125.26 277.86
  A 7.50 7.36 89.8 0 0 132.60 270.33
  L 132.46 231.75
  A 7.50 7.36 89.8 0 0 125.08 224.28
  L 119.49 224.30
  A 1.49 1.49 0.0 0 0 118.00 225.80
  Z"
/>
<path fill="none" stroke-width="1.00" stroke="#ffffff" vector-effect="non-scaling-stroke" d="
  M 118.00 225.80
  A 1.49 1.49 0.0 0 1 119.49 224.30
  L 125.08 224.28
  A 7.50 7.36 89.8 0 1 132.46 231.75
  L 132.60 270.33
  A 7.50 7.36 89.8 0 1 125.26 277.86
  L 119.67 277.88
  A 1.49 1.49 0.0 0 1 118.18 276.40
  L 118.00 225.80
  Z"
/>
<path fill="none" stroke-width="1.00" stroke="#030405" vector-effect="non-scaling-stroke" d="
  M 131.34 305.87
  Q 132.49 307.24 133.89 308.38
  C 138.72 312.34 132.21 317.96 129.12 312.89
  A 1.85 1.82 -57.4 0 1 128.86 311.67
  Q 129.09 310.09 130.21 310.26
  Q 130.87 310.36 130.99 311.02
  Q 131.11 311.76 131.57 312.34
  Q 132.13 313.06 132.93 312.61
  Q 133.20 312.46 133.35 312.20
  Q 133.79 311.49 133.22 310.88
  Q 131.73 309.27 129.98 307.71
  C 126.19 304.32 132.57 298.88 135.51 304.25
  Q 136.03 305.20 135.46 306.13
  Q 135.27 306.44 134.92 306.59
  A 1.00 0.99 67.1 0 1 133.64 306.06
  L 133.07 304.74
  Q 132.80 304.12 132.14 304.31
  Q 131.72 304.44 131.40 304.73
  A 0.83 0.83 0.0 0 0 131.34 305.87
  Z"
/>
<path fill="none" stroke-width="1.00" stroke="#030405" vector-effect="non-scaling-stroke" d="
  M 163.72 308.31
  L 163.61 313.89
  A 0.93 0.93 0.0 0 1 162.60 314.80
  L 162.34 314.77
  Q 161.72 314.72 161.71 314.09
  L 161.51 303.02
  Q 161.50 302.10 162.42 302.03
  L 162.80 302.00
  A 0.61 0.60 86.3 0 1 163.45 302.58
  L 163.59 305.24
  Q 163.63 305.89 164.27 305.78
  C 169.25 304.91 168.05 311.43 167.74 314.20
  A 0.70 0.70 0.0 0 1 166.97 314.83
  L 166.68 314.80
  Q 165.72 314.71 165.75 313.76
  L 165.87 309.14
  Q 165.89 308.23 165.08 307.83
  Q 164.93 307.76 164.77 307.68
  Q 163.74 307.17 163.72 308.31
  Z"
/>
<path fill="none" stroke-width="1.00" stroke="#030405" vector-effect="non-scaling-stroke" d="
  M 263.13 305.64
  Q 263.52 305.81 263.89 306.03
  Q 264.48 306.39 264.25 307.02
  Q 264.04 307.56 263.46 307.59
  Q 263.01 307.62 262.70 307.91
  Q 262.37 308.21 262.37 308.66
  L 262.29 314.19
  Q 262.28 314.86 261.63 314.97
  Q 261.29 315.03 260.97 314.93
  A 1.25 1.24 11.3 0 1 260.10 313.63
  Q 260.35 310.66 259.60 307.96
  Q 259.13 306.30 260.02 304.37
  C 260.67 302.97 262.46 301.52 264.04 302.14
  Q 264.66 302.39 264.55 303.14
  Q 264.46 303.74 263.89 303.95
  Q 263.47 304.10 263.08 304.30
  Q 261.67 305.03 263.13 305.64
  Z"
/>
<path fill="none" stroke-width="1.00" stroke="#030405" vector-effect="non-scaling-stroke" d="
  M 283.68 305.71
  A 1.05 1.05 0.0 0 0 284.78 304.47
  Q 284.61 303.46 284.96 302.48
  Q 285.15 301.96 285.70 301.97
  Q 286.83 301.98 286.85 302.99
  Q 286.95 308.48 286.96 314.15
  Q 286.96 314.65 286.47 314.66
  L 282.75 314.74
  Q 281.37 314.77 280.93 313.46
  C 280.08 310.91 279.56 305.46 283.68 305.71
  Z
  M 284.6752 308.6634
  A 0.96 0.96 0.0 0 0 283.7002 307.7186
  L 283.4803 307.7220
  A 0.96 0.96 0.0 0 0 282.5355 308.6970
  L 282.5848 311.8366
  A 0.96 0.96 0.0 0 0 283.5598 312.7814
  L 283.7797 312.7780
  A 0.96 0.96 0.0 0 0 284.7245 311.8030
  L 284.6752 308.6634
  Z"
/>
<circle fill="none" stroke-width="1.00" stroke="#030405" vector-effect="non-scaling-stroke" cx="193.04" cy="303.18" r="1.13"/>
<ellipse fill="none" stroke-width="1.00" stroke="#030405" vector-effect="non-scaling-stroke" cx="0.00" cy="0.00" transform="translate(218.98,303.17) rotate(0.4)" rx="1.26" ry="0.98"/>
<path fill="none" stroke-width="1.00" stroke="#030405" vector-effect="non-scaling-stroke" d="
  M 275.34 309.45
  Q 274.61 309.42 274.42 310.12
  Q 274.12 311.23 274.42 312.14
  A 0.50 0.49 81.4 0 0 274.87 312.48
  L 277.97 312.59
  Q 279.06 312.62 278.98 313.72
  L 278.94 314.12
  A 0.56 0.55 -88.3 0 1 278.40 314.64
  L 272.84 314.79
  Q 272.11 314.81 272.11 314.09
  L 272.04 302.97
  Q 272.03 302.21 272.79 302.22
  L 278.18 302.24
  A 0.75 0.75 0.0 0 1 278.82 302.60
  Q 279.15 303.15 279.01 303.62
  Q 278.76 304.52 277.83 304.50
  L 275.19 304.45
  Q 274.45 304.44 274.28 305.15
  Q 274.02 306.19 274.54 306.94
  Q 274.87 307.41 275.45 307.42
  L 277.45 307.46
  A 0.69 0.68 -89.2 0 1 278.12 308.16
  L 278.12 308.50
  A 1.05 1.05 0.0 0 1 277.02 309.54
  L 275.34 309.45
  Z"
/>
<circle fill="none" stroke-width="1.00" stroke="#030405" vector-effect="non-scaling-stroke" cx="320.67" cy="303.20" r="1.15"/>
<path fill="none" stroke-width="1.00" stroke="#030405" vector-effect="non-scaling-stroke" d="
  M 214.45 308.57
  Q 213.69 311.99 216.08 313.37
  A 0.81 0.80 54.6 0 1 215.83 314.86
  C 211.93 315.58 212.40 311.24 212.21 309.00
  Q 212.16 308.46 211.82 308.03
  L 211.10 307.14
  Q 210.84 306.82 211.05 306.48
  L 212.81 303.55
  A 0.46 0.46 0.0 0 1 213.56 303.50
  L 215.79 306.30
  Q 216.16 306.77 215.85 307.28
  Q 215.60 307.70 215.09 307.86
  Q 214.57 308.03 214.45 308.57
  Z"
/>
<path fill="none" stroke-width="1.00" stroke="#030405" vector-effect="non-scaling-stroke" d="
  M 316.20 308.60
  Q 315.58 311.99 317.51 313.23
  Q 319.28 314.37 317.23 314.82
  C 313.47 315.64 314.01 310.65 313.79 308.63
  Q 313.74 308.08 313.26 307.79
  Q 312.92 307.58 312.68 307.26
  A 0.72 0.71 44.7 0 1 312.67 306.44
  L 314.65 303.39
  A 0.27 0.26 42.2 0 1 315.08 303.37
  L 317.78 306.63
  A 0.51 0.51 0.0 0 1 317.63 307.40
  Q 317.41 307.52 317.16 307.58
  A 1.29 1.29 0.0 0 0 316.20 308.60
  Z"
/>
<rect fill="none" stroke-width="1.00" stroke="#030405" vector-effect="non-scaling-stroke" x="319.53" y="305.45" width="2.20" height="9.38" rx="1.05"/>
<path fill="none" stroke-width="1.00" stroke="#030405" vector-effect="non-scaling-stroke" d="
  M 141.14 309.60
  Q 141.83 308.22 142.18 306.51
  Q 142.33 305.76 143.09 305.75
  L 143.53 305.73
  A 0.68 0.68 0.0 0 1 144.21 306.57
  Q 143.17 310.96 141.88 315.21
  Q 141.06 317.93 139.15 318.08
  Q 136.41 318.29 138.54 316.56
  C 139.49 315.79 139.86 314.89 139.52 313.74
  Q 138.49 310.28 137.51 306.63
  Q 137.32 305.93 137.97 305.59
  Q 138.20 305.47 138.45 305.49
  Q 139.31 305.53 139.54 306.36
  L 140.43 309.53
  Q 140.70 310.50 141.14 309.60
  Z"
/>
<path fill="none" stroke-width="1.00" stroke="#030405" vector-effect="non-scaling-stroke" d="
  M 155.92 312.27
  A 0.80 0.80 0.0 0 0 157.34 312.57
  L 158.40 311.19
  Q 158.76 310.72 159.24 311.07
  Q 159.89 311.54 159.73 312.33
  Q 159.14 315.37 155.98 314.69
  C 153.48 314.15 153.21 311.27 153.33 309.17
  C 153.60 304.39 159.83 304.55 159.74 308.40
  A 0.74 0.74 0.0 0 1 158.53 308.95
  L 157.06 307.72
  A 0.76 0.76 0.0 0 0 155.83 308.20
  Q 155.50 310.53 155.92 312.27
  Z"
/>
<path fill="none" stroke-width="1.00" stroke="#030405" vector-effect="non-scaling-stroke" d="
  M 171.69 308.86
  L 171.58 314.10
  A 0.75 0.75 0.0 0 1 170.90 314.84
  L 170.50 314.88
  Q 169.53 314.98 169.52 314.00
  L 169.46 306.48
  A 0.68 0.67 -86.7 0 1 170.22 305.80
  Q 172.00 306.02 173.79 305.61
  A 0.53 0.52 80.4 0 1 174.43 306.07
  L 174.48 306.47
  Q 174.54 307.15 173.90 307.38
  L 172.34 307.95
  Q 171.70 308.18 171.69 308.86
  Z"
/>
<rect fill="none" stroke-width="1.00" stroke="#030405" vector-effect="non-scaling-stroke" x="-1.03" y="-4.60" transform="translate(193.03,310.20) rotate(0.6)" width="2.06" height="9.20" rx="0.89"/>
<path fill="none" stroke-width="1.00" stroke="#030405" vector-effect="non-scaling-stroke" d="
  M 199.21 312.68
  Q 200.52 312.37 201.45 313.30
  Q 202.51 314.37 201.03 314.60
  Q 199.04 314.90 196.91 314.81
  A 1.28 1.28 0.0 0 1 195.89 312.83
  L 198.70 308.50
  Q 199.18 307.75 198.29 307.75
  L 196.95 307.75
  Q 196.13 307.75 196.02 306.95
  L 195.96 306.51
  Q 195.84 305.62 196.74 305.64
  L 200.99 305.73
  A 0.97 0.97 0.0 0 1 201.86 307.07
  Q 200.71 309.84 198.82 312.04
  A 0.40 0.39 -76.6 0 0 199.21 312.68
  Z"
/>
<path fill="none" stroke-width="1.00" stroke="#030405" vector-effect="non-scaling-stroke" d="
  M 206.24 307.50
  Q 205.40 307.91 204.84 308.68
  A 0.71 0.71 0.0 0 1 203.62 308.57
  Q 202.86 306.99 204.53 306.09
  Q 207.08 304.71 209.11 306.73
  Q 209.48 307.11 209.49 307.64
  L 209.54 314.03
  Q 209.54 314.85 208.72 314.76
  Q 207.31 314.61 205.99 314.87
  A 2.18 2.18 0.0 0 1 203.40 312.66
  Q 203.49 309.79 206.21 309.42
  Q 206.83 309.34 207.21 308.85
  Q 207.50 308.50 207.38 308.04
  A 0.81 0.80 70.3 0 0 206.24 307.50
  Z
  M 205.9507 313.0180
  A 1.18 0.85 119.4 0 0 207.2705 312.4073
  A 1.18 0.85 119.4 0 0 207.1093 310.9620
  A 1.18 0.85 119.4 0 0 205.7895 311.5727
  A 1.18 0.85 119.4 0 0 205.9507 313.0180
  Z"
/>
<rect fill="none" stroke-width="1.00" stroke="#030405" vector-effect="non-scaling-stroke" x="-1.05" y="-4.58" transform="translate(218.94,310.22) rotate(0.1)" width="2.10" height="9.16" rx="0.90"/>
<path fill="none" stroke-width="1.00" stroke="#030405" vector-effect="non-scaling-stroke" d="
  M 241.42 312.86
  A 0.67 0.67 0.0 0 0 241.32 311.70
  C 233.79 308.33 241.04 302.55 243.69 307.28
  Q 244.06 307.93 243.60 308.62
  Q 243.46 308.83 243.22 308.92
  A 0.90 0.90 0.0 0 1 242.17 308.56
  Q 241.66 307.76 240.72 307.45
  A 0.41 0.40 -67.2 0 0 240.24 307.65
  L 240.12 307.89
  Q 239.80 308.50 240.36 308.90
  Q 241.22 309.52 242.19 309.96
  C 245.09 311.26 244.08 315.14 240.87 315.04
  Q 239.97 315.01 239.34 314.38
  Q 237.53 312.57 238.10 312.05
  Q 239.30 310.96 240.13 312.51
  Q 240.62 313.41 241.42 312.86
  Z"
/>
<path fill="none" stroke-width="1.00" stroke="#030405" vector-effect="non-scaling-stroke" d="
  M 293.41 311.97
  L 293.52 306.73
  A 0.87 0.82 63.1 0 1 293.66 306.26
  Q 294.15 305.46 294.71 305.58
  Q 295.49 305.76 295.49 306.56
  L 295.49 313.80
  Q 295.49 314.59 294.70 314.63
  L 291.57 314.75
  Q 289.43 314.83 289.17 312.70
  Q 288.80 309.61 289.09 306.58
  A 1.09 1.08 89.7 0 1 290.04 305.61
  L 290.30 305.57
  Q 291.04 305.48 291.05 306.23
  L 291.18 311.77
  Q 291.20 312.52 291.91 312.75
  Q 292.27 312.87 292.64 312.82
  Q 293.39 312.72 293.41 311.97
  Z"
/>
<path fill="none" stroke-width="1.00" stroke="#030405" vector-effect="non-scaling-stroke" d="
  M 300.80 312.63
  L 301.90 311.19
  Q 302.25 310.72 302.78 310.96
  Q 303.47 311.26 303.35 312.06
  Q 302.88 315.05 299.74 314.74
  C 296.46 314.41 296.94 309.76 297.41 307.41
  A 1.82 1.82 0.0 0 1 298.14 306.28
  Q 300.56 304.52 302.92 306.93
  Q 303.71 307.74 303.27 308.72
  Q 302.96 309.42 302.27 309.10
  Q 301.69 308.85 301.30 308.33
  Q 299.75 306.32 299.28 308.82
  Q 298.96 310.54 299.47 312.37
  A 0.76 0.75 55.7 0 0 300.80 312.63
  Z"
/>
<path fill="none" stroke-width="1.00" stroke="#030405" vector-effect="non-scaling-stroke" d="
  M 309.17 308.34
  Q 308.96 307.33 308.04 307.49
  C 307.23 307.64 307.15 308.18 306.61 308.62
  Q 306.28 308.88 305.86 308.83
  Q 305.25 308.76 305.06 308.19
  Q 304.91 307.73 305.13 307.31
  C 306.52 304.74 310.95 304.91 311.16 308.16
  Q 311.33 310.88 311.28 313.95
  Q 311.27 314.58 310.64 314.62
  L 307.47 314.82
  A 2.33 2.32 -87.6 0 1 305.02 312.15
  Q 305.42 309.56 308.52 309.23
  A 0.75 0.74 -9.1 0 0 309.17 308.34
  Z
  M 308.13 310.97
  Q 307.32 311.41 307.20 312.28
  A 0.54 0.54 0.0 0 0 307.81 312.89
  L 308.67 312.75
  Q 309.16 312.68 309.22 312.19
  Q 309.31 311.55 308.86 311.08
  Q 308.54 310.75 308.13 310.97
  Z"
/>
<path fill="none" stroke-width="1.00" stroke="#030405" vector-effect="non-scaling-stroke" d="
  M 147.91 308.01
  L 147.83 314.47
  A 0.43 0.43 0.0 0 1 147.37 314.89
  L 146.13 314.82
  A 0.43 0.43 0.0 0 1 145.73 314.38
  L 145.82 306.23
  A 0.43 0.43 0.0 0 1 146.27 305.81
  L 151.56 306.01
  A 0.43 0.43 0.0 0 1 151.98 306.44
  L 152.11 314.48
  A 0.43 0.43 0.0 0 1 151.64 314.91
  L 150.38 314.79
  A 0.43 0.43 0.0 0 1 149.99 314.36
  L 149.95 308.02
  A 0.43 0.43 0.0 0 0 149.52 307.59
  L 148.34 307.59
  A 0.43 0.43 0.0 0 0 147.91 308.01
  Z"
/>
<path fill="none" stroke-width="1.00" stroke="#030405" vector-effect="non-scaling-stroke" d="
  M 182.2454 311.9179
  A 2.83 2.83 0.0 0 1 179.3908 314.7231
  L 178.6508 314.7166
  A 2.83 2.83 0.0 0 1 175.8456 311.8620
  L 175.8746 308.5421
  A 2.83 2.83 0.0 0 1 178.7292 305.7369
  L 179.4692 305.7434
  A 2.83 2.83 0.0 0 1 182.2744 308.5980
  L 182.2454 311.9179
  Z
  M 179.9744 308.5527
  A 0.94 0.94 0.0 0 0 179.0085 307.6393
  L 178.8885 307.6427
  A 0.94 0.94 0.0 0 0 177.9752 308.6086
  L 178.0656 311.8473
  A 0.94 0.94 0.0 0 0 179.0315 312.7607
  L 179.1515 312.7573
  A 0.94 0.94 0.0 0 0 180.0648 311.7914
  L 179.9744 308.5527
  Z"
/>
<path fill="none" stroke-width="1.00" stroke="#030405" vector-effect="non-scaling-stroke" d="
  M 187.81 307.56
  L 186.45 307.72
  A 0.35 0.35 0.0 0 0 186.14 308.06
  L 186.01 314.67
  A 0.35 0.35 0.0 0 1 185.58 315.01
  L 184.24 314.70
  A 0.35 0.35 0.0 0 1 183.97 314.36
  L 183.91 306.13
  A 0.35 0.35 0.0 0 1 184.26 305.78
  L 189.57 305.72
  A 0.35 0.35 0.0 0 1 189.93 306.07
  L 190.11 314.48
  A 0.35 0.35 0.0 0 1 189.74 314.83
  L 188.66 314.75
  A 0.35 0.35 0.0 0 1 188.33 314.41
  L 188.20 307.90
  A 0.35 0.35 0.0 0 0 187.81 307.56
  Z"
/>
<path fill="none" stroke-width="1.00" stroke="#030405" vector-effect="non-scaling-stroke" d="
  M 228.4824 311.8053
  A 2.88 2.88 0.0 0 1 225.6429 314.7252
  L 225.0230 314.7339
  A 2.88 2.88 0.0 0 1 222.1031 311.8944
  L 222.0576 308.6347
  A 2.88 2.88 0.0 0 1 224.8971 305.7148
  L 225.5170 305.7061
  A 2.88 2.88 0.0 0 1 228.4369 308.5456
  L 228.4824 311.8053
  Z
  M 226.1557 308.4795
  A 0.98 0.98 0.0 0 0 225.1274 307.5503
  L 225.0075 307.5564
  A 0.98 0.98 0.0 0 0 224.0784 308.5847
  L 224.2443 311.8605
  A 0.98 0.98 0.0 0 0 225.2726 312.7897
  L 225.3925 312.7836
  A 0.98 0.98 0.0 0 0 226.3216 311.7553
  L 226.1557 308.4795
  Z"
/>
<path fill="none" stroke-width="1.00" stroke="#030405" vector-effect="non-scaling-stroke" d="
  M 232.38 308.30
  L 232.22 314.01
  A 1.00 0.99 4.7 0 1 231.09 314.96
  Q 230.92 314.94 230.75 314.91
  A 0.71 0.71 0.0 0 1 230.16 314.22
  L 230.04 306.48
  Q 230.03 305.73 230.79 305.77
  Q 232.28 305.86 233.78 305.70
  C 237.55 305.28 236.58 312.51 236.13 314.63
  A 0.52 0.52 0.0 0 1 235.52 315.03
  L 235.27 314.98
  A 0.95 0.94 -85.0 0 1 234.52 314.08
  L 234.40 308.48
  A 0.89 0.89 0.0 0 0 233.49 307.61
  L 233.07 307.62
  A 0.71 0.70 -0.0 0 0 232.38 308.30
  Z"
/>
<path fill="none" stroke-width="1.00" stroke="#030405" vector-effect="non-scaling-stroke" d="
  M 258.0397 311.7275
  A 2.95 2.95 0.0 0 1 255.1469 314.7336
  L 254.5670 314.7447
  A 2.95 2.95 0.0 0 1 251.5609 311.8519
  L 251.5003 308.6925
  A 2.95 2.95 0.0 0 1 254.3931 305.6864
  L 254.9730 305.6753
  A 2.95 2.95 0.0 0 1 257.9791 308.5681
  L 258.0397 311.7275
  Z
  M 255.9000 308.7119
  A 1.10 1.10 0.0 0 0 254.7923 307.6196
  L 254.6523 307.6206
  A 1.10 1.10 0.0 0 0 253.5600 308.7282
  L 253.5800 311.5881
  A 1.10 1.10 0.0 0 0 254.6877 312.6804
  L 254.8277 312.6794
  A 1.10 1.10 0.0 0 0 255.9200 311.5718
  L 255.9000 308.7119
  Z"
/>
<path fill="none" stroke-width="1.00" stroke="#030405" vector-effect="non-scaling-stroke" d="
  M 330.0232 311.7724
  A 2.89 2.89 0.0 0 1 327.1944 314.7223
  L 326.5545 314.7357
  A 2.89 2.89 0.0 0 1 323.6046 311.9069
  L 323.5368 308.6676
  A 2.89 2.89 0.0 0 1 326.3656 305.7177
  L 327.0055 305.7043
  A 2.89 2.89 0.0 0 1 329.9554 308.5331
  L 330.0232 311.7724
  Z
  M 326.9725 312.9491
  A 2.77 1.12 88.5 0 0 328.0196 310.1507
  A 2.77 1.12 88.5 0 0 326.8275 307.4109
  A 2.77 1.12 88.5 0 0 325.7804 310.2093
  A 2.77 1.12 88.5 0 0 326.9725 312.9491
  Z"
/>
<path fill="none" stroke-width="1.00" stroke="#030405" vector-effect="non-scaling-stroke" d="
  M 335.59 307.72
  L 334.27 307.67
  A 0.41 0.41 0.0 0 0 333.85 308.08
  L 333.93 314.46
  A 0.41 0.41 0.0 0 1 333.52 314.88
  L 332.27 314.87
  A 0.41 0.41 0.0 0 1 331.86 314.47
  L 331.75 306.21
  A 0.41 0.41 0.0 0 1 332.15 305.79
  L 337.44 305.72
  A 0.41 0.41 0.0 0 1 337.86 306.12
  L 338.06 314.43
  A 0.41 0.41 0.0 0 1 337.69 314.85
  L 336.63 314.95
  A 0.41 0.41 0.0 0 1 336.18 314.55
  L 335.98 308.12
  A 0.41 0.41 0.0 0 0 335.59 307.72
  Z"
/>
<rect fill="none" stroke-width="1.00" stroke="#ffffff" vector-effect="non-scaling-stroke" x="-1.00" y="-2.56" transform="translate(179.02,310.20) rotate(-1.6)" width="2.00" height="5.12" rx="0.94"/>
<rect fill="none" stroke-width="1.00" stroke="#ffffff" vector-effect="non-scaling-stroke" x="-1.04" y="-2.62" transform="translate(225.20,310.17) rotate(-2.9)" width="2.08" height="5.24" rx="0.98"/>
<rect fill="none" stroke-width="1.00" stroke="#ffffff" vector-effect="non-scaling-stroke" x="-1.17" y="-2.53" transform="translate(254.74,310.15) rotate(-0.4)" width="2.34" height="5.06" rx="1.10"/>
<ellipse fill="none" stroke-width="1.00" stroke="#ffffff" vector-effect="non-scaling-stroke" cx="0.00" cy="0.00" transform="translate(326.90,310.18) rotate(88.5)" rx="2.77" ry="1.12"/>
<rect fill="none" stroke-width="1.00" stroke="#ffffff" vector-effect="non-scaling-stroke" x="-1.07" y="-2.53" transform="translate(283.63,310.25) rotate(-0.9)" width="2.14" height="5.06" rx="0.96"/>
<ellipse fill="none" stroke-width="1.00" stroke="#ffffff" vector-effect="non-scaling-stroke" cx="0.00" cy="0.00" transform="translate(206.53,311.99) rotate(119.4)" rx="1.18" ry="0.85"/>
<path fill="none" stroke-width="1.00" stroke="#ffffff" vector-effect="non-scaling-stroke" d="
  M 308.13 310.97
  Q 308.54 310.75 308.86 311.08
  Q 309.31 311.55 309.22 312.19
  Q 309.16 312.68 308.67 312.75
  L 307.81 312.89
  A 0.54 0.54 0.0 0 1 307.20 312.28
  Q 307.32 311.41 308.13 310.97
  Z"
/>
</svg>
