<svg xmlns="http://www.w3.org/2000/svg" viewBox="0 0 1920 1080"><g transform="
          rotate(0 960 540) 
          translate(-0 -0)
          scale(1)
        "><rect width="1920" height="1080" fill="rgb(184, 171, 255)"></rect><g transform="translate(0, 0)"><path fill="rgb(164, 150, 241)" fill-opacity="1" d="M0,132.354L22.857,131.278C45.714,130.203,91.429,128.051,137.143,127.718C182.857,127.385,228.571,128.869,274.286,129.036C320,129.202,365.714,128.052,411.429,113.694C457.143,99.335,502.857,71.769,548.571,69.441C594.286,67.112,640,90.023,685.714,83.001C731.429,75.979,777.143,39.026,822.857,36.93C868.571,34.834,914.286,67.597,960,75.757C1005.714,83.918,1051.429,67.476,1097.143,52.258C1142.857,37.04,1188.571,23.046,1234.286,30.27C1280,37.493,1325.714,65.936,1371.429,71.064C1417.143,76.193,1462.857,58.008,1508.571,48.905C1554.286,39.803,1600,39.784,1645.714,52.978C1691.429,66.172,1737.143,92.579,1782.857,106.761C1828.571,120.944,1874.286,122.902,1897.143,123.881L1920,124.86L1920,1080L1897.143,1080C1874.286,1080,1828.571,1080,1782.857,1080C1737.143,1080,1691.429,1080,1645.714,1080C1600,1080,1554.286,1080,1508.571,1080C1462.857,1080,1417.143,1080,1371.429,1080C1325.714,1080,1280,1080,1234.286,1080C1188.571,1080,1142.857,1080,1097.143,1080C1051.429,1080,1005.714,1080,960,1080C914.286,1080,868.571,1080,822.857,1080C777.143,1080,731.429,1080,685.714,1080C640,1080,594.286,1080,548.571,1080C502.857,1080,457.143,1080,411.429,1080C365.714,1080,320,1080,274.286,1080C228.571,1080,182.857,1080,137.143,1080C91.429,1080,45.714,1080,22.857,1080L0,1080Z"></path></g><g transform="translate(0, 135)"><path fill="rgb(145, 128, 227)" fill-opacity="1" d="M0,22.093L22.857,25.106C45.714,28.119,91.429,34.144,137.143,47.352C182.857,60.56,228.571,80.95,274.286,95.374C320,109.798,365.714,118.256,411.429,112.693C457.143,107.13,502.857,87.544,548.571,67.617C594.286,47.69,640,27.421,685.714,16.262C731.429,5.102,777.143,3.053,822.857,15.405C868.571,27.756,914.286,54.509,960,62.918C1005.714,71.327,1051.429,61.393,1097.143,51.067C1142.857,40.741,1188.571,30.023,1234.286,27.096C1280,24.168,1325.714,29.03,1371.429,32.478C1417.143,35.927,1462.857,37.962,1508.571,49.896C1554.286,61.83,1600,83.663,1645.714,98.531C1691.429,113.4,1737.143,121.303,1782.857,126.044C1828.571,130.785,1874.286,132.363,1897.143,133.152L1920,133.941L1920,945L1897.143,945C1874.286,945,1828.571,945,1782.857,945C1737.143,945,1691.429,945,1645.714,945C1600,945,1554.286,945,1508.571,945C1462.857,945,1417.143,945,1371.429,945C1325.714,945,1280,945,1234.286,945C1188.571,945,1142.857,945,1097.143,945C1051.429,945,1005.714,945,960,945C914.286,945,868.571,945,822.857,945C777.143,945,731.429,945,685.714,945C640,945,594.286,945,548.571,945C502.857,945,457.143,945,411.429,945C365.714,945,320,945,274.286,945C228.571,945,182.857,945,137.143,945C91.429,945,45.714,945,22.857,945L0,945Z"></path></g><g transform="translate(0, 270)"><path fill="rgb(125, 107, 213)" fill-opacity="1" d="M0,74.431L22.857,68.567C45.714,62.703,91.429,50.975,137.143,40.739C182.857,30.503,228.571,21.758,274.286,34.677C320,47.597,365.714,82.179,411.429,102.063C457.143,121.946,502.857,127.13,548.571,129.906C594.286,132.681,640,133.049,685.714,125.355C731.429,117.662,777.143,101.907,822.857,92.069C868.571,82.231,914.286,78.309,960,70.297C1005.714,62.285,1051.429,50.181,1097.143,59.741C1142.857,69.301,1188.571,100.524,1234.286,113.545C1280,126.566,1325.714,121.384,1371.429,119.911C1417.143,118.438,1462.857,120.674,1508.571,118.08C1554.286,115.486,1600,108.064,1645.714,89.546C1691.429,71.028,1737.143,41.416,1782.857,44.962C1828.571,48.508,1874.286,85.213,1897.143,103.565L1920,121.917L1920,810L1897.143,810C1874.286,810,1828.571,810,1782.857,810C1737.143,810,1691.429,810,1645.714,810C1600,810,1554.286,810,1508.571,810C1462.857,810,1417.143,810,1371.429,810C1325.714,810,1280,810,1234.286,810C1188.571,810,1142.857,810,1097.143,810C1051.429,810,1005.714,810,960,810C914.286,810,868.571,810,822.857,810C777.143,810,731.429,810,685.714,810C640,810,594.286,810,548.571,810C502.857,810,457.143,810,411.429,810C365.714,810,320,810,274.286,810C228.571,810,182.857,810,137.143,810C91.429,810,45.714,810,22.857,810L0,810Z"></path></g><g transform="translate(0, 405)"><path fill="rgb(105, 86, 199)" fill-opacity="1" d="M0,61.839L22.857,54.823C45.714,47.807,91.429,33.776,137.143,33.487C182.857,33.197,228.571,46.65,274.286,65.397C320,84.144,365.714,108.185,411.429,109.627C457.143,111.069,502.857,89.912,548.571,77.445C594.286,64.978,640,61.2,685.714,51.161C731.429,41.123,777.143,24.823,822.857,16.479C868.571,8.136,914.286,7.75,960,15.089C1005.714,22.428,1051.429,37.492,1097.143,57.909C1142.857,78.325,1188.571,104.094,1234.286,112.832C1280,121.569,1325.714,113.276,1371.429,94.706C1417.143,76.137,1462.857,47.291,1508.571,50.84C1554.286,54.39,1600,90.334,1645.714,95.948C1691.429,101.563,1737.143,76.848,1782.857,71.056C1828.571,65.264,1874.286,78.394,1897.143,84.959L1920,91.524L1920,675L1897.143,675C1874.286,675,1828.571,675,1782.857,675C1737.143,675,1691.429,675,1645.714,675C1600,675,1554.286,675,1508.571,675C1462.857,675,1417.143,675,1371.429,675C1325.714,675,1280,675,1234.286,675C1188.571,675,1142.857,675,1097.143,675C1051.429,675,1005.714,675,960,675C914.286,675,868.571,675,822.857,675C777.143,675,731.429,675,685.714,675C640,675,594.286,675,548.571,675C502.857,675,457.143,675,411.429,675C365.714,675,320,675,274.286,675C228.571,675,182.857,675,137.143,675C91.429,675,45.714,675,22.857,675L0,675Z"></path></g><g transform="translate(0, 540)"><path fill="rgb(85, 64, 185)" fill-opacity="1" d="M0,56.987L22.857,64.096C45.714,71.204,91.429,85.421,137.143,92.336C182.857,99.252,228.571,98.866,274.286,92.233C320,85.6,365.714,72.72,411.429,69.003C457.143,65.286,502.857,70.733,548.571,73.396C594.286,76.058,640,75.936,685.714,74.612C731.429,73.287,777.143,70.759,822.857,68.541C868.571,66.323,914.286,64.415,960,55.335C1005.714,46.254,1051.429,30.002,1097.143,20.297C1142.857,10.592,1188.571,7.434,1234.286,11.943C1280,16.452,1325.714,28.628,1371.429,36.283C1417.143,43.937,1462.857,47.07,1508.571,47.78C1554.286,48.49,1600,46.777,1645.714,50.779C1691.429,54.781,1737.143,64.498,1782.857,71.499C1828.571,78.501,1874.286,82.787,1897.143,84.93L1920,87.074L1920,540L1897.143,540C1874.286,540,1828.571,540,1782.857,540C1737.143,540,1691.429,540,1645.714,540C1600,540,1554.286,540,1508.571,540C1462.857,540,1417.143,540,1371.429,540C1325.714,540,1280,540,1234.286,540C1188.571,540,1142.857,540,1097.143,540C1051.429,540,1005.714,540,960,540C914.286,540,868.571,540,822.857,540C777.143,540,731.429,540,685.714,540C640,540,594.286,540,548.571,540C502.857,540,457.143,540,411.429,540C365.714,540,320,540,274.286,540C228.571,540,182.857,540,137.143,540C91.429,540,45.714,540,22.857,540L0,540Z"></path></g><g transform="translate(0, 675)"><path fill="rgb(66, 43, 171)" fill-opacity="1" d="M0,114.478L22.857,108.351C45.714,102.224,91.429,89.969,137.143,77.297C182.857,64.625,228.571,51.536,274.286,51.862C320,52.189,365.714,65.93,411.429,63.747C457.143,61.565,502.857,43.457,548.571,48.372C594.286,53.286,640,81.222,685.714,86.705C731.429,92.189,777.143,75.22,822.857,79.001C868.571,82.781,914.286,107.311,960,117.649C1005.714,127.987,1051.429,124.134,1097.143,113.317C1142.857,102.501,1188.571,84.721,1234.286,83.63C1280,82.539,1325.714,98.138,1371.429,96.856C1417.143,95.575,1462.857,77.414,1508.571,69.946C1554.286,62.478,1600,65.704,1645.714,58.64C1691.429,51.576,1737.143,34.222,1782.857,37.045C1828.571,39.869,1874.286,62.869,1897.143,74.369L1920,85.87L1920,405L1897.143,405C1874.286,405,1828.571,405,1782.857,405C1737.143,405,1691.429,405,1645.714,405C1600,405,1554.286,405,1508.571,405C1462.857,405,1417.143,405,1371.429,405C1325.714,405,1280,405,1234.286,405C1188.571,405,1142.857,405,1097.143,405C1051.429,405,1005.714,405,960,405C914.286,405,868.571,405,822.857,405C777.143,405,731.429,405,685.714,405C640,405,594.286,405,548.571,405C502.857,405,457.143,405,411.429,405C365.714,405,320,405,274.286,405C228.571,405,182.857,405,137.143,405C91.429,405,45.714,405,22.857,405L0,405Z"></path></g><g transform="translate(0, 810)"><path fill="rgb(46, 21, 157)" fill-opacity="1" d="M0,0.18L22.857,10.081C45.714,19.982,91.429,39.785,137.143,58.096C182.857,76.408,228.571,93.228,274.286,83.554C320,73.881,365.714,37.713,411.429,35.705C457.143,33.697,502.857,65.848,548.571,70.929C594.286,76.01,640,54.022,685.714,48.294C731.429,42.566,777.143,53.099,822.857,56.228C868.571,59.358,914.286,55.084,960,63.184C1005.714,71.284,1051.429,91.759,1097.143,85.083C1142.857,78.407,1188.571,44.58,1234.286,42.495C1280,40.409,1325.714,70.065,1371.429,79.756C1417.143,89.448,1462.857,79.175,1508.571,82.877C1554.286,86.578,1600,104.253,1645.714,104.498C1691.429,104.743,1737.143,87.558,1782.857,68.227C1828.571,48.896,1874.286,27.42,1897.143,16.682L1920,5.944L1920,270L1897.143,270C1874.286,270,1828.571,270,1782.857,270C1737.143,270,1691.429,270,1645.714,270C1600,270,1554.286,270,1508.571,270C1462.857,270,1417.143,270,1371.429,270C1325.714,270,1280,270,1234.286,270C1188.571,270,1142.857,270,1097.143,270C1051.429,270,1005.714,270,960,270C914.286,270,868.571,270,822.857,270C777.143,270,731.429,270,685.714,270C640,270,594.286,270,548.571,270C502.857,270,457.143,270,411.429,270C365.714,270,320,270,274.286,270C228.571,270,182.857,270,137.143,270C91.429,270,45.714,270,22.857,270L0,270Z"></path></g><g transform="translate(0, 945)"><path fill="rgb(26, 0, 143)" fill-opacity="1" d="M0,60.316L22.857,69.959C45.714,79.602,91.429,98.888,137.143,93.431C182.857,87.974,228.571,57.774,274.286,43.187C320,28.599,365.714,29.625,411.429,41.853C457.143,54.08,502.857,77.508,548.571,92.997C594.286,108.486,640,116.035,685.714,110.262C731.429,104.489,777.143,85.394,822.857,83.976C868.571,82.557,914.286,98.816,960,98.35C1005.714,97.885,1051.429,80.695,1097.143,79.415C1142.857,78.136,1188.571,92.766,1234.286,96.27C1280,99.775,1325.714,92.154,1371.429,81.654C1417.143,71.153,1462.857,57.773,1508.571,50.056C1554.286,42.339,1600,40.286,1645.714,33.954C1691.429,27.623,1737.143,17.012,1782.857,29.905C1828.571,42.797,1874.286,79.193,1897.143,97.391L1920,115.59L1920,135L1897.143,135C1874.286,135,1828.571,135,1782.857,135C1737.143,135,1691.429,135,1645.714,135C1600,135,1554.286,135,1508.571,135C1462.857,135,1417.143,135,1371.429,135C1325.714,135,1280,135,1234.286,135C1188.571,135,1142.857,135,1097.143,135C1051.429,135,1005.714,135,960,135C914.286,135,868.571,135,822.857,135C777.143,135,731.429,135,685.714,135C640,135,594.286,135,548.571,135C502.857,135,457.143,135,411.429,135C365.714,135,320,135,274.286,135C228.571,135,182.857,135,137.143,135C91.429,135,45.714,135,22.857,135L0,135Z"></path></g></g></svg>