<?xml version="1.0" encoding="UTF-8" standalone="no"?>
<!DOCTYPE svg PUBLIC "-//W3C//DTD SVG 1.1//EN" "http://www.w3.org/Graphics/SVG/1.1/DTD/svg11.dtd">
<svg xmlns="http://www.w3.org/2000/svg" version="1.1" viewBox="0.00 0.00 470.00 531.00">
<g stroke-width="2.00" fill="none" stroke-linecap="butt">
<path stroke="#eb5f7c" vector-effect="non-scaling-stroke" d="
  M 360.21 39.68
  Q 359.97 40.58 358.99 40.76
  Q 262.26 59.21 165.50 77.55
  Q 161.75 78.26 157.96 78.79"
/>
<path stroke="#f36b85" vector-effect="non-scaling-stroke" d="
  M 157.96 78.79
  Q 157.23 78.71 156.56 78.43
  Q 139.57 71.49 122.90 63.82
  Q 116.83 61.02 110.98 58.66
  Q 102.47 55.21 99.01 53.64
  Q 84.54 47.09 70.00 40.66
  Q 69.29 40.35 69.68 38.89"
/>
<path stroke="#a05f5f" vector-effect="non-scaling-stroke" d="
  M 350.71 80.46
  Q 349.17 80.37 348.74 80.45
  Q 288.42 91.32 228.13 102.35
  C 224.54 103.00 219.68 103.60 215.51 104.47
  C 210.73 105.48 205.39 106.13 200.39 107.46"
/>
<path stroke="#a96869" vector-effect="non-scaling-stroke" d="
  M 200.39 107.46
  Q 191.60 109.75 182.42 109.66
  C 181.37 109.65 180.83 110.12 180.11 110.77
  Q 179.75 111.11 179.26 111.10
  Q 177.64 111.09 176.29 111.95"
/>
<path stroke="#c9898b" vector-effect="non-scaling-stroke" d="
  M 176.29 111.95
  L 158.40 114.94"
/>
<path stroke="#e45974" vector-effect="non-scaling-stroke" d="
  M 157.96 78.79
  Q 157.39 79.27 157.67 79.74
  C 162.66 88.07 163.35 96.71 161.61 106.88
  Q 161.13 109.71 158.40 114.94"
/>
<path stroke="#d19594" vector-effect="non-scaling-stroke" d="
  M 158.40 114.94
  Q 157.83 115.17 157.24 114.92
  Q 139.76 107.15 112.99 94.50
  Q 111.47 93.78 109.82 93.46"
/>
<path stroke="#b17472" vector-effect="non-scaling-stroke" d="
  M 109.82 93.46
  Q 109.48 92.76 109.13 92.62
  Q 102.18 89.83 95.51 86.40
  Q 95.12 86.20 94.46 86.29"
/>
<path stroke="#f2a3a4" vector-effect="non-scaling-stroke" d="
  M 71.02 70.49
  Q 71.33 71.41 73.80 72.54
  Q 113.61 90.71 153.20 109.22
  A 0.78 0.77 23.3 0 0 154.25 108.81
  Q 157.39 100.86 156.18 92.73"
/>
<path stroke="#e38c8f" vector-effect="non-scaling-stroke" d="
  M 156.18 92.73
  C 156.20 89.23 155.37 83.15 151.90 81.59
  Q 133.30 73.25 114.03 64.68
  Q 109.56 62.69 105.43 61.08
  Q 103.28 60.24 100.95 58.96
  Q 98.69 57.71 96.48 56.84
  Q 94.20 55.93 91.83 54.70
  Q 89.36 53.42 86.83 52.88
  Q 86.38 52.78 86.06 52.43
  Q 85.70 52.04 85.16 51.89
  Q 84.54 51.73 83.93 51.42
  Q 77.61 48.24 71.05 45.71"
/>
<path stroke="#96a489" vector-effect="non-scaling-stroke" d="
  M 109.82 93.46
  L 110.09 114.11
  A 0.88 0.87 -83.0 0 0 110.73 114.94
  L 218.24 144.98
  Q 218.55 145.06 218.55 144.75
  L 218.54 122.29
  Q 218.54 121.77 218.04 121.64
  Q 201.23 117.17 184.52 112.66
  Q 180.48 111.56 176.29 111.95"
/>
<path stroke="#96a489" vector-effect="non-scaling-stroke" d="
  M 240.68 121.23
  L 241.95 157.03"
/>
<path stroke="#ae8634" vector-effect="non-scaling-stroke" d="
  M 241.95 157.03
  Q 242.15 157.46 241.28 157.24
  Q 167.85 138.36 94.60 119.40"
/>
<path stroke="#768166" vector-effect="non-scaling-stroke" d="
  M 365.98 84.91
  L 205.24 108.22"
/>
<path stroke="#6d7a5d" vector-effect="non-scaling-stroke" d="
  M 205.24 108.22
  Q 202.59 108.30 200.39 107.46"
/>
<path stroke="#e9cab7" vector-effect="non-scaling-stroke" d="
  M 156.18 92.73
  Q 122.57 75.43 89.44 58.04
  Q 80.46 53.33 71.20 47.99"
/>
<path stroke="#9fab92" vector-effect="non-scaling-stroke" d="
  M 379.47 88.19
  Q 377.92 89.01 377.24 89.16
  Q 279.36 110.11 241.75 118.34
  Q 240.22 118.68 240.68 121.23"
/>
<path stroke="#7f8b70" vector-effect="non-scaling-stroke" d="
  M 240.68 121.23
  Q 240.81 119.95 240.46 119.16
  Q 240.14 118.42 239.18 118.19
  C 228.06 115.55 216.35 111.86 204.82 109.36
  A 0.42 0.41 -55.9 0 1 204.68 108.61
  L 205.24 108.22"
/>
<path stroke="#ccd7c6" vector-effect="non-scaling-stroke" d="
  M 376.43 95.76
  Q 376.42 95.15 376.13 94.89
  Q 375.90 94.69 375.33 94.81
  Q 310.21 108.30 245.29 121.52
  A 0.67 0.66 83.4 0 0 244.76 122.20
  L 245.19 133.18"
/>
<path stroke="#dbe2d5" vector-effect="non-scaling-stroke" d="
  M 245.19 133.18
  L 245.56 151.25
  A 0.47 0.46 82.8 0 0 246.12 151.69
  L 375.05 123.51"
/>
<path stroke="#dad6b9" vector-effect="non-scaling-stroke" d="
  M 364.99 131.01
  Q 364.68 130.85 364.58 130.15
  Q 364.50 129.56 363.90 129.59
  Q 362.46 129.65 361.13 129.99
  Q 358.44 130.67 361.12 131.38
  Q 363.19 131.93 365.23 132.10
  Q 365.53 132.13 365.59 131.83
  Q 365.65 131.57 365.48 131.54"
/>
<path stroke="#dabd74" vector-effect="non-scaling-stroke" d="
  M 366.95 132.34
  Q 366.98 132.46 366.90 132.59
  Q 366.85 132.66 366.77 132.65
  Q 359.54 131.23 352.57 132.86
  Q 351.93 133.01 351.47 133.52
  Q 351.06 133.98 350.45 134.00
  Q 347.71 134.07 345.14 134.41
  Q 343.28 134.65 341.47 136.08
  Q 341.08 136.39 340.59 136.37
  Q 332.78 135.99 325.14 138.85"
/>
<path stroke="#cea656" vector-effect="non-scaling-stroke" d="
  M 325.14 138.85
  Q 322.77 139.67 320.16 140.15
  Q 317.95 140.55 315.92 141.28
  Q 313.90 142.00 311.62 142.05
  C 310.17 142.09 308.86 143.10 307.40 143.33
  Q 302.69 144.09 298.18 145.04
  C 297.06 145.28 296.11 145.80 294.96 146.00
  Q 291.27 146.62 287.51 147.59
  Q 284.39 148.40 274.11 150.24
  C 272.95 150.45 271.77 151.00 270.71 151.20
  Q 262.46 152.78 254.74 154.77
  C 250.69 155.81 246.64 156.23 242.71 157.49
  Q 242.47 157.57 242.28 157.40
  Q 242.13 157.27 241.95 157.03"
/>
<path stroke="#f29f1e" vector-effect="non-scaling-stroke" d="
  M 325.14 138.85
  Q 327.91 138.74 330.32 138.41
  Q 330.38 138.40 330.39 138.46
  Q 330.41 138.51 330.38 138.55
  Q 330.34 138.61 330.27 138.62
  Q 329.24 138.81 328.23 139.02
  A 2.12 2.10 18.7 0 0 327.29 139.48
  Q 326.61 140.06 325.77 140.11
  Q 325.24 140.14 324.77 140.39
  Q 322.02 141.89 320.10 142.48
  Q 317.50 143.27 314.89 144.25
  Q 312.27 145.23 309.54 145.99
  Q 306.01 146.96 302.44 148.44
  Q 298.75 149.97 295.47 151.12
  Q 277.31 157.48 258.25 164.45"
/>
<path stroke="#ed9712" vector-effect="non-scaling-stroke" d="
  M 258.25 164.45
  L 82.13 126.81
  Q 81.66 126.71 81.38 126.31
  L 80.36 124.88"
/>
<path stroke="#fdc56d" vector-effect="non-scaling-stroke" d="
  M 368.64 133.02
  Q 369.77 133.77 369.86 134.52
  A 0.68 0.68 0.0 0 1 369.49 135.20
  Q 367.30 136.28 364.83 136.92
  Q 362.88 137.43 361.05 138.46
  Q 359.26 139.48 357.08 140.07
  Q 355.01 140.64 352.97 141.44
  Q 336.03 148.11 318.98 154.49
  Q 318.03 154.84 317.04 155.09
  C 315.24 155.55 313.71 156.53 311.97 157.20
  Q 296.98 162.96 282.01 168.74
  Q 280.87 169.18 280.38 170.04"
/>
<path stroke="#f1f4f0" vector-effect="non-scaling-stroke" d="
  M 376.72 96.79
  L 245.19 133.18"
/>
<path stroke="#f9ae30" vector-effect="non-scaling-stroke" d="
  M 258.25 164.45
  L 279.61 169.22
  Q 280.01 169.31 280.20 169.68
  Q 280.29 169.84 280.38 170.04"
/>
<path stroke="#f8bd61" vector-effect="non-scaling-stroke" d="
  M 280.38 170.04
  Q 279.34 190.04 278.12 210.04
  Q 278.12 210.15 277.83 212.45
  Q 277.62 214.15 278.11 215.25"
/>
<path stroke="#889b6c" vector-effect="non-scaling-stroke" d="
  M 278.11 215.25
  L 260.52 211.26"
/>
<path stroke="#8a8752" vector-effect="non-scaling-stroke" d="
  M 260.52 211.26
  L 228.00 203.81"
/>
<path stroke="#7d9262" vector-effect="non-scaling-stroke" d="
  M 228.00 203.81
  L 167.76 190.01"
/>
<path stroke="#889b6c" vector-effect="non-scaling-stroke" d="
  M 167.76 190.01
  L 139.26 183.88"
/>
<path stroke="#7d9262" vector-effect="non-scaling-stroke" d="
  M 139.26 183.88
  L 110.52 177.10"
/>
<path stroke="#e7ac63" vector-effect="non-scaling-stroke" d="
  M 110.52 177.10
  Q 110.26 176.16 107.83 176.30"
/>
<path stroke="#efd0b3" vector-effect="non-scaling-stroke" d="
  M 367.77 140.97
  L 367.47 140.78
  Q 367.19 140.60 366.88 140.72
  Q 362.06 142.57 356.95 144.89
  Q 356.05 145.30 355.17 145.79
  Q 354.06 146.39 352.99 146.45
  Q 352.60 146.47 352.38 146.81
  A 0.81 0.80 -77.8 0 1 351.86 147.15
  Q 348.07 147.86 344.98 149.49
  Q 343.95 150.04 342.82 150.26
  Q 341.47 150.51 340.33 151.22
  Q 338.47 152.37 336.50 152.98
  Q 331.23 154.60 325.75 156.46
  Q 324.18 157.00 322.62 157.85
  Q 321.24 158.59 319.77 159.15
  Q 302.48 165.65 285.20 172.30
  Q 284.74 172.48 284.52 172.92
  Q 282.93 176.04 284.15 179.03"
/>
<path stroke="#fdeace" vector-effect="non-scaling-stroke" d="
  M 284.15 179.03
  Q 283.85 189.01 283.79 199.07
  Q 283.78 201.40 283.26 203.82
  Q 282.75 206.18 282.64 208.69
  A 0.50 0.50 0.0 0 0 283.33 209.17
  Q 324.68 192.06 366.05 175.37
  Q 366.49 175.19 366.97 175.08
  Q 368.38 174.76 367.31 173.97"
/>
<path stroke="#8e9e8e" vector-effect="non-scaling-stroke" d="
  M 367.31 173.97
  Q 368.35 173.91 368.82 174.23
  Q 369.23 174.50 369.11 174.97
  L 368.38 177.97
  Q 368.25 178.47 367.78 178.67
  L 353.51 184.47"
/>
<path stroke="#8cb3a9" vector-effect="non-scaling-stroke" d="
  M 353.51 184.47
  L 278.11 215.25"
/>
<path stroke="#8f8f5e" vector-effect="non-scaling-stroke" d="
  M 260.72 241.50
  L 228.94 247.41"
/>
<path stroke="#8da478" vector-effect="non-scaling-stroke" d="
  M 352.18 224.59
  L 260.72 241.50"
/>
<path stroke="#1e7d9a" vector-effect="non-scaling-stroke" d="
  M 260.72 241.50
  Q 259.83 226.40 260.52 211.26"
/>
<path stroke="#1188aa" vector-effect="non-scaling-stroke" d="
  M 139.26 183.88
  Q 143.56 187.21 147.99 189.24
  Q 172.51 200.46 195.97 210.98
  A 0.87 0.85 -77.5 0 1 196.48 211.80
  L 195.19 250.12
  Q 195.18 250.54 195.32 250.94
  L 196.24 253.55"
/>
<path stroke="#829b6e" vector-effect="non-scaling-stroke" d="
  M 196.24 253.55
  Q 189.37 251.58 182.10 247.56"
/>
<path stroke="#768450" vector-effect="non-scaling-stroke" d="
  M 182.10 247.56
  L 141.62 227.76
  Q 141.35 227.62 141.05 227.64
  Q 140.86 227.65 140.76 227.60
  Q 130.19 222.38 119.72 217.67"
/>
<path stroke="#7fb0b6" vector-effect="non-scaling-stroke" d="
  M 104.80 206.10
  L 190.39 247.23
  A 0.43 0.43 0.0 0 0 191.00 246.86
  L 191.57 226.47"
/>
<path stroke="#13748f" vector-effect="non-scaling-stroke" d="
  M 228.00 203.81
  Q 228.26 204.78 228.15 205.54"
/>
<path stroke="#7099a1" vector-effect="non-scaling-stroke" d="
  M 110.52 177.10
  L 191.08 214.09
  A 1.31 1.31 0.0 0 1 191.85 215.33
  L 191.57 226.47"
/>
<path stroke="#e9cab7" vector-effect="non-scaling-stroke" d="
  M 191.57 226.47
  L 107.04 187.48"
/>
<path stroke="#1188aa" vector-effect="non-scaling-stroke" d="
  M 167.76 190.01
  Q 169.58 190.36 170.36 191.46
  Q 170.68 191.91 171.21 192.06
  L 175.52 193.36
  Q 175.89 193.47 176.13 193.76
  Q 176.27 193.93 176.49 194.01
  Q 182.75 196.33 189.04 198.36
  Q 200.72 202.13 214.07 206.79
  C 215.15 207.16 217.19 207.45 218.14 207.17
  Q 223.22 205.67 228.15 205.54"
/>
<path stroke="#1e7d9a" vector-effect="non-scaling-stroke" d="
  M 228.15 205.54
  Q 229.09 206.96 229.09 208.25
  Q 229.12 227.77 228.94 247.41"
/>
<path stroke="#8da478" vector-effect="non-scaling-stroke" d="
  M 228.94 247.41
  L 196.24 253.55"
/>
<path stroke="#f1e5e4" vector-effect="non-scaling-stroke" d="
  M 366.51 143.30
  Q 327.71 161.18 288.08 177.39
  Q 286.45 178.06 284.15 179.03"
/>
<path stroke="#8ec8da" vector-effect="non-scaling-stroke" d="
  M 377.35 153.18
  L 368.23 149.57
  Q 367.74 149.37 367.72 149.90
  L 367.23 166.32"
/>
<path stroke="#90b4bf" vector-effect="non-scaling-stroke" d="
  M 367.23 166.32
  L 367.31 173.97"
/>
<path stroke="#8f8f5e" vector-effect="non-scaling-stroke" d="
  M 380.39 219.38
  L 352.18 224.59"
/>
<path stroke="#1e7d9a" vector-effect="non-scaling-stroke" d="
  M 352.18 224.59
  Q 353.73 223.54 353.71 222.00
  Q 353.52 203.36 353.51 184.47"
/>
<path stroke="#f29f1e" vector-effect="non-scaling-stroke" d="
  M 387.74 222.61
  L 180.85 262.31"
/>
<path stroke="#fdc56d" vector-effect="non-scaling-stroke" d="
  M 180.85 262.31
  L 95.35 223.78
  Q 94.91 223.58 94.91 223.11
  Q 94.90 222.68 94.61 222.37"
/>
<path stroke="#f29f1e" vector-effect="non-scaling-stroke" d="
  M 182.10 247.56
  Q 179.39 246.69 176.70 245.91
  Q 173.76 245.05 171.36 244.13
  Q 149.22 235.60 127.37 226.40
  Q 119.09 222.91 110.07 219.75"
/>
<path stroke="#1e7d9a" vector-effect="non-scaling-stroke" d="
  M 388.01 217.79
  L 387.86 175.67
  A 1.85 1.84 10.7 0 0 386.68 173.95
  L 367.23 166.32"
/>
<path stroke="#f1ae4f" vector-effect="non-scaling-stroke" d="
  M 180.85 262.31
  Q 187.21 272.57 183.42 282.96
  Q 182.30 286.04 179.67 289.46"
/>
<path stroke="#7e9086" vector-effect="non-scaling-stroke" d="
  M 179.67 289.46
  L 106.17 254.63
  Q 106.02 254.56 105.84 254.56
  Q 105.67 254.57 105.56 254.55"
/>
<path stroke="#fde1bb" vector-effect="non-scaling-stroke" d="
  M 94.36 244.88
  Q 107.52 250.88 120.26 257.11
  C 137.99 265.78 155.83 274.23 173.58 282.87
  Q 177.34 284.70 178.36 280.63
  Q 179.92 274.43 177.80 269.04"
/>
<path stroke="#ebc4a0" vector-effect="non-scaling-stroke" d="
  M 177.80 269.04
  Q 177.91 266.09 173.61 264.17
  Q 163.83 259.80 154.16 255.18
  C 153.15 254.70 151.82 253.82 150.54 253.35
  Q 149.09 252.81 147.75 252.21
  Q 143.80 250.43 139.68 248.40
  Q 139.19 248.16 138.66 248.10
  Q 138.31 248.05 137.98 247.90
  Q 120.87 240.01 105.22 232.71
  Q 102.59 231.48 99.86 230.13
  Q 99.19 229.79 96.93 229.77"
/>
<path stroke="#837840" vector-effect="non-scaling-stroke" d="
  M 395.28 236.58
  L 393.33 246.13"
/>
<path stroke="#c3a369" vector-effect="non-scaling-stroke" d="
  M 393.33 246.13
  Q 391.84 247.64 390.00 249.47
  Q 388.59 250.89 383.27 251.70"
/>
<path stroke="#837840" vector-effect="non-scaling-stroke" d="
  M 383.27 251.70
  Q 379.47 251.29 377.75 252.13
  Q 375.03 253.46 373.76 253.64
  Q 366.43 254.72 359.21 256.38"
/>
<path stroke="#736a37" vector-effect="non-scaling-stroke" d="
  M 359.21 256.38
  L 179.67 289.46"
/>
<path stroke="#edd0be" vector-effect="non-scaling-stroke" d="
  M 177.80 269.04
  Q 166.80 264.56 156.33 260.18
  Q 153.26 258.89 150.01 257.35
  C 144.81 254.87 139.17 252.75 134.15 250.48
  Q 115.58 242.05 97.03 233.62"
/>
<path stroke="#7c969d" vector-effect="non-scaling-stroke" d="
  M 317.29 322.35
  L 311.46 321.23"
/>
<path stroke="#678a96" vector-effect="non-scaling-stroke" d="
  M 311.46 321.23
  L 304.06 319.96"
/>
<path stroke="#5c92a6" vector-effect="non-scaling-stroke" d="
  M 304.06 319.96
  L 287.64 316.86"
/>
<path stroke="#00687e" vector-effect="non-scaling-stroke" d="
  M 287.64 316.86
  L 112.90 285.06
  A 1.32 1.31 -3.7 0 1 111.88 284.17
  L 109.63 277.31
  Q 109.53 276.99 109.26 276.79
  Q 108.94 276.57 109.11 276.87"
/>
<path stroke="#6093a8" vector-effect="non-scaling-stroke" d="
  M 408.50 239.26
  L 393.33 246.13"
/>
<path stroke="#105a77" vector-effect="non-scaling-stroke" d="
  M 318.54 279.47
  Q 318.52 279.18 318.15 278.84
  Q 317.87 278.57 317.48 278.51
  Q 307.32 276.81 298.20 274.94
  Q 294.61 274.20 298.18 273.36
  Q 326.21 266.80 353.87 258.54
  Q 354.41 258.38 356.68 258.16
  Q 358.61 257.97 359.21 256.38"
/>
<path stroke="#c1c5cd" vector-effect="non-scaling-stroke" d="
  M 404.96 245.91
  Q 400.75 246.94 395.78 249.53
  Q 393.26 250.84 386.76 253.76
  Q 356.08 267.50 325.33 281.10
  C 323.72 281.82 322.21 282.93 321.63 284.44
  Q 319.04 291.17 319.98 299.32"
/>
<path stroke="#cfdfe8" vector-effect="non-scaling-stroke" d="
  M 319.98 299.32
  Q 320.40 307.59 322.25 315.75
  A 0.63 0.63 0.0 0 0 323.13 316.18
  L 405.46 277.56"
/>
<path stroke="#cfdfe8" vector-effect="non-scaling-stroke" d="
  M 404.67 282.78
  Q 404.49 282.85 404.26 282.84
  Q 403.93 282.81 403.63 282.95
  L 356.65 304.86"
/>
<path stroke="#ccd0cf" vector-effect="non-scaling-stroke" d="
  M 356.65 304.86
  L 319.12 322.32
  Q 318.69 322.52 318.21 322.46
  L 317.29 322.35"
/>
<path stroke="#5085a0" vector-effect="non-scaling-stroke" d="
  M 317.29 322.35
  Q 317.50 322.39 317.71 322.25
  Q 318.03 322.04 317.91 321.68
  C 313.97 309.47 310.83 290.92 318.54 279.47"
/>
<path stroke="#6093a8" vector-effect="non-scaling-stroke" d="
  M 318.54 279.47
  Q 319.31 278.81 320.18 278.43
  Q 347.58 266.29 375.03 254.25
  C 376.64 253.55 378.33 253.14 379.99 252.77
  Q 380.47 252.67 380.75 252.28
  Q 381.44 251.35 383.27 251.70"
/>
<path stroke="#5cafb6" vector-effect="non-scaling-stroke" d="
  M 287.64 316.86
  L 279.76 319.80"
/>
<path stroke="#15929b" vector-effect="non-scaling-stroke" d="
  M 279.76 319.80
  L 79.91 290.65"
/>
<path stroke="#d8ddd5" vector-effect="non-scaling-stroke" d="
  M 358.21 311.28
  Q 355.82 312.88 353.23 314.16
  Q 350.64 315.44 348.12 316.80
  Q 339.31 321.57 330.42 326.36
  Q 319.58 332.20 307.89 338.45
  Q 307.17 338.84 306.28 339.10
  C 304.82 339.53 303.73 340.74 302.38 341.39
  Q 290.63 347.10 279.16 354.10
  A 0.85 0.84 -17.0 0 1 277.87 353.42
  L 277.38 342.62"
/>
<path stroke="#e3d5c5" vector-effect="non-scaling-stroke" d="
  M 277.38 342.62
  L 311.46 321.23"
/>
<path stroke="#bf8b85" vector-effect="non-scaling-stroke" d="
  M 359.86 314.76
  L 339.60 325.88"
/>
<path stroke="#dbbfbb" vector-effect="non-scaling-stroke" d="
  M 339.60 325.88
  L 331.14 330.23"
/>
<path stroke="#d79289" vector-effect="non-scaling-stroke" d="
  M 331.14 330.23
  L 327.63 332.26"
/>
<path stroke="#dbbfbb" vector-effect="non-scaling-stroke" d="
  M 327.63 332.26
  L 320.50 335.97"
/>
<path stroke="#d79289" vector-effect="non-scaling-stroke" d="
  M 320.50 335.97
  L 274.40 360.71"
/>
<path stroke="#c3d1ce" vector-effect="non-scaling-stroke" d="
  M 304.06 319.96
  Q 296.99 320.41 290.00 320.37
  Q 288.38 320.36 287.22 321.14
  Q 284.83 322.76 282.02 323.67
  Q 277.28 325.19 277.27 330.64
  Q 277.26 336.51 277.38 342.62"
/>
<path stroke="#f1e5e4" vector-effect="non-scaling-stroke" d="
  M 405.42 247.52
  L 319.98 299.32"
/>
<path stroke="#fcf0e6" vector-effect="non-scaling-stroke" d="
  M 358.12 307.57
  Q 357.23 306.73 356.65 304.86"
/>
<path stroke="#71bcc3" vector-effect="non-scaling-stroke" d="
  M 279.76 319.80
  L 271.82 324.39"
/>
<path stroke="#15929b" vector-effect="non-scaling-stroke" d="
  M 271.82 324.39
  Q 272.13 323.45 271.49 323.37
  Q 171.98 310.46 72.46 297.59
  Q 69.02 297.14 67.73 296.01"
/>
<path stroke="#ff8e7f" vector-effect="non-scaling-stroke" d="
  M 347.06 340.45
  Q 347.56 340.87 347.59 340.92
  Q 347.92 341.66 347.12 341.87
  C 343.90 342.72 339.14 343.68 336.25 342.40
  Q 330.11 339.67 323.86 337.25"
/>
<path stroke="#fb7867" vector-effect="non-scaling-stroke" d="
  M 323.86 337.25
  Q 322.52 336.19 320.50 335.97"
/>
<path stroke="#ff8e7f" vector-effect="non-scaling-stroke" d="
  M 367.22 337.97
  L 355.24 340.37"
/>
<path stroke="#fb7867" vector-effect="non-scaling-stroke" d="
  M 355.24 340.37
  Q 353.35 340.14 350.93 339.08
  Q 340.99 334.72 331.14 330.23"
/>
<path stroke="#fb614d" vector-effect="non-scaling-stroke" d="
  M 355.24 340.37
  Q 357.50 340.06 357.33 345.76
  Q 356.95 358.88 357.03 372.00
  Q 357.06 377.72 356.86 383.58"
/>
<path stroke="#bf647b" vector-effect="non-scaling-stroke" d="
  M 356.86 383.58
  L 351.86 384.45"
/>
<path stroke="#fb614d" vector-effect="non-scaling-stroke" d="
  M 351.86 384.45
  L 351.75 341.76
  Q 351.75 341.22 351.22 341.14
  L 347.06 340.45"
/>
<path stroke="#fb7867" vector-effect="non-scaling-stroke" d="
  M 347.06 340.45
  L 327.63 332.26"
/>
<path stroke="#df4431" vector-effect="non-scaling-stroke" d="
  M 366.92 317.46
  Q 354.83 323.79 343.30 327.69"
/>
<path stroke="#e37162" vector-effect="non-scaling-stroke" d="
  M 343.30 327.69
  L 339.60 325.88"
/>
<path stroke="#5cafb6" vector-effect="non-scaling-stroke" d="
  M 271.82 324.39
  C 267.31 331.04 266.81 341.21 268.11 349.03
  Q 269.14 355.17 274.40 360.71"
/>
<path stroke="#7c6862" vector-effect="non-scaling-stroke" d="
  M 274.40 360.71
  L 259.79 358.88"
/>
<path stroke="#64615d" vector-effect="non-scaling-stroke" d="
  M 259.79 358.88
  Q 255.71 358.23 251.61 357.74
  Q 251.25 357.70 243.44 356.50
  Q 238.76 355.78 233.82 355.90"
/>
<path stroke="#7f9593" vector-effect="non-scaling-stroke" d="
  M 233.82 355.90
  Q 231.66 355.07 229.75 354.86
  Q 219.14 353.72 207.51 352.14"
/>
<path stroke="#64615d" vector-effect="non-scaling-stroke" d="
  M 207.51 352.14
  Q 205.91 351.35 203.69 351.17
  Q 201.54 350.99 199.88 350.58
  Q 196.10 349.64 192.54 350.03"
/>
<path stroke="#7f9593" vector-effect="non-scaling-stroke" d="
  M 192.54 350.03
  L 175.63 348.15"
/>
<path stroke="#64615d" vector-effect="non-scaling-stroke" d="
  M 175.63 348.15
  Q 173.93 347.46 170.55 346.87
  Q 166.74 346.21 162.03 346.18
  Q 159.45 346.16 156.80 345.55
  Q 154.27 344.98 151.81 344.75
  Q 138.17 343.52 125.98 341.71
  Q 125.00 341.56 123.98 341.61
  A 0.04 0.04 0.0 0 0 123.97 341.68
  Q 124.27 341.78 124.51 341.59
  Q 124.92 341.25 124.39 341.17
  C 117.76 340.25 110.92 339.75 104.41 338.80
  Q 99.76 338.12 94.78 337.23
  Q 94.26 337.14 93.74 336.99
  Q 93.27 336.87 92.82 337.06
  Q 91.98 337.42 90.94 337.12"
/>
<path stroke="#fb614d" vector-effect="non-scaling-stroke" d="
  M 323.86 337.25
  Q 323.82 338.09 323.00 338.15
  Q 322.52 338.18 322.08 338.41
  C 321.08 338.93 320.18 339.62 319.19 340.06
  Q 307.97 345.04 297.20 350.25
  A 1.48 1.40 29.4 0 1 296.60 350.40
  Q 295.74 350.43 295.44 351.08
  Q 295.11 351.80 295.89 351.65
  Q 298.41 351.17 300.77 350.70
  Q 311.54 348.58 322.14 346.69
  Q 325.03 346.17 328.35 345.75
  Q 331.64 345.33 334.93 344.19
  Q 336.25 343.74 337.46 343.92
  A 1.94 1.93 4.8 0 1 339.10 345.85
  Q 338.93 365.20 339.00 384.59
  Q 339.01 385.34 338.67 385.82
  Q 338.28 386.39 337.72 386.80"
/>
<path stroke="#a6465b" vector-effect="non-scaling-stroke" d="
  M 337.72 386.80
  Q 336.34 387.40 334.75 387.64
  Q 332.35 388.00 332.26 388.02
  Q 319.82 390.53 307.09 392.99
  Q 306.01 393.20 304.92 393.61
  Q 303.87 394.00 302.66 393.95
  Q 301.11 393.88 299.36 394.20
  Q 283.29 397.10 265.84 400.44"
/>
<path stroke="#b75766" vector-effect="non-scaling-stroke" d="
  M 265.84 400.44
  L 245.91 404.16"
/>
<path stroke="#fb614d" vector-effect="non-scaling-stroke" d="
  M 245.91 404.16
  L 245.87 360.56
  Q 245.87 360.22 245.53 360.24
  Q 245.42 360.25 245.27 360.30"
/>
<path stroke="#fb7867" vector-effect="non-scaling-stroke" d="
  M 245.27 360.30
  Q 244.98 360.15 244.75 360.18"
/>
<path stroke="#df4431" vector-effect="non-scaling-stroke" d="
  M 244.75 360.18
  Q 246.87 359.50 249.08 359.44
  Q 252.46 359.36 253.41 359.25
  Q 256.57 358.89 259.79 358.88"
/>
<path stroke="#c37a93" vector-effect="non-scaling-stroke" d="
  M 351.86 384.45
  L 338.84 386.89"
/>
<path stroke="#aa5b73" vector-effect="non-scaling-stroke" d="
  M 338.84 386.89
  Q 338.23 386.73 337.72 386.80"
/>
<path stroke="#c37a93" vector-effect="non-scaling-stroke" d="
  M 366.70 381.67
  L 356.86 383.58"
/>
<path stroke="#bf647b" vector-effect="non-scaling-stroke" d="
  M 402.33 364.51
  Q 402.36 367.12 402.40 369.69
  Q 402.41 370.78 402.12 371.75
  Q 401.84 372.72 401.62 373.70
  Q 401.50 374.27 401.01 374.58
  C 399.61 375.45 398.24 374.96 396.68 375.36
  Q 394.18 376.00 391.60 376.30
  C 390.09 376.47 389.19 377.56 387.59 377.70
  Q 384.09 377.99 381.10 378.77
  Q 377.96 379.59 374.82 380.06
  Q 371.26 380.60 367.73 381.74
  Q 367.19 381.91 366.70 381.67"
/>
<path stroke="#fb614d" vector-effect="non-scaling-stroke" d="
  M 366.70 381.67
  Q 367.39 381.44 367.38 381.00
  Q 367.18 359.21 367.22 337.97"
/>
<path stroke="#fb7867" vector-effect="non-scaling-stroke" d="
  M 367.22 337.97
  L 343.30 327.69"
/>
<path stroke="#7d72be" vector-effect="non-scaling-stroke" d="
  M 419.55 367.58
  Q 417.40 368.92 415.49 370.02
  C 411.87 372.12 407.74 373.49 404.01 375.37
  C 403.02 375.86 402.13 375.81 401.04 376.34
  Q 396.49 378.55 391.29 380.94
  Q 347.49 401.10 303.61 421.09
  Q 301.92 421.87 300.23 421.85"
/>
<path stroke="#7368b4" vector-effect="non-scaling-stroke" d="
  M 300.23 421.85
  L 273.24 416.59
  A 0.96 0.96 0.0 0 0 272.12 417.38
  Q 266.65 452.22 271.60 489.02
  A 1.06 1.06 0.0 0 1 270.09 490.12
  Q 268.29 489.25 266.39 489.18
  Q 264.64 489.12 264.41 487.38
  Q 259.69 451.66 265.32 415.95
  Q 265.46 415.08 264.59 414.89
  L 254.96 412.86"
/>
<path stroke="#7f70ac" vector-effect="non-scaling-stroke" d="
  M 254.96 412.86
  L 287.46 405.11"
/>
<path stroke="#7368b4" vector-effect="non-scaling-stroke" d="
  M 287.46 405.11
  Q 291.14 406.19 294.51 406.76
  C 296.68 407.13 298.48 406.59 300.37 405.68
  Q 308.89 401.59 317.57 397.26"
/>
<path stroke="#6e5fa0" vector-effect="non-scaling-stroke" d="
  M 317.57 397.26
  Q 327.64 393.64 333.13 390.40
  Q 335.33 389.09 336.79 388.76
  Q 337.73 388.55 338.16 388.30
  Q 340.40 387.01 338.84 386.89"
/>
<path stroke="#e37162" vector-effect="non-scaling-stroke" d="
  M 233.82 355.90
  Q 238.41 358.34 242.89 359.84
  Q 243.71 360.12 244.75 360.18"
/>
<path stroke="#ff8e7f" vector-effect="non-scaling-stroke" d="
  M 245.27 360.30
  L 245.34 361.05
  Q 245.38 361.59 244.84 361.67
  L 232.13 363.51"
/>
<path stroke="#fb7867" vector-effect="non-scaling-stroke" d="
  M 232.13 363.51
  L 221.09 358.49"
/>
<path stroke="#e37162" vector-effect="non-scaling-stroke" d="
  M 192.54 350.03
  Q 203.57 353.83 214.46 359.17"
/>
<path stroke="#fb7867" vector-effect="non-scaling-stroke" d="
  M 214.46 359.17
  L 227.43 364.67"
/>
<path stroke="#ff8e7f" vector-effect="non-scaling-stroke" d="
  M 227.43 364.67
  Q 223.58 365.56 220.17 366.11
  Q 218.59 366.37 216.85 365.98
  Q 215.31 365.63 213.56 365.30"
/>
<path stroke="#fb7867" vector-effect="non-scaling-stroke" d="
  M 213.56 365.30
  L 197.07 357.89"
/>
<path stroke="#e37162" vector-effect="non-scaling-stroke" d="
  M 175.63 348.15
  L 197.07 357.89"
/>
<path stroke="#df4431" vector-effect="non-scaling-stroke" d="
  M 197.07 357.89
  Q 197.00 358.06 196.95 358.18
  Q 196.82 358.47 196.49 358.46
  L 146.49 356.98
  A 0.32 0.32 0.0 0 0 146.19 357.44
  Q 146.38 357.83 146.98 358.09
  Q 165.21 366.07 180.88 373.29
  Q 181.89 373.76 181.84 374.87
  Q 181.26 388.42 180.98 402.38
  Q 180.97 402.48 180.44 408.84
  Q 180.14 412.29 180.72 416.15"
/>
<path stroke="#94476a" vector-effect="non-scaling-stroke" d="
  M 180.72 416.15
  L 174.39 413.45"
/>
<path stroke="#9f4f62" vector-effect="non-scaling-stroke" d="
  M 174.39 413.45
  L 112.52 383.59
  Q 112.09 383.38 111.74 383.04
  Q 111.20 382.50 110.56 382.22
  C 108.74 381.42 107.32 380.58 105.63 379.79
  Q 104.17 379.11 102.79 378.21
  Q 101.54 377.39 99.80 376.79
  Q 97.65 376.03 95.51 374.75
  Q 94.28 374.02 92.85 373.63
  Q 91.28 373.20 90.07 372.72"
/>
<path stroke="#e08f7c" vector-effect="non-scaling-stroke" d="
  M 91.84 368.61
  Q 91.29 369.10 92.50 369.69
  Q 134.15 389.68 175.84 409.74
  Q 176.46 410.03 176.48 409.35
  L 176.84 396.26"
/>
<path stroke="#d17867" vector-effect="non-scaling-stroke" d="
  M 176.84 396.26
  L 177.34 377.34
  A 0.53 0.53 0.0 0 0 177.03 376.86
  L 92.62 338.48"
/>
<path stroke="#e37162" vector-effect="non-scaling-stroke" d="
  M 207.51 352.14
  L 221.09 358.49"
/>
<path stroke="#df4431" vector-effect="non-scaling-stroke" d="
  M 221.09 358.49
  L 214.46 359.17"
/>
<path stroke="#bb6c7e" vector-effect="non-scaling-stroke" d="
  M 245.91 404.16
  L 233.39 406.36"
/>
<path stroke="#5b4994" vector-effect="non-scaling-stroke" d="
  M 317.57 397.26
  Q 309.18 398.32 306.50 399.31
  Q 294.78 403.65 283.34 404.68"
/>
<path stroke="#66518c" vector-effect="non-scaling-stroke" d="
  M 283.34 404.68
  Q 274.09 403.42 265.84 400.44"
/>
<path stroke="#6c5a9f" vector-effect="non-scaling-stroke" d="
  M 287.46 405.11
  Q 285.04 405.41 283.34 404.68"
/>
<path stroke="#6c5a9f" vector-effect="non-scaling-stroke" d="
  M 230.48 407.47
  Q 231.83 407.45 232.14 408.02
  Q 232.32 408.34 232.66 408.49
  Q 234.85 409.38 235.49 409.50
  Q 245.34 411.23 254.96 412.86"
/>
<path stroke="#aa9ec8" vector-effect="non-scaling-stroke" d="
  M 300.77 497.59
  Q 300.74 497.44 300.69 497.34
  Q 300.61 497.13 300.38 497.08
  L 104.08 460.81"
/>
<path stroke="#a78daf" vector-effect="non-scaling-stroke" d="
  M 416.90 374.50
  Q 362.02 399.74 307.05 425.12
  Q 305.86 425.67 305.34 427.52
  Q 303.91 432.53 303.60 435.43"
/>
<path stroke="#baaaca" vector-effect="non-scaling-stroke" d="
  M 303.60 435.43
  Q 301.22 451.24 302.55 468.52
  Q 303.42 479.87 306.73 490.76
  A 0.47 0.47 0.0 0 0 307.38 491.05
  L 419.74 437.38"
/>
<path stroke="#6a5db1" vector-effect="non-scaling-stroke" d="
  M 303.08 497.18
  Q 301.10 492.46 300.15 488.87
  C 294.51 467.52 295.36 444.86 301.08 423.68
  Q 301.57 421.88 300.23 421.85"
/>
<path stroke="#fb614d" vector-effect="non-scaling-stroke" d="
  M 232.13 363.51
  Q 232.36 363.80 232.78 364.06
  Q 233.21 364.33 233.21 364.82
  Q 233.28 384.18 233.26 403.54
  Q 233.26 404.08 233.05 404.94
  Q 232.75 406.21 233.39 406.36"
/>
<path stroke="#b75766" vector-effect="non-scaling-stroke" d="
  M 233.39 406.36
  L 230.48 407.47"
/>
<path stroke="#ac4f6e" vector-effect="non-scaling-stroke" d="
  M 230.48 407.47
  L 227.54 407.55"
/>
<path stroke="#fb614d" vector-effect="non-scaling-stroke" d="
  M 227.54 407.55
  L 227.43 364.67"
/>
<path stroke="#b06486" vector-effect="non-scaling-stroke" d="
  M 227.54 407.55
  L 216.59 409.44"
/>
<path stroke="#fb614d" vector-effect="non-scaling-stroke" d="
  M 213.56 365.30
  Q 216.27 366.59 216.98 368.26
  Q 217.14 368.64 217.15 372.28
  Q 217.17 385.71 217.20 399.13
  Q 217.21 404.36 216.59 409.44"
/>
<path stroke="#ac4f6e" vector-effect="non-scaling-stroke" d="
  M 216.59 409.44
  L 180.72 416.15"
/>
<path stroke="#6c5a9f" vector-effect="non-scaling-stroke" d="
  M 174.39 413.45
  Q 170.70 413.19 167.91 411.43
  Q 164.41 409.23 163.75 408.91
  Q 161.53 407.85 159.39 406.65
  Q 158.46 406.13 157.25 405.78
  Q 156.20 405.47 155.22 404.97
  Q 149.42 401.98 142.66 398.70
  C 141.50 398.14 140.39 398.49 139.18 397.72
  Q 133.61 394.14 127.98 391.74
  Q 127.85 391.69 127.74 391.78
  Q 127.59 391.92 127.40 391.84
  Q 121.09 389.21 114.89 386.37
  Q 112.90 385.46 105.51 384.71"
/>
<path stroke="#7f70ac" vector-effect="non-scaling-stroke" d="
  M 105.51 384.71
  Q 100.85 383.06 98.40 384.16"
/>
<path stroke="#6c5a9f" vector-effect="non-scaling-stroke" d="
  M 98.40 384.16
  Q 98.40 383.07 97.37 382.88
  Q 87.62 381.05 76.01 378.75"
/>
<path stroke="#e9cab7" vector-effect="non-scaling-stroke" d="
  M 176.84 396.26
  L 176.86 389.90
  Q 176.86 389.38 176.38 389.16
  L 92.81 350.15"
/>
<path stroke="#7368b4" vector-effect="non-scaling-stroke" d="
  M 105.51 384.71
  C 99.88 407.59 99.86 431.58 103.29 454.73
  Q 103.39 455.45 103.44 457.78
  Q 103.47 459.49 104.08 460.81"
/>
<path stroke="#bdb4d5" vector-effect="non-scaling-stroke" d="
  M 104.08 460.81
  L 96.20 459.38"
/>
<path stroke="#edd0be" vector-effect="non-scaling-stroke" d="
  M 416.91 383.38
  Q 383.84 399.34 350.54 414.84
  Q 327.70 425.48 303.60 435.43"
/>
<path stroke="#7368b4" vector-effect="non-scaling-stroke" d="
  M 98.40 384.16
  C 92.43 406.14 93.33 429.78 95.85 452.42
  Q 96.25 456.00 97.70 458.42
  Q 97.96 458.85 97.57 459.16
  Q 97.13 459.52 96.20 459.38"
/>
<path stroke="#aa9ec8" vector-effect="non-scaling-stroke" d="
  M 96.20 459.38
  Q 86.79 457.59 77.32 455.92
  C 75.97 455.68 75.27 455.14 74.80 453.92
  Q 73.75 451.19 72.91 448.82"
/>
<path stroke="#fd7c97" vector-effect="non-scaling-stroke" d="
  M 284.1316 32.5877
  A 71.75 15.05 -5.4 0 0 211.2837 24.3568
  A 71.75 15.05 -5.4 0 0 141.2684 46.0923
  A 71.75 15.05 -5.4 0 0 214.1163 54.3232
  A 71.75 15.05 -5.4 0 0 284.1316 32.5877"
/>
<path stroke="#e45974" vector-effect="non-scaling-stroke" d="
  M 320.3603 68.3422
  A 57.41 8.94 -10.1 0 0 262.2722 69.6085
  A 57.41 8.94 -10.1 0 0 207.3197 88.4778
  A 57.41 8.94 -10.1 0 0 265.4078 87.2115
  A 57.41 8.94 -10.1 0 0 320.3603 68.3422"
/>
<path stroke="#f9c776" vector-effect="non-scaling-stroke" d="
  M 111.21 164.16
  C 110.62 160.33 111.47 160.04 114.07 157.78
  A 0.71 0.70 50.4 0 0 114.16 156.81
  C 111.64 153.63 110.66 153.15 111.03 148.68
  A 0.74 0.74 0.0 0 0 110.30 147.88
  Q 105.71 147.87 103.45 143.87
  A 1.31 1.31 0.0 0 0 101.36 143.61
  Q 98.61 146.50 94.83 144.34
  A 0.56 0.55 14.8 0 0 94.00 144.82
  L 93.99 148.14
  A 2.50 2.47 -20.1 0 1 93.09 150.05
  L 91.07 151.73
  A 0.73 0.73 0.0 0 0 90.96 152.74
  Q 91.83 153.87 92.78 154.87
  C 94.28 156.42 94.02 158.73 94.09 160.72
  A 1.15 1.15 0.0 0 0 95.25 161.83
  Q 99.56 161.79 101.49 165.61
  A 1.43 1.43 0.0 0 0 103.79 165.97
  Q 104.76 164.97 105.97 164.36
  A 1.63 1.59 -52.0 0 1 107.01 164.22
  L 110.42 164.91
  A 0.67 0.66 1.3 0 0 111.21 164.16"
/>
<path stroke="#f9c776" vector-effect="non-scaling-stroke" d="
  M 146.64 155.80
  Q 144.99 155.68 143.44 154.98
  A 0.68 0.68 0.0 0 0 142.48 155.60
  C 142.49 159.32 142.67 159.83 139.68 162.17
  A 0.98 0.98 0.0 0 0 139.68 163.71
  Q 143.10 166.44 142.46 170.40
  A 1.59 1.59 0.0 0 0 143.90 172.24
  Q 148.03 172.56 150.17 176.23
  A 1.29 1.27 -32.8 0 0 152.01 176.62
  L 154.35 174.97
  Q 154.83 174.63 155.40 174.74
  L 158.78 175.38
  Q 160.05 175.62 159.73 174.37
  C 158.99 171.48 160.14 169.94 162.36 168.55
  A 0.97 0.97 0.0 0 0 162.53 167.04
  C 160.38 164.93 158.92 163.31 159.66 159.89
  A 1.34 1.33 10.9 0 0 158.57 158.29
  C 154.83 157.66 154.03 157.29 151.84 154.18
  A 1.29 1.28 -34.1 0 0 150.09 153.85
  C 149.01 154.55 148.00 155.89 146.64 155.80"
/>
<path stroke="#f9c776" vector-effect="non-scaling-stroke" d="
  M 191.29 165.54
  A 0.47 0.47 0.0 0 0 190.75 166.13
  Q 191.99 170.61 188.58 172.21
  A 1.27 1.27 0.0 0 0 188.22 174.26
  C 189.53 175.58 191.14 177.10 191.03 179.12
  Q 190.96 180.50 191.09 181.87
  A 1.02 1.01 87.2 0 0 192.10 182.79
  C 196.08 182.82 196.88 184.58 199.10 187.23
  Q 199.56 187.77 200.13 187.35
  L 201.84 186.12
  A 4.05 4.03 32.7 0 1 204.98 185.44
  L 207.23 185.89
  A 0.79 0.79 0.0 0 0 208.16 184.96
  Q 207.36 180.94 210.44 179.29
  A 1.36 1.36 0.0 0 0 210.64 177.03
  C 207.65 174.67 208.26 172.97 207.95 169.62
  A 0.92 0.91 0.8 0 0 207.15 168.80
  Q 205.48 168.59 203.84 168.11
  C 202.11 167.61 201.27 165.68 200.08 164.43
  A 1.08 1.07 49.7 0 0 198.66 164.31
  L 196.48 165.96
  Q 195.91 166.39 195.22 166.26
  L 191.29 165.54"
/>
<path stroke="#f9c776" vector-effect="non-scaling-stroke" d="
  M 252.23 195.67
  L 255.59 196.40
  A 0.96 0.96 0.0 0 0 256.73 195.24
  Q 255.81 191.41 259.04 189.67
  A 1.24 1.24 0.0 0 0 259.23 187.61
  Q 255.82 184.87 256.54 180.72
  A 1.29 1.29 0.0 0 0 255.40 179.22
  C 251.10 178.80 251.14 177.66 248.53 174.86
  A 0.88 0.88 0.0 0 0 247.33 174.78
  C 245.39 176.37 243.64 177.40 241.04 176.10
  A 1.08 1.08 0.0 0 0 239.48 177.06
  L 239.47 179.97
  A 1.23 1.21 -27.6 0 1 239.24 180.68
  Q 238.34 181.90 236.97 182.69
  A 1.20 1.19 56.1 0 0 236.63 184.45
  Q 237.46 185.53 238.35 186.55
  C 239.74 188.15 239.57 190.22 239.63 192.19
  A 0.87 0.87 0.0 0 0 240.23 192.99
  C 243.65 194.08 245.16 193.83 247.08 197.32
  A 1.24 1.23 55.8 0 0 248.94 197.68
  L 251.01 195.97
  Q 251.55 195.53 252.23 195.67"
/>
<path stroke="#15929b" vector-effect="non-scaling-stroke" d="
  M 114.0033 317.4292
  A 1.42 1.42 0.0 0 0 111.9995 317.2961
  L 107.7107 321.0506
  A 1.42 1.42 0.0 0 0 107.5776 323.0544
  L 112.0567 328.1708
  A 1.42 1.42 0.0 0 0 114.0605 328.3039
  L 118.3493 324.5494
  A 1.42 1.42 0.0 0 0 118.4824 322.5456
  L 114.0033 317.4292"
/>
<path stroke="#15929b" vector-effect="non-scaling-stroke" d="
  M 132.6905 319.7932
  A 1.48 1.48 0.0 0 0 130.6014 319.6654
  L 126.4372 323.3496
  A 1.48 1.48 0.0 0 0 126.3094 325.4387
  L 130.6695 330.3668
  A 1.48 1.48 0.0 0 0 132.7586 330.4946
  L 136.9228 326.8104
  A 1.48 1.48 0.0 0 0 137.0506 324.7213
  L 132.6905 319.7932"
/>
<path stroke="#15929b" vector-effect="non-scaling-stroke" d="
  M 151.2557 322.1681
  A 1.47 1.47 0.0 0 0 149.1812 322.0340
  L 145.0492 325.6640
  A 1.47 1.47 0.0 0 0 144.9151 327.7385
  L 149.2843 332.7119
  A 1.47 1.47 0.0 0 0 151.3588 332.8460
  L 155.4908 329.2160
  A 1.47 1.47 0.0 0 0 155.6249 327.1415
  L 151.2557 322.1681"
/>
<path stroke="#15929b" vector-effect="non-scaling-stroke" d="
  M 169.8622 324.4600
  A 1.39 1.39 0.0 0 0 167.9012 324.3229
  L 163.5994 328.0624
  A 1.39 1.39 0.0 0 0 163.4622 330.0234
  L 167.8578 335.0800
  A 1.39 1.39 0.0 0 0 169.8188 335.2171
  L 174.1206 331.4776
  A 1.39 1.39 0.0 0 0 174.2578 329.5166
  L 169.8622 324.4600"
/>
<path stroke="#15929b" vector-effect="non-scaling-stroke" d="
  M 188.3731 326.6690
  A 1.37 1.37 0.0 0 0 186.4394 326.5474
  L 182.1188 330.3565
  A 1.37 1.37 0.0 0 0 181.9971 332.2902
  L 186.5469 337.4510
  A 1.37 1.37 0.0 0 0 188.4806 337.5726
  L 192.8012 333.7635
  A 1.37 1.37 0.0 0 0 192.9229 331.8298
  L 188.3731 326.6690"
/>
<path stroke="#15929b" vector-effect="non-scaling-stroke" d="
  M 207.0895 329.1078
  A 1.51 1.51 0.0 0 0 204.9574 328.9886
  L 200.8572 332.6545
  A 1.51 1.51 0.0 0 0 200.7380 334.7866
  L 205.0705 339.6322
  A 1.51 1.51 0.0 0 0 207.2026 339.7514
  L 211.3028 336.0855
  A 1.51 1.51 0.0 0 0 211.4220 333.9534
  L 207.0895 329.1078"
/>
</g>
<path fill="#fa718d" d="
  M 360.21 39.68
  Q 359.97 40.58 358.99 40.76
  Q 262.26 59.21 165.50 77.55
  Q 161.75 78.26 157.96 78.79
  Q 157.23 78.71 156.56 78.43
  Q 139.57 71.49 122.90 63.82
  Q 116.83 61.02 110.98 58.66
  Q 102.47 55.21 99.01 53.64
  Q 84.54 47.09 70.00 40.66
  Q 69.29 40.35 69.68 38.89
  L 263.68 2.79
  Q 264.31 2.67 264.91 2.90
  L 360.21 39.68
  Z
  M 284.1316 32.5877
  A 71.75 15.05 -5.4 0 0 211.2837 24.3568
  A 71.75 15.05 -5.4 0 0 141.2684 46.0923
  A 71.75 15.05 -5.4 0 0 214.1163 54.3232
  A 71.75 15.05 -5.4 0 0 284.1316 32.5877
  Z"
/>
<ellipse fill="#ff87a0" cx="0.00" cy="0.00" transform="translate(212.70,39.34) rotate(-5.4)" rx="71.75" ry="15.05"/>
<path fill="#eb657c" d="
  M 69.68 38.89
  Q 69.29 40.35 70.00 40.66
  Q 84.54 47.09 99.01 53.64
  Q 102.47 55.21 110.98 58.66
  Q 116.83 61.02 122.90 63.82
  Q 139.57 71.49 156.56 78.43
  Q 157.23 78.71 157.96 78.79
  Q 157.39 79.27 157.67 79.74
  C 162.66 88.07 163.35 96.71 161.61 106.88
  Q 161.13 109.71 158.40 114.94
  Q 157.83 115.17 157.24 114.92
  Q 139.76 107.15 112.99 94.50
  Q 111.47 93.78 109.82 93.46
  Q 109.48 92.76 109.13 92.62
  Q 102.18 89.83 95.51 86.40
  Q 95.12 86.20 94.46 86.29
  Q 93.89 85.32 93.41 85.10
  Q 82.60 80.10 71.27 74.84
  C 69.29 73.92 69.22 72.98 69.03 71.09
  Q 68.97 70.49 69.57 70.40
  Q 70.11 70.31 71.02 70.49
  Q 71.33 71.41 73.80 72.54
  Q 113.61 90.71 153.20 109.22
  A 0.78 0.77 23.3 0 0 154.25 108.81
  Q 157.39 100.86 156.18 92.73
  C 156.20 89.23 155.37 83.15 151.90 81.59
  Q 133.30 73.25 114.03 64.68
  Q 109.56 62.69 105.43 61.08
  Q 103.28 60.24 100.95 58.96
  Q 98.69 57.71 96.48 56.84
  Q 94.20 55.93 91.83 54.70
  Q 89.36 53.42 86.83 52.88
  Q 86.38 52.78 86.06 52.43
  Q 85.70 52.04 85.16 51.89
  Q 84.54 51.73 83.93 51.42
  Q 77.61 48.24 71.05 45.71
  L 68.13 43.92
  Q 67.70 43.65 67.49 43.20
  Q 66.81 41.76 67.04 40.00
  Q 67.12 39.40 67.71 39.29
  L 69.68 38.89
  Z"
/>
<path fill="#dc4d6b" d="
  M 360.21 39.68
  Q 365.50 43.12 367.75 51.52
  Q 371.52 65.53 364.95 76.10
  C 364.37 77.03 363.60 77.62 362.49 77.81
  Q 357.95 78.58 352.45 79.82
  Q 351.54 80.02 350.71 80.46
  Q 349.17 80.37 348.74 80.45
  Q 288.42 91.32 228.13 102.35
  C 224.54 103.00 219.68 103.60 215.51 104.47
  C 210.73 105.48 205.39 106.13 200.39 107.46
  Q 191.60 109.75 182.42 109.66
  C 181.37 109.65 180.83 110.12 180.11 110.77
  Q 179.75 111.11 179.26 111.10
  Q 177.64 111.09 176.29 111.95
  L 158.40 114.94
  Q 161.13 109.71 161.61 106.88
  C 163.35 96.71 162.66 88.07 157.67 79.74
  Q 157.39 79.27 157.96 78.79
  Q 161.75 78.26 165.50 77.55
  Q 262.26 59.21 358.99 40.76
  Q 359.97 40.58 360.21 39.68
  Z
  M 320.3603 68.3422
  A 57.41 8.94 -10.1 0 0 262.2722 69.6085
  A 57.41 8.94 -10.1 0 0 207.3197 88.4778
  A 57.41 8.94 -10.1 0 0 265.4078 87.2115
  A 57.41 8.94 -10.1 0 0 320.3603 68.3422
  Z"
/>
<path fill="#dab3a2" d="
  M 71.05 45.71
  Q 77.61 48.24 83.93 51.42
  Q 84.54 51.73 85.16 51.89
  Q 85.70 52.04 86.06 52.43
  Q 86.38 52.78 86.83 52.88
  Q 89.36 53.42 91.83 54.70
  Q 94.20 55.93 96.48 56.84
  Q 98.69 57.71 100.95 58.96
  Q 103.28 60.24 105.43 61.08
  Q 109.56 62.69 114.03 64.68
  Q 133.30 73.25 151.90 81.59
  C 155.37 83.15 156.20 89.23 156.18 92.73
  Q 122.57 75.43 89.44 58.04
  Q 80.46 53.33 71.20 47.99
  Q 71.34 47.18 71.05 45.71
  Z"
/>
<path fill="#f8e1cc" d="
  M 71.20 47.99
  Q 80.46 53.33 89.44 58.04
  Q 122.57 75.43 156.18 92.73
  Q 157.39 100.86 154.25 108.81
  A 0.78 0.77 23.3 0 1 153.20 109.22
  Q 113.61 90.71 73.80 72.54
  Q 71.33 71.41 71.02 70.49
  L 71.20 47.99
  Z"
/>
<ellipse fill="#eb657c" cx="0.00" cy="0.00" transform="translate(263.84,78.41) rotate(-10.1)" rx="57.41" ry="8.94"/>
<path fill="#647053" d="
  M 350.71 80.46
  L 365.98 84.91
  L 205.24 108.22
  Q 202.59 108.30 200.39 107.46
  C 205.39 106.13 210.73 105.48 215.51 104.47
  C 219.68 103.60 224.54 103.00 228.13 102.35
  Q 288.42 91.32 348.74 80.45
  Q 349.17 80.37 350.71 80.46
  Z"
/>
<path fill="#879279" d="
  M 365.98 84.91
  L 379.47 88.19
  Q 377.92 89.01 377.24 89.16
  Q 279.36 110.11 241.75 118.34
  Q 240.22 118.68 240.68 121.23
  Q 240.81 119.95 240.46 119.16
  Q 240.14 118.42 239.18 118.19
  C 228.06 115.55 216.35 111.86 204.82 109.36
  A 0.42 0.41 -55.9 0 1 204.68 108.61
  L 205.24 108.22
  L 365.98 84.91
  Z"
/>
<path fill="#768367" d="
  M 94.46 86.29
  Q 95.12 86.20 95.51 86.40
  Q 102.18 89.83 109.13 92.62
  Q 109.48 92.76 109.82 93.46
  L 110.09 114.11
  A 0.88 0.87 -83.0 0 0 110.73 114.94
  L 218.24 144.98
  Q 218.55 145.06 218.55 144.75
  L 218.54 122.29
  Q 218.54 121.77 218.04 121.64
  Q 201.23 117.17 184.52 112.66
  Q 180.48 111.56 176.29 111.95
  Q 177.64 111.09 179.26 111.10
  Q 179.75 111.11 180.11 110.77
  C 180.83 110.12 181.37 109.65 182.42 109.66
  Q 191.60 109.75 200.39 107.46
  Q 202.59 108.30 205.24 108.22
  L 204.68 108.61
  A 0.42 0.41 -55.9 0 0 204.82 109.36
  C 216.35 111.86 228.06 115.55 239.18 118.19
  Q 240.14 118.42 240.46 119.16
  Q 240.81 119.95 240.68 121.23
  L 241.95 157.03
  Q 242.15 157.46 241.28 157.24
  Q 167.85 138.36 94.60 119.40
  L 94.46 86.29
  Z"
/>
<path fill="#b6c4ab" d="
  M 379.47 88.19
  Q 381.48 89.17 380.42 92.05
  Q 380.25 92.52 379.88 92.84
  L 376.43 95.76
  Q 376.42 95.15 376.13 94.89
  Q 375.90 94.69 375.33 94.81
  Q 310.21 108.30 245.29 121.52
  A 0.67 0.66 83.4 0 0 244.76 122.20
  L 245.19 133.18
  L 245.56 151.25
  A 0.47 0.46 82.8 0 0 246.12 151.69
  L 375.05 123.51
  L 378.69 122.50
  Q 380.00 122.14 380.01 123.49
  L 380.02 124.48
  Q 380.04 126.00 378.56 126.34
  Q 371.60 127.94 366.75 129.17
  Q 365.06 129.60 364.99 131.01
  Q 364.68 130.85 364.58 130.15
  Q 364.50 129.56 363.90 129.59
  Q 362.46 129.65 361.13 129.99
  Q 358.44 130.67 361.12 131.38
  Q 363.19 131.93 365.23 132.10
  Q 365.53 132.13 365.59 131.83
  Q 365.65 131.57 365.48 131.54
  L 366.95 132.34
  Q 366.98 132.46 366.90 132.59
  Q 366.85 132.66 366.77 132.65
  Q 359.54 131.23 352.57 132.86
  Q 351.93 133.01 351.47 133.52
  Q 351.06 133.98 350.45 134.00
  Q 347.71 134.07 345.14 134.41
  Q 343.28 134.65 341.47 136.08
  Q 341.08 136.39 340.59 136.37
  Q 332.78 135.99 325.14 138.85
  Q 322.77 139.67 320.16 140.15
  Q 317.95 140.55 315.92 141.28
  Q 313.90 142.00 311.62 142.05
  C 310.17 142.09 308.86 143.10 307.40 143.33
  Q 302.69 144.09 298.18 145.04
  C 297.06 145.28 296.11 145.80 294.96 146.00
  Q 291.27 146.62 287.51 147.59
  Q 284.39 148.40 274.11 150.24
  C 272.95 150.45 271.77 151.00 270.71 151.20
  Q 262.46 152.78 254.74 154.77
  C 250.69 155.81 246.64 156.23 242.71 157.49
  Q 242.47 157.57 242.28 157.40
  Q 242.13 157.27 241.95 157.03
  L 240.68 121.23
  Q 240.22 118.68 241.75 118.34
  Q 279.36 110.11 377.24 89.16
  Q 377.92 89.01 379.47 88.19
  Z"
/>
<path fill="#b6c4ab" d="
  M 109.82 93.46
  Q 111.47 93.78 112.99 94.50
  Q 139.76 107.15 157.24 114.92
  Q 157.83 115.17 158.40 114.94
  L 176.29 111.95
  Q 180.48 111.56 184.52 112.66
  Q 201.23 117.17 218.04 121.64
  Q 218.54 121.77 218.54 122.29
  L 218.55 144.75
  Q 218.55 145.06 218.24 144.98
  L 110.73 114.94
  A 0.88 0.87 -83.0 0 1 110.09 114.11
  L 109.82 93.46
  Z"
/>
<path fill="#e2e9e0" d="
  M 376.43 95.76
  Q 376.32 96.21 376.72 96.79
  L 245.19 133.18
  L 244.76 122.20
  A 0.67 0.66 83.4 0 1 245.29 121.52
  Q 310.21 108.30 375.33 94.81
  Q 375.90 94.69 376.13 94.89
  Q 376.42 95.15 376.43 95.76
  Z"
/>
<path fill="#ffffff" d="
  M 376.72 96.79
  Q 377.39 96.95 377.57 97.17
  Q 386.15 107.20 379.63 118.16
  C 378.53 120.00 376.48 121.51 375.05 123.51
  L 246.12 151.69
  A 0.47 0.46 82.8 0 1 245.56 151.25
  L 245.19 133.18
  L 376.72 96.79
  Z"
/>
<path fill="#e68800" d="
  M 94.60 119.40
  Q 167.85 138.36 241.28 157.24
  Q 242.15 157.46 241.95 157.03
  Q 242.13 157.27 242.28 157.40
  Q 242.47 157.57 242.71 157.49
  C 246.64 156.23 250.69 155.81 254.74 154.77
  Q 262.46 152.78 270.71 151.20
  C 271.77 151.00 272.95 150.45 274.11 150.24
  Q 284.39 148.40 287.51 147.59
  Q 291.27 146.62 294.96 146.00
  C 296.11 145.80 297.06 145.28 298.18 145.04
  Q 302.69 144.09 307.40 143.33
  C 308.86 143.10 310.17 142.09 311.62 142.05
  Q 313.90 142.00 315.92 141.28
  Q 317.95 140.55 320.16 140.15
  Q 322.77 139.67 325.14 138.85
  Q 327.91 138.74 330.32 138.41
  Q 330.38 138.40 330.39 138.46
  Q 330.41 138.51 330.38 138.55
  Q 330.34 138.61 330.27 138.62
  Q 329.24 138.81 328.23 139.02
  A 2.12 2.10 18.7 0 0 327.29 139.48
  Q 326.61 140.06 325.77 140.11
  Q 325.24 140.14 324.77 140.39
  Q 322.02 141.89 320.10 142.48
  Q 317.50 143.27 314.89 144.25
  Q 312.27 145.23 309.54 145.99
  Q 306.01 146.96 302.44 148.44
  Q 298.75 149.97 295.47 151.12
  Q 277.31 157.48 258.25 164.45
  L 82.13 126.81
  Q 81.66 126.71 81.38 126.31
  L 80.36 124.88
  L 94.60 119.40
  Z"
/>
<path fill="#f4a524" d="
  M 80.36 124.88
  L 81.38 126.31
  Q 81.66 126.71 82.13 126.81
  L 258.25 164.45
  L 279.61 169.22
  Q 280.01 169.31 280.20 169.68
  Q 280.29 169.84 280.38 170.04
  Q 279.34 190.04 278.12 210.04
  Q 278.12 210.15 277.83 212.45
  Q 277.62 214.15 278.11 215.25
  L 260.52 211.26
  L 228.00 203.81
  L 167.76 190.01
  L 139.26 183.88
  L 110.52 177.10
  Q 110.26 176.16 107.83 176.30
  L 77.15 168.95
  Q 76.70 168.84 76.71 168.37
  Q 77.05 148.44 77.83 127.74
  Q 77.92 125.29 80.36 124.88
  Z
  M 111.21 164.16
  C 110.62 160.33 111.47 160.04 114.07 157.78
  A 0.71 0.70 50.4 0 0 114.16 156.81
  C 111.64 153.63 110.66 153.15 111.03 148.68
  A 0.74 0.74 0.0 0 0 110.30 147.88
  Q 105.71 147.87 103.45 143.87
  A 1.31 1.31 0.0 0 0 101.36 143.61
  Q 98.61 146.50 94.83 144.34
  A 0.56 0.55 14.8 0 0 94.00 144.82
  L 93.99 148.14
  A 2.50 2.47 -20.1 0 1 93.09 150.05
  L 91.07 151.73
  A 0.73 0.73 0.0 0 0 90.96 152.74
  Q 91.83 153.87 92.78 154.87
  C 94.28 156.42 94.02 158.73 94.09 160.72
  A 1.15 1.15 0.0 0 0 95.25 161.83
  Q 99.56 161.79 101.49 165.61
  A 1.43 1.43 0.0 0 0 103.79 165.97
  Q 104.76 164.97 105.97 164.36
  A 1.63 1.59 -52.0 0 1 107.01 164.22
  L 110.42 164.91
  A 0.67 0.66 1.3 0 0 111.21 164.16
  Z
  M 146.64 155.80
  Q 144.99 155.68 143.44 154.98
  A 0.68 0.68 0.0 0 0 142.48 155.60
  C 142.49 159.32 142.67 159.83 139.68 162.17
  A 0.98 0.98 0.0 0 0 139.68 163.71
  Q 143.10 166.44 142.46 170.40
  A 1.59 1.59 0.0 0 0 143.90 172.24
  Q 148.03 172.56 150.17 176.23
  A 1.29 1.27 -32.8 0 0 152.01 176.62
  L 154.35 174.97
  Q 154.83 174.63 155.40 174.74
  L 158.78 175.38
  Q 160.05 175.62 159.73 174.37
  C 158.99 171.48 160.14 169.94 162.36 168.55
  A 0.97 0.97 0.0 0 0 162.53 167.04
  C 160.38 164.93 158.92 163.31 159.66 159.89
  A 1.34 1.33 10.9 0 0 158.57 158.29
  C 154.83 157.66 154.03 157.29 151.84 154.18
  A 1.29 1.28 -34.1 0 0 150.09 153.85
  C 149.01 154.55 148.00 155.89 146.64 155.80
  Z
  M 191.29 165.54
  A 0.47 0.47 0.0 0 0 190.75 166.13
  Q 191.99 170.61 188.58 172.21
  A 1.27 1.27 0.0 0 0 188.22 174.26
  C 189.53 175.58 191.14 177.10 191.03 179.12
  Q 190.96 180.50 191.09 181.87
  A 1.02 1.01 87.2 0 0 192.10 182.79
  C 196.08 182.82 196.88 184.58 199.10 187.23
  Q 199.56 187.77 200.13 187.35
  L 201.84 186.12
  A 4.05 4.03 32.7 0 1 204.98 185.44
  L 207.23 185.89
  A 0.79 0.79 0.0 0 0 208.16 184.96
  Q 207.36 180.94 210.44 179.29
  A 1.36 1.36 0.0 0 0 210.64 177.03
  C 207.65 174.67 208.26 172.97 207.95 169.62
  A 0.92 0.91 0.8 0 0 207.15 168.80
  Q 205.48 168.59 203.84 168.11
  C 202.11 167.61 201.27 165.68 200.08 164.43
  A 1.08 1.07 49.7 0 0 198.66 164.31
  L 196.48 165.96
  Q 195.91 166.39 195.22 166.26
  L 191.29 165.54
  Z
  M 252.23 195.67
  L 255.59 196.40
  A 0.96 0.96 0.0 0 0 256.73 195.24
  Q 255.81 191.41 259.04 189.67
  A 1.24 1.24 0.0 0 0 259.23 187.61
  Q 255.82 184.87 256.54 180.72
  A 1.29 1.29 0.0 0 0 255.40 179.22
  C 251.10 178.80 251.14 177.66 248.53 174.86
  A 0.88 0.88 0.0 0 0 247.33 174.78
  C 245.39 176.37 243.64 177.40 241.04 176.10
  A 1.08 1.08 0.0 0 0 239.48 177.06
  L 239.47 179.97
  A 1.23 1.21 -27.6 0 1 239.24 180.68
  Q 238.34 181.90 236.97 182.69
  A 1.20 1.19 56.1 0 0 236.63 184.45
  Q 237.46 185.53 238.35 186.55
  C 239.74 188.15 239.57 190.22 239.63 192.19
  A 0.87 0.87 0.0 0 0 240.23 192.99
  C 243.65 194.08 245.16 193.83 247.08 197.32
  A 1.24 1.23 55.8 0 0 248.94 197.68
  L 251.01 195.97
  Q 251.55 195.53 252.23 195.67
  Z"
/>
<path fill="#fde8c7" d="
  M 364.99 131.01
  Q 365.28 131.22 365.48 131.54
  Q 365.65 131.57 365.59 131.83
  Q 365.53 132.13 365.23 132.10
  Q 363.19 131.93 361.12 131.38
  Q 358.44 130.67 361.13 129.99
  Q 362.46 129.65 363.90 129.59
  Q 364.50 129.56 364.58 130.15
  Q 364.68 130.85 364.99 131.01
  Z"
/>
<path fill="#feb63c" d="
  M 366.95 132.34
  L 368.64 133.02
  Q 369.77 133.77 369.86 134.52
  A 0.68 0.68 0.0 0 1 369.49 135.20
  Q 367.30 136.28 364.83 136.92
  Q 362.88 137.43 361.05 138.46
  Q 359.26 139.48 357.08 140.07
  Q 355.01 140.64 352.97 141.44
  Q 336.03 148.11 318.98 154.49
  Q 318.03 154.84 317.04 155.09
  C 315.24 155.55 313.71 156.53 311.97 157.20
  Q 296.98 162.96 282.01 168.74
  Q 280.87 169.18 280.38 170.04
  Q 280.29 169.84 280.20 169.68
  Q 280.01 169.31 279.61 169.22
  L 258.25 164.45
  Q 277.31 157.48 295.47 151.12
  Q 298.75 149.97 302.44 148.44
  Q 306.01 146.96 309.54 145.99
  Q 312.27 145.23 314.89 144.25
  Q 317.50 143.27 320.10 142.48
  Q 322.02 141.89 324.77 140.39
  Q 325.24 140.14 325.77 140.11
  Q 326.61 140.06 327.29 139.48
  A 2.12 2.10 18.7 0 1 328.23 139.02
  Q 329.24 138.81 330.27 138.62
  Q 330.34 138.61 330.38 138.55
  Q 330.41 138.51 330.39 138.46
  Q 330.38 138.40 330.32 138.41
  Q 327.91 138.74 325.14 138.85
  Q 332.78 135.99 340.59 136.37
  Q 341.08 136.39 341.47 136.08
  Q 343.28 134.65 345.14 134.41
  Q 347.71 134.07 350.45 134.00
  Q 351.06 133.98 351.47 133.52
  Q 351.93 133.01 352.57 132.86
  Q 359.54 131.23 366.77 132.65
  Q 366.85 132.66 366.90 132.59
  Q 366.98 132.46 366.95 132.34
  Z"
/>
<path fill="#fbd49d" d="
  M 368.64 133.02
  Q 370.63 132.85 371.99 133.92
  Q 372.46 134.29 372.37 134.88
  L 371.98 137.50
  Q 371.86 138.25 371.16 138.53
  Q 369.03 139.38 367.77 140.97
  L 367.47 140.78
  Q 367.19 140.60 366.88 140.72
  Q 362.06 142.57 356.95 144.89
  Q 356.05 145.30 355.17 145.79
  Q 354.06 146.39 352.99 146.45
  Q 352.60 146.47 352.38 146.81
  A 0.81 0.80 -77.8 0 1 351.86 147.15
  Q 348.07 147.86 344.98 149.49
  Q 343.95 150.04 342.82 150.26
  Q 341.47 150.51 340.33 151.22
  Q 338.47 152.37 336.50 152.98
  Q 331.23 154.60 325.75 156.46
  Q 324.18 157.00 322.62 157.85
  Q 321.24 158.59 319.77 159.15
  Q 302.48 165.65 285.20 172.30
  Q 284.74 172.48 284.52 172.92
  Q 282.93 176.04 284.15 179.03
  Q 283.85 189.01 283.79 199.07
  Q 283.78 201.40 283.26 203.82
  Q 282.75 206.18 282.64 208.69
  A 0.50 0.50 0.0 0 0 283.33 209.17
  Q 324.68 192.06 366.05 175.37
  Q 366.49 175.19 366.97 175.08
  Q 368.38 174.76 367.31 173.97
  Q 368.35 173.91 368.82 174.23
  Q 369.23 174.50 369.11 174.97
  L 368.38 177.97
  Q 368.25 178.47 367.78 178.67
  L 353.51 184.47
  L 278.11 215.25
  Q 277.62 214.15 277.83 212.45
  Q 278.12 210.15 278.12 210.04
  Q 279.34 190.04 280.38 170.04
  Q 280.87 169.18 282.01 168.74
  Q 296.98 162.96 311.97 157.20
  C 313.71 156.53 315.24 155.55 317.04 155.09
  Q 318.03 154.84 318.98 154.49
  Q 336.03 148.11 352.97 141.44
  Q 355.01 140.64 357.08 140.07
  Q 359.26 139.48 361.05 138.46
  Q 362.88 137.43 364.83 136.92
  Q 367.30 136.28 369.49 135.20
  A 0.68 0.68 0.0 0 0 369.86 134.52
  Q 369.77 133.77 368.64 133.02
  Z"
/>
<path fill="#e2cbc9" d="
  M 367.77 140.97
  L 366.51 143.30
  Q 327.71 161.18 288.08 177.39
  Q 286.45 178.06 284.15 179.03
  Q 282.93 176.04 284.52 172.92
  Q 284.74 172.48 285.20 172.30
  Q 302.48 165.65 319.77 159.15
  Q 321.24 158.59 322.62 157.85
  Q 324.18 157.00 325.75 156.46
  Q 331.23 154.60 336.50 152.98
  Q 338.47 152.37 340.33 151.22
  Q 341.47 150.51 342.82 150.26
  Q 343.95 150.04 344.98 149.49
  Q 348.07 147.86 351.86 147.15
  A 0.81 0.80 -77.8 0 0 352.38 146.81
  Q 352.60 146.47 352.99 146.45
  Q 354.06 146.39 355.17 145.79
  Q 356.05 145.30 356.95 144.89
  Q 362.06 142.57 366.88 140.72
  Q 367.19 140.60 367.47 140.78
  L 367.77 140.97
  Z"
/>
<path fill="#fde8c7" d="
  M 114.07 157.78
  C 111.47 160.04 110.62 160.33 111.21 164.16
  A 0.67 0.66 1.3 0 1 110.42 164.91
  L 107.01 164.22
  A 1.63 1.59 -52.0 0 0 105.97 164.36
  Q 104.76 164.97 103.79 165.97
  A 1.43 1.43 0.0 0 1 101.49 165.61
  Q 99.56 161.79 95.25 161.83
  A 1.15 1.15 0.0 0 1 94.09 160.72
  C 94.02 158.73 94.28 156.42 92.78 154.87
  Q 91.83 153.87 90.96 152.74
  A 0.73 0.73 0.0 0 1 91.07 151.73
  L 93.09 150.05
  A 2.50 2.47 -20.1 0 0 93.99 148.14
  L 94.00 144.82
  A 0.56 0.55 14.8 0 1 94.83 144.34
  Q 98.61 146.50 101.36 143.61
  A 1.31 1.31 0.0 0 1 103.45 143.87
  Q 105.71 147.87 110.30 147.88
  A 0.74 0.74 0.0 0 1 111.03 148.68
  C 110.66 153.15 111.64 153.63 114.16 156.81
  A 0.71 0.70 50.4 0 1 114.07 157.78
  Z"
/>
<path fill="#ffffff" d="
  M 366.51 143.30
  Q 374.19 145.45 377.35 153.18
  L 368.23 149.57
  Q 367.74 149.37 367.72 149.90
  L 367.23 166.32
  L 367.31 173.97
  Q 368.38 174.76 366.97 175.08
  Q 366.49 175.19 366.05 175.37
  Q 324.68 192.06 283.33 209.17
  A 0.50 0.50 0.0 0 1 282.64 208.69
  Q 282.75 206.18 283.26 203.82
  Q 283.78 201.40 283.79 199.07
  Q 283.85 189.01 284.15 179.03
  Q 286.45 178.06 288.08 177.39
  Q 327.71 161.18 366.51 143.30
  Z"
/>
<path fill="#1c91b4" d="
  M 377.35 153.18
  L 415.71 168.49
  A 2.12 2.11 11.3 0 1 417.04 170.48
  L 416.74 211.69
  A 0.99 0.99 0.0 0 1 415.93 212.66
  L 388.01 217.79
  L 387.86 175.67
  A 1.85 1.84 10.7 0 0 386.68 173.95
  L 367.23 166.32
  L 367.72 149.90
  Q 367.74 149.37 368.23 149.57
  L 377.35 153.18
  Z"
/>
<path fill="#fde8c7" d="
  M 146.64 155.80
  C 148.00 155.89 149.01 154.55 150.09 153.85
  A 1.29 1.28 -34.1 0 1 151.84 154.18
  C 154.03 157.29 154.83 157.66 158.57 158.29
  A 1.34 1.33 10.9 0 1 159.66 159.89
  C 158.92 163.31 160.38 164.93 162.53 167.04
  A 0.97 0.97 0.0 0 1 162.36 168.55
  C 160.14 169.94 158.99 171.48 159.73 174.37
  Q 160.05 175.62 158.78 175.38
  L 155.40 174.74
  Q 154.83 174.63 154.35 174.97
  L 152.01 176.62
  A 1.29 1.27 -32.8 0 1 150.17 176.23
  Q 148.03 172.56 143.90 172.24
  A 1.59 1.59 0.0 0 1 142.46 170.40
  Q 143.10 166.44 139.68 163.71
  A 0.98 0.98 0.0 0 1 139.68 162.17
  C 142.67 159.83 142.49 159.32 142.48 155.60
  A 0.68 0.68 0.0 0 1 143.44 154.98
  Q 144.99 155.68 146.64 155.80
  Z"
/>
<path fill="#fde8c7" d="
  M 191.29 165.54
  L 195.22 166.26
  Q 195.91 166.39 196.48 165.96
  L 198.66 164.31
  A 1.08 1.07 49.7 0 1 200.08 164.43
  C 201.27 165.68 202.11 167.61 203.84 168.11
  Q 205.48 168.59 207.15 168.80
  A 0.92 0.91 0.8 0 1 207.95 169.62
  C 208.26 172.97 207.65 174.67 210.64 177.03
  A 1.36 1.36 0.0 0 1 210.44 179.29
  Q 207.36 180.94 208.16 184.96
  A 0.79 0.79 0.0 0 1 207.23 185.89
  L 204.98 185.44
  A 4.05 4.03 32.7 0 0 201.84 186.12
  L 200.13 187.35
  Q 199.56 187.77 199.10 187.23
  C 196.88 184.58 196.08 182.82 192.10 182.79
  A 1.02 1.01 87.2 0 1 191.09 181.87
  Q 190.96 180.50 191.03 179.12
  C 191.14 177.10 189.53 175.58 188.22 174.26
  A 1.27 1.27 0.0 0 1 188.58 172.21
  Q 191.99 170.61 190.75 166.13
  A 0.47 0.47 0.0 0 1 191.29 165.54
  Z"
/>
<path fill="#20687f" d="
  M 388.01 217.79
  L 380.39 219.38
  L 352.18 224.59
  Q 353.73 223.54 353.71 222.00
  Q 353.52 203.36 353.51 184.47
  L 367.78 178.67
  Q 368.25 178.47 368.38 177.97
  L 369.11 174.97
  Q 369.23 174.50 368.82 174.23
  Q 368.35 173.91 367.31 173.97
  L 367.23 166.32
  L 386.68 173.95
  A 1.85 1.84 10.7 0 1 387.86 175.67
  L 388.01 217.79
  Z"
/>
<path fill="#fde8c7" d="
  M 251.01 195.97
  L 248.94 197.68
  A 1.24 1.23 55.8 0 1 247.08 197.32
  C 245.16 193.83 243.65 194.08 240.23 192.99
  A 0.87 0.87 0.0 0 1 239.63 192.19
  C 239.57 190.22 239.74 188.15 238.35 186.55
  Q 237.46 185.53 236.63 184.45
  A 1.20 1.19 56.1 0 1 236.97 182.69
  Q 238.34 181.90 239.24 180.68
  A 1.23 1.21 -27.6 0 0 239.47 179.97
  L 239.48 177.06
  A 1.08 1.08 0.0 0 1 241.04 176.10
  C 243.64 177.40 245.39 176.37 247.33 174.78
  A 0.88 0.88 0.0 0 1 248.53 174.86
  C 251.14 177.66 251.10 178.80 255.40 179.22
  A 1.29 1.29 0.0 0 1 256.54 180.72
  Q 255.82 184.87 259.23 187.61
  A 1.24 1.24 0.0 0 1 259.04 189.67
  Q 255.81 191.41 256.73 195.24
  A 0.96 0.96 0.0 0 1 255.59 196.40
  L 252.23 195.67
  Q 251.55 195.53 251.01 195.97
  Z"
/>
<path fill="#dab3a2" d="
  M 110.52 177.10
  L 191.08 214.09
  A 1.31 1.31 0.0 0 1 191.85 215.33
  L 191.57 226.47
  L 107.04 187.48
  Q 106.66 182.35 107.83 176.30
  Q 110.26 176.16 110.52 177.10
  Z"
/>
<path fill="#057f9f" d="
  M 139.26 183.88
  Q 143.56 187.21 147.99 189.24
  Q 172.51 200.46 195.97 210.98
  A 0.87 0.85 -77.5 0 1 196.48 211.80
  L 195.19 250.12
  Q 195.18 250.54 195.32 250.94
  L 196.24 253.55
  Q 189.37 251.58 182.10 247.56
  L 141.62 227.76
  Q 141.35 227.62 141.05 227.64
  Q 140.86 227.65 140.76 227.60
  Q 130.19 222.38 119.72 217.67
  Q 113.67 214.44 107.60 211.62
  Q 105.48 210.63 104.79 209.87
  Q 103.27 208.16 104.80 206.10
  L 190.39 247.23
  A 0.43 0.43 0.0 0 0 191.00 246.86
  L 191.57 226.47
  L 191.85 215.33
  A 1.31 1.31 0.0 0 0 191.08 214.09
  L 110.52 177.10
  L 139.26 183.88
  Z"
/>
<path fill="#1c91b4" d="
  M 139.26 183.88
  L 167.76 190.01
  Q 169.58 190.36 170.36 191.46
  Q 170.68 191.91 171.21 192.06
  L 175.52 193.36
  Q 175.89 193.47 176.13 193.76
  Q 176.27 193.93 176.49 194.01
  Q 182.75 196.33 189.04 198.36
  Q 200.72 202.13 214.07 206.79
  C 215.15 207.16 217.19 207.45 218.14 207.17
  Q 223.22 205.67 228.15 205.54
  Q 229.09 206.96 229.09 208.25
  Q 229.12 227.77 228.94 247.41
  L 196.24 253.55
  L 195.32 250.94
  Q 195.18 250.54 195.19 250.12
  L 196.48 211.80
  A 0.87 0.85 -77.5 0 0 195.97 210.98
  Q 172.51 200.46 147.99 189.24
  Q 143.56 187.21 139.26 183.88
  Z"
/>
<path fill="#1c91b4" d="
  M 353.51 184.47
  Q 353.52 203.36 353.71 222.00
  Q 353.73 223.54 352.18 224.59
  L 260.72 241.50
  Q 259.83 226.40 260.52 211.26
  L 278.11 215.25
  L 353.51 184.47
  Z"
/>
<path fill="#f8e1cc" d="
  M 107.04 187.48
  L 191.57 226.47
  L 191.00 246.86
  A 0.43 0.43 0.0 0 1 190.39 247.23
  L 104.80 206.10
  Q 106.91 197.10 107.04 187.48
  Z"
/>
<path fill="#057f9f" d="
  M 167.76 190.01
  L 228.00 203.81
  Q 228.26 204.78 228.15 205.54
  Q 223.22 205.67 218.14 207.17
  C 217.19 207.45 215.15 207.16 214.07 206.79
  Q 200.72 202.13 189.04 198.36
  Q 182.75 196.33 176.49 194.01
  Q 176.27 193.93 176.13 193.76
  Q 175.89 193.47 175.52 193.36
  L 171.21 192.06
  Q 170.68 191.91 170.36 191.46
  Q 169.58 190.36 167.76 190.01
  Z"
/>
<path fill="#20687f" d="
  M 228.00 203.81
  L 260.52 211.26
  Q 259.83 226.40 260.72 241.50
  L 228.94 247.41
  Q 229.12 227.77 229.09 208.25
  Q 229.09 206.96 228.15 205.54
  Q 228.26 204.78 228.00 203.81
  Z"
/>
<path fill="#e68800" d="
  M 119.72 217.67
  Q 130.19 222.38 140.76 227.60
  Q 140.86 227.65 141.05 227.64
  Q 141.35 227.62 141.62 227.76
  L 182.10 247.56
  Q 179.39 246.69 176.70 245.91
  Q 173.76 245.05 171.36 244.13
  Q 149.22 235.60 127.37 226.40
  Q 119.09 222.91 110.07 219.75
  L 119.72 217.67
  Z"
/>
<path fill="#feb63c" d="
  M 380.39 219.38
  L 387.74 222.61
  L 180.85 262.31
  L 95.35 223.78
  Q 94.91 223.58 94.91 223.11
  Q 94.90 222.68 94.61 222.37
  L 110.07 219.75
  Q 119.09 222.91 127.37 226.40
  Q 149.22 235.60 171.36 244.13
  Q 173.76 245.05 176.70 245.91
  Q 179.39 246.69 182.10 247.56
  Q 189.37 251.58 196.24 253.55
  L 228.94 247.41
  L 260.72 241.50
  L 352.18 224.59
  L 380.39 219.38
  Z"
/>
<path fill="#fbd49d" d="
  M 94.61 222.37
  Q 94.90 222.68 94.91 223.11
  Q 94.91 223.58 95.35 223.78
  L 180.85 262.31
  Q 187.21 272.57 183.42 282.96
  Q 182.30 286.04 179.67 289.46
  L 106.17 254.63
  Q 106.02 254.56 105.84 254.56
  Q 105.67 254.57 105.56 254.55
  Q 104.97 253.98 104.37 253.68
  Q 100.09 251.54 95.75 249.44
  Q 92.76 248.00 94.36 244.88
  Q 107.52 250.88 120.26 257.11
  C 137.99 265.78 155.83 274.23 173.58 282.87
  Q 177.34 284.70 178.36 280.63
  Q 179.92 274.43 177.80 269.04
  Q 177.91 266.09 173.61 264.17
  Q 163.83 259.80 154.16 255.18
  C 153.15 254.70 151.82 253.82 150.54 253.35
  Q 149.09 252.81 147.75 252.21
  Q 143.80 250.43 139.68 248.40
  Q 139.19 248.16 138.66 248.10
  Q 138.31 248.05 137.98 247.90
  Q 120.87 240.01 105.22 232.71
  Q 102.59 231.48 99.86 230.13
  Q 99.19 229.79 96.93 229.77
  C 96.05 228.52 94.63 228.21 93.86 227.19
  Q 91.85 224.53 94.61 222.37
  Z"
/>
<path fill="#e68800" d="
  M 387.74 222.61
  C 393.34 225.31 394.66 230.74 395.28 236.58
  L 393.33 246.13
  Q 391.84 247.64 390.00 249.47
  Q 388.59 250.89 383.27 251.70
  Q 379.47 251.29 377.75 252.13
  Q 375.03 253.46 373.76 253.64
  Q 366.43 254.72 359.21 256.38
  L 179.67 289.46
  Q 182.30 286.04 183.42 282.96
  Q 187.21 272.57 180.85 262.31
  L 387.74 222.61
  Z"
/>
<path fill="#dab3a2" d="
  M 96.93 229.77
  Q 99.19 229.79 99.86 230.13
  Q 102.59 231.48 105.22 232.71
  Q 120.87 240.01 137.98 247.90
  Q 138.31 248.05 138.66 248.10
  Q 139.19 248.16 139.68 248.40
  Q 143.80 250.43 147.75 252.21
  Q 149.09 252.81 150.54 253.35
  C 151.82 253.82 153.15 254.70 154.16 255.18
  Q 163.83 259.80 173.61 264.17
  Q 177.91 266.09 177.80 269.04
  Q 166.80 264.56 156.33 260.18
  Q 153.26 258.89 150.01 257.35
  C 144.81 254.87 139.17 252.75 134.15 250.48
  Q 115.58 242.05 97.03 233.62
  L 96.93 229.77
  Z"
/>
<path fill="#ffedd9" d="
  M 97.03 233.62
  Q 115.58 242.05 134.15 250.48
  C 139.17 252.75 144.81 254.87 150.01 257.35
  Q 153.26 258.89 156.33 260.18
  Q 166.80 264.56 177.80 269.04
  Q 179.92 274.43 178.36 280.63
  Q 177.34 284.70 173.58 282.87
  C 155.83 274.23 137.99 265.78 120.26 257.11
  Q 107.52 250.88 94.36 244.88
  Q 95.81 244.60 95.85 242.50
  Q 95.90 239.17 97.03 233.62
  Z"
/>
<path fill="#20687f" d="
  M 395.28 236.58
  L 408.50 239.26
  L 393.33 246.13
  L 395.28 236.58
  Z"
/>
<path fill="#9fbed1" d="
  M 408.50 239.26
  Q 408.70 239.20 408.90 239.32
  A 0.28 0.28 0.0 0 1 409.04 239.56
  L 408.96 242.85
  Q 408.95 243.38 408.49 243.67
  L 404.96 245.91
  Q 400.75 246.94 395.78 249.53
  Q 393.26 250.84 386.76 253.76
  Q 356.08 267.50 325.33 281.10
  C 323.72 281.82 322.21 282.93 321.63 284.44
  Q 319.04 291.17 319.98 299.32
  Q 320.40 307.59 322.25 315.75
  A 0.63 0.63 0.0 0 0 323.13 316.18
  L 405.46 277.56
  Q 406.05 277.39 406.49 277.59
  Q 406.89 277.77 406.98 278.35
  Q 407.19 279.71 406.58 280.88
  C 406.15 281.69 405.23 281.92 404.67 282.78
  Q 404.49 282.85 404.26 282.84
  Q 403.93 282.81 403.63 282.95
  L 356.65 304.86
  L 319.12 322.32
  Q 318.69 322.52 318.21 322.46
  L 317.29 322.35
  Q 317.50 322.39 317.71 322.25
  Q 318.03 322.04 317.91 321.68
  C 313.97 309.47 310.83 290.92 318.54 279.47
  Q 319.31 278.81 320.18 278.43
  Q 347.58 266.29 375.03 254.25
  C 376.64 253.55 378.33 253.14 379.99 252.77
  Q 380.47 252.67 380.75 252.28
  Q 381.44 251.35 383.27 251.70
  Q 388.59 250.89 390.00 249.47
  Q 391.84 247.64 393.33 246.13
  L 408.50 239.26
  Z"
/>
<path fill="#e2cbc9" d="
  M 404.96 245.91
  Q 404.93 246.76 405.42 247.52
  L 319.98 299.32
  Q 319.04 291.17 321.63 284.44
  C 322.21 282.93 323.72 281.82 325.33 281.10
  Q 356.08 267.50 386.76 253.76
  Q 393.26 250.84 395.78 249.53
  Q 400.75 246.94 404.96 245.91
  Z"
/>
<path fill="#ffffff" d="
  M 405.42 247.52
  Q 407.81 250.95 408.26 255.24
  Q 408.84 260.86 408.17 266.41
  C 407.95 268.21 407.28 269.80 406.64 271.48
  C 405.86 273.49 406.75 275.09 405.25 276.99
  Q 405.08 277.20 405.23 277.43
  Q 405.31 277.56 405.46 277.56
  L 323.13 316.18
  A 0.63 0.63 0.0 0 1 322.25 315.75
  Q 320.40 307.59 319.98 299.32
  L 405.42 247.52
  Z"
/>
<path fill="#20687f" d="
  M 383.27 251.70
  Q 381.44 251.35 380.75 252.28
  Q 380.47 252.67 379.99 252.77
  C 378.33 253.14 376.64 253.55 375.03 254.25
  Q 347.58 266.29 320.18 278.43
  Q 319.31 278.81 318.54 279.47
  Q 318.52 279.18 318.15 278.84
  Q 317.87 278.57 317.48 278.51
  Q 307.32 276.81 298.20 274.94
  Q 294.61 274.20 298.18 273.36
  Q 326.21 266.80 353.87 258.54
  Q 354.41 258.38 356.68 258.16
  Q 358.61 257.97 359.21 256.38
  Q 366.43 254.72 373.76 253.64
  Q 375.03 253.46 377.75 252.13
  Q 379.47 251.29 383.27 251.70
  Z"
/>
<path fill="#004b6e" d="
  M 105.56 254.55
  Q 105.67 254.57 105.84 254.56
  Q 106.02 254.56 106.17 254.63
  L 179.67 289.46
  L 359.21 256.38
  Q 358.61 257.97 356.68 258.16
  Q 354.41 258.38 353.87 258.54
  Q 326.21 266.80 298.18 273.36
  Q 294.61 274.20 298.20 274.94
  Q 307.32 276.81 317.48 278.51
  Q 317.87 278.57 318.15 278.84
  Q 318.52 279.18 318.54 279.47
  C 310.83 290.92 313.97 309.47 317.91 321.68
  Q 318.03 322.04 317.71 322.25
  Q 317.50 322.39 317.29 322.35
  L 311.46 321.23
  L 304.06 319.96
  L 287.64 316.86
  L 112.90 285.06
  A 1.32 1.31 -3.7 0 1 111.88 284.17
  L 109.63 277.31
  Q 109.53 276.99 109.26 276.79
  Q 108.94 276.57 109.11 276.87
  Q 109.09 276.63 109.19 276.40
  Q 109.36 276.05 109.25 275.68
  Q 106.41 265.24 105.56 254.55
  Z"
/>
<path fill="#00858e" d="
  M 109.11 276.87
  Q 108.94 276.57 109.26 276.79
  Q 109.53 276.99 109.63 277.31
  L 111.88 284.17
  A 1.32 1.31 -3.7 0 0 112.90 285.06
  L 287.64 316.86
  L 279.76 319.80
  L 79.91 290.65
  L 109.11 276.87
  Z"
/>
<path fill="#ffffff" d="
  M 404.67 282.78
  Q 403.74 285.09 403.10 287.53
  Q 402.33 290.44 397.92 294.00
  Q 396.66 295.01 393.00 296.90
  Q 390.66 298.10 388.00 299.62
  Q 385.21 301.21 382.31 302.63
  Q 379.87 303.83 376.20 304.34
  Q 367.18 305.60 358.12 307.57
  Q 357.23 306.73 356.65 304.86
  L 403.63 282.95
  Q 403.93 282.81 404.26 282.84
  Q 404.49 282.85 404.67 282.78
  Z"
/>
<path fill="#2a9ea8" d="
  M 79.91 290.65
  L 279.76 319.80
  L 271.82 324.39
  Q 272.13 323.45 271.49 323.37
  Q 171.98 310.46 72.46 297.59
  Q 69.02 297.14 67.73 296.01
  L 79.91 290.65
  Z"
/>
<path fill="#00858e" d="
  M 67.73 296.01
  Q 69.02 297.14 72.46 297.59
  Q 171.98 310.46 271.49 323.37
  Q 272.13 323.45 271.82 324.39
  C 267.31 331.04 266.81 341.21 268.11 349.03
  Q 269.14 355.17 274.40 360.71
  L 259.79 358.88
  Q 255.71 358.23 251.61 357.74
  Q 251.25 357.70 243.44 356.50
  Q 238.76 355.78 233.82 355.90
  Q 231.66 355.07 229.75 354.86
  Q 219.14 353.72 207.51 352.14
  Q 205.91 351.35 203.69 351.17
  Q 201.54 350.99 199.88 350.58
  Q 196.10 349.64 192.54 350.03
  L 175.63 348.15
  Q 173.93 347.46 170.55 346.87
  Q 166.74 346.21 162.03 346.18
  Q 159.45 346.16 156.80 345.55
  Q 154.27 344.98 151.81 344.75
  Q 138.17 343.52 125.98 341.71
  Q 125.00 341.56 123.98 341.61
  A 0.04 0.04 0.0 0 0 123.97 341.68
  Q 124.27 341.78 124.51 341.59
  Q 124.92 341.25 124.39 341.17
  C 117.76 340.25 110.92 339.75 104.41 338.80
  Q 99.76 338.12 94.78 337.23
  Q 94.26 337.14 93.74 336.99
  Q 93.27 336.87 92.82 337.06
  Q 91.98 337.42 90.94 337.12
  L 66.48 333.86
  A 1.73 1.71 -13.9 0 1 65.32 333.17
  C 58.25 323.70 57.69 310.90 63.19 300.46
  Q 65.10 296.84 67.73 296.01
  Z
  M 114.0033 317.4292
  A 1.42 1.42 0.0 0 0 111.9995 317.2961
  L 107.7107 321.0506
  A 1.42 1.42 0.0 0 0 107.5776 323.0544
  L 112.0567 328.1708
  A 1.42 1.42 0.0 0 0 114.0605 328.3039
  L 118.3493 324.5494
  A 1.42 1.42 0.0 0 0 118.4824 322.5456
  L 114.0033 317.4292
  Z
  M 132.6905 319.7932
  A 1.48 1.48 0.0 0 0 130.6014 319.6654
  L 126.4372 323.3496
  A 1.48 1.48 0.0 0 0 126.3094 325.4387
  L 130.6695 330.3668
  A 1.48 1.48 0.0 0 0 132.7586 330.4946
  L 136.9228 326.8104
  A 1.48 1.48 0.0 0 0 137.0506 324.7213
  L 132.6905 319.7932
  Z
  M 151.2557 322.1681
  A 1.47 1.47 0.0 0 0 149.1812 322.0340
  L 145.0492 325.6640
  A 1.47 1.47 0.0 0 0 144.9151 327.7385
  L 149.2843 332.7119
  A 1.47 1.47 0.0 0 0 151.3588 332.8460
  L 155.4908 329.2160
  A 1.47 1.47 0.0 0 0 155.6249 327.1415
  L 151.2557 322.1681
  Z
  M 169.8622 324.4600
  A 1.39 1.39 0.0 0 0 167.9012 324.3229
  L 163.5994 328.0624
  A 1.39 1.39 0.0 0 0 163.4622 330.0234
  L 167.8578 335.0800
  A 1.39 1.39 0.0 0 0 169.8188 335.2171
  L 174.1206 331.4776
  A 1.39 1.39 0.0 0 0 174.2578 329.5166
  L 169.8622 324.4600
  Z
  M 188.3731 326.6690
  A 1.37 1.37 0.0 0 0 186.4394 326.5474
  L 182.1188 330.3565
  A 1.37 1.37 0.0 0 0 181.9971 332.2902
  L 186.5469 337.4510
  A 1.37 1.37 0.0 0 0 188.4806 337.5726
  L 192.8012 333.7635
  A 1.37 1.37 0.0 0 0 192.9229 331.8298
  L 188.3731 326.6690
  Z
  M 207.0895 329.1078
  A 1.51 1.51 0.0 0 0 204.9574 328.9886
  L 200.8572 332.6545
  A 1.51 1.51 0.0 0 0 200.7380 334.7866
  L 205.0705 339.6322
  A 1.51 1.51 0.0 0 0 207.2026 339.7514
  L 211.3028 336.0855
  A 1.51 1.51 0.0 0 0 211.4220 333.9534
  L 207.0895 329.1078
  Z"
/>
<path fill="#f8e1cc" d="
  M 356.65 304.86
  Q 357.23 306.73 358.12 307.57
  Q 356.99 308.61 358.21 311.28
  Q 355.82 312.88 353.23 314.16
  Q 350.64 315.44 348.12 316.80
  Q 339.31 321.57 330.42 326.36
  Q 319.58 332.20 307.89 338.45
  Q 307.17 338.84 306.28 339.10
  C 304.82 339.53 303.73 340.74 302.38 341.39
  Q 290.63 347.10 279.16 354.10
  A 0.85 0.84 -17.0 0 1 277.87 353.42
  L 277.38 342.62
  L 311.46 321.23
  L 317.29 322.35
  L 318.21 322.46
  Q 318.69 322.52 319.12 322.32
  L 356.65 304.86
  Z"
/>
<path fill="#b7d9dd" d="
  M 358.21 311.28
  Q 359.63 311.21 359.37 311.95
  Q 358.57 314.19 359.86 314.76
  L 339.60 325.88
  L 331.14 330.23
  L 327.63 332.26
  L 320.50 335.97
  L 274.40 360.71
  Q 269.14 355.17 268.11 349.03
  C 266.81 341.21 267.31 331.04 271.82 324.39
  L 279.76 319.80
  L 287.64 316.86
  L 304.06 319.96
  Q 296.99 320.41 290.00 320.37
  Q 288.38 320.36 287.22 321.14
  Q 284.83 322.76 282.02 323.67
  Q 277.28 325.19 277.27 330.64
  Q 277.26 336.51 277.38 342.62
  L 277.87 353.42
  A 0.85 0.84 -17.0 0 0 279.16 354.10
  Q 290.63 347.10 302.38 341.39
  C 303.73 340.74 304.82 339.53 306.28 339.10
  Q 307.17 338.84 307.89 338.45
  Q 319.58 332.20 330.42 326.36
  Q 339.31 321.57 348.12 316.80
  Q 350.64 315.44 353.23 314.16
  Q 355.82 312.88 358.21 311.28
  Z"
/>
<path fill="#c73c2c" d="
  M 359.86 314.76
  L 366.92 317.46
  Q 354.83 323.79 343.30 327.69
  L 339.60 325.88
  L 359.86 314.76
  Z"
/>
<rect fill="#2a9ea8" x="-4.27" y="-4.82" transform="translate(113.03,322.80) rotate(-41.2)" width="8.54" height="9.64" rx="1.42"/>
<path fill="#f74b35" d="
  M 366.92 317.46
  L 401.64 331.30
  A 1.11 1.09 11.1 0 1 402.34 332.32
  L 402.33 364.51
  Q 402.36 367.12 402.40 369.69
  Q 402.41 370.78 402.12 371.75
  Q 401.84 372.72 401.62 373.70
  Q 401.50 374.27 401.01 374.58
  C 399.61 375.45 398.24 374.96 396.68 375.36
  Q 394.18 376.00 391.60 376.30
  C 390.09 376.47 389.19 377.56 387.59 377.70
  Q 384.09 377.99 381.10 378.77
  Q 377.96 379.59 374.82 380.06
  Q 371.26 380.60 367.73 381.74
  Q 367.19 381.91 366.70 381.67
  Q 367.39 381.44 367.38 381.00
  Q 367.18 359.21 367.22 337.97
  L 343.30 327.69
  Q 354.83 323.79 366.92 317.46
  Z"
/>
<rect fill="#2a9ea8" x="-4.26" y="-4.77" transform="translate(131.68,325.08) rotate(-41.5)" width="8.52" height="9.54" rx="1.48"/>
<path fill="#cec8be" d="
  M 304.06 319.96
  L 311.46 321.23
  L 277.38 342.62
  Q 277.26 336.51 277.27 330.64
  Q 277.28 325.19 282.02 323.67
  Q 284.83 322.76 287.22 321.14
  Q 288.38 320.36 290.00 320.37
  Q 296.99 320.41 304.06 319.96
  Z"
/>
<rect fill="#2a9ea8" x="-4.22" y="-4.78" transform="translate(150.27,327.44) rotate(-41.3)" width="8.44" height="9.56" rx="1.47"/>
<rect fill="#2a9ea8" x="-4.24" y="-4.74" transform="translate(168.86,329.77) rotate(-41.0)" width="8.48" height="9.48" rx="1.39"/>
<path fill="#fea598" d="
  M 339.60 325.88
  L 343.30 327.69
  L 367.22 337.97
  L 355.24 340.37
  Q 353.35 340.14 350.93 339.08
  Q 340.99 334.72 331.14 330.23
  L 339.60 325.88
  Z"
/>
<rect fill="#2a9ea8" x="-4.25" y="-4.81" transform="translate(187.46,332.06) rotate(-41.4)" width="8.50" height="9.62" rx="1.37"/>
<rect fill="#2a9ea8" x="-4.26" y="-4.76" transform="translate(206.08,334.37) rotate(-41.8)" width="8.52" height="9.52" rx="1.51"/>
<path fill="#f74b35" d="
  M 331.14 330.23
  Q 340.99 334.72 350.93 339.08
  Q 353.35 340.14 355.24 340.37
  Q 357.50 340.06 357.33 345.76
  Q 356.95 358.88 357.03 372.00
  Q 357.06 377.72 356.86 383.58
  L 351.86 384.45
  L 351.75 341.76
  Q 351.75 341.22 351.22 341.14
  L 347.06 340.45
  L 327.63 332.26
  L 331.14 330.23
  Z"
/>
<path fill="#fea598" d="
  M 327.63 332.26
  L 347.06 340.45
  Q 347.56 340.87 347.59 340.92
  Q 347.92 341.66 347.12 341.87
  C 343.90 342.72 339.14 343.68 336.25 342.40
  Q 330.11 339.67 323.86 337.25
  Q 322.52 336.19 320.50 335.97
  L 327.63 332.26
  Z"
/>
<path fill="#f74b35" d="
  M 320.50 335.97
  Q 322.52 336.19 323.86 337.25
  Q 323.82 338.09 323.00 338.15
  Q 322.52 338.18 322.08 338.41
  C 321.08 338.93 320.18 339.62 319.19 340.06
  Q 307.97 345.04 297.20 350.25
  A 1.48 1.40 29.4 0 1 296.60 350.40
  Q 295.74 350.43 295.44 351.08
  Q 295.11 351.80 295.89 351.65
  Q 298.41 351.17 300.77 350.70
  Q 311.54 348.58 322.14 346.69
  Q 325.03 346.17 328.35 345.75
  Q 331.64 345.33 334.93 344.19
  Q 336.25 343.74 337.46 343.92
  A 1.94 1.93 4.8 0 1 339.10 345.85
  Q 338.93 365.20 339.00 384.59
  Q 339.01 385.34 338.67 385.82
  Q 338.28 386.39 337.72 386.80
  Q 336.34 387.40 334.75 387.64
  Q 332.35 388.00 332.26 388.02
  Q 319.82 390.53 307.09 392.99
  Q 306.01 393.20 304.92 393.61
  Q 303.87 394.00 302.66 393.95
  Q 301.11 393.88 299.36 394.20
  Q 283.29 397.10 265.84 400.44
  L 245.91 404.16
  L 245.87 360.56
  Q 245.87 360.22 245.53 360.24
  Q 245.42 360.25 245.27 360.30
  Q 244.98 360.15 244.75 360.18
  Q 246.87 359.50 249.08 359.44
  Q 252.46 359.36 253.41 359.25
  Q 256.57 358.89 259.79 358.88
  L 274.40 360.71
  L 320.50 335.97
  Z"
/>
<path fill="#c73c2c" d="
  M 175.63 348.15
  L 197.07 357.89
  Q 197.00 358.06 196.95 358.18
  Q 196.82 358.47 196.49 358.46
  L 146.49 356.98
  A 0.32 0.32 0.0 0 0 146.19 357.44
  Q 146.38 357.83 146.98 358.09
  Q 165.21 366.07 180.88 373.29
  Q 181.89 373.76 181.84 374.87
  Q 181.26 388.42 180.98 402.38
  Q 180.97 402.48 180.44 408.84
  Q 180.14 412.29 180.72 416.15
  L 174.39 413.45
  L 112.52 383.59
  Q 112.09 383.38 111.74 383.04
  Q 111.20 382.50 110.56 382.22
  C 108.74 381.42 107.32 380.58 105.63 379.79
  Q 104.17 379.11 102.79 378.21
  Q 101.54 377.39 99.80 376.79
  Q 97.65 376.03 95.51 374.75
  Q 94.28 374.02 92.85 373.63
  Q 91.28 373.20 90.07 372.72
  Q 89.44 370.82 89.64 369.16
  Q 89.71 368.63 90.24 368.62
  L 91.84 368.61
  Q 91.29 369.10 92.50 369.69
  Q 134.15 389.68 175.84 409.74
  Q 176.46 410.03 176.48 409.35
  L 176.84 396.26
  L 177.34 377.34
  A 0.53 0.53 0.0 0 0 177.03 376.86
  L 92.62 338.48
  Q 91.67 338.00 90.94 337.12
  Q 91.98 337.42 92.82 337.06
  Q 93.27 336.87 93.74 336.99
  Q 94.26 337.14 94.78 337.23
  Q 99.76 338.12 104.41 338.80
  C 110.92 339.75 117.76 340.25 124.39 341.17
  Q 124.92 341.25 124.51 341.59
  Q 124.27 341.78 123.97 341.68
  A 0.04 0.04 0.0 0 1 123.98 341.61
  Q 125.00 341.56 125.98 341.71
  Q 138.17 343.52 151.81 344.75
  Q 154.27 344.98 156.80 345.55
  Q 159.45 346.16 162.03 346.18
  Q 166.74 346.21 170.55 346.87
  Q 173.93 347.46 175.63 348.15
  Z"
/>
<path fill="#ff7665" d="
  M 323.86 337.25
  Q 330.11 339.67 336.25 342.40
  C 339.14 343.68 343.90 342.72 347.12 341.87
  Q 347.92 341.66 347.59 340.92
  Q 347.56 340.87 347.06 340.45
  L 351.22 341.14
  Q 351.75 341.22 351.75 341.76
  L 351.86 384.45
  L 338.84 386.89
  Q 338.23 386.73 337.72 386.80
  Q 338.28 386.39 338.67 385.82
  Q 339.01 385.34 339.00 384.59
  Q 338.93 365.20 339.10 345.85
  A 1.94 1.93 4.8 0 0 337.46 343.92
  Q 336.25 343.74 334.93 344.19
  Q 331.64 345.33 328.35 345.75
  Q 325.03 346.17 322.14 346.69
  Q 311.54 348.58 300.77 350.70
  Q 298.41 351.17 295.89 351.65
  Q 295.11 351.80 295.44 351.08
  Q 295.74 350.43 296.60 350.40
  A 1.48 1.40 29.4 0 0 297.20 350.25
  Q 307.97 345.04 319.19 340.06
  C 320.18 339.62 321.08 338.93 322.08 338.41
  Q 322.52 338.18 323.00 338.15
  Q 323.82 338.09 323.86 337.25
  Z"
/>
<path fill="#ff7665" d="
  M 367.22 337.97
  Q 367.18 359.21 367.38 381.00
  Q 367.39 381.44 366.70 381.67
  L 356.86 383.58
  Q 357.06 377.72 357.03 372.00
  Q 356.95 358.88 357.33 345.76
  Q 357.50 340.06 355.24 340.37
  L 367.22 337.97
  Z"
/>
<path fill="#dab3a2" d="
  M 92.62 338.48
  L 177.03 376.86
  A 0.53 0.53 0.0 0 1 177.34 377.34
  L 176.84 396.26
  L 176.86 389.90
  Q 176.86 389.38 176.38 389.16
  L 92.81 350.15
  L 92.62 338.48
  Z"
/>
<path fill="#fea598" d="
  M 175.63 348.15
  L 192.54 350.03
  Q 203.57 353.83 214.46 359.17
  L 227.43 364.67
  Q 223.58 365.56 220.17 366.11
  Q 218.59 366.37 216.85 365.98
  Q 215.31 365.63 213.56 365.30
  L 197.07 357.89
  L 175.63 348.15
  Z"
/>
<path fill="#c73c2c" d="
  M 207.51 352.14
  L 221.09 358.49
  L 214.46 359.17
  Q 203.57 353.83 192.54 350.03
  Q 196.10 349.64 199.88 350.58
  Q 201.54 350.99 203.69 351.17
  Q 205.91 351.35 207.51 352.14
  Z"
/>
<path fill="#f8e1cc" d="
  M 92.81 350.15
  L 176.38 389.16
  Q 176.86 389.38 176.86 389.90
  L 176.84 396.26
  L 176.48 409.35
  Q 176.46 410.03 175.84 409.74
  Q 134.15 389.68 92.50 369.69
  Q 91.29 369.10 91.84 368.61
  L 92.81 350.15
  Z"
/>
<path fill="#fea598" d="
  M 207.51 352.14
  Q 219.14 353.72 229.75 354.86
  Q 231.66 355.07 233.82 355.90
  Q 238.41 358.34 242.89 359.84
  Q 243.71 360.12 244.75 360.18
  Q 244.98 360.15 245.27 360.30
  L 245.34 361.05
  Q 245.38 361.59 244.84 361.67
  L 232.13 363.51
  L 221.09 358.49
  L 207.51 352.14
  Z"
/>
<path fill="#c73c2c" d="
  M 259.79 358.88
  Q 256.57 358.89 253.41 359.25
  Q 252.46 359.36 249.08 359.44
  Q 246.87 359.50 244.75 360.18
  Q 243.71 360.12 242.89 359.84
  Q 238.41 358.34 233.82 355.90
  Q 238.76 355.78 243.44 356.50
  Q 251.25 357.70 251.61 357.74
  Q 255.71 358.23 259.79 358.88
  Z"
/>
<path fill="#f74b35" d="
  M 197.07 357.89
  L 213.56 365.30
  Q 216.27 366.59 216.98 368.26
  Q 217.14 368.64 217.15 372.28
  Q 217.17 385.71 217.20 399.13
  Q 217.21 404.36 216.59 409.44
  L 180.72 416.15
  Q 180.14 412.29 180.44 408.84
  Q 180.97 402.48 180.98 402.38
  Q 181.26 388.42 181.84 374.87
  Q 181.89 373.76 180.88 373.29
  Q 165.21 366.07 146.98 358.09
  Q 146.38 357.83 146.19 357.44
  A 0.32 0.32 0.0 0 1 146.49 356.98
  L 196.49 358.46
  Q 196.82 358.47 196.95 358.18
  Q 197.00 358.06 197.07 357.89
  Z"
/>
<path fill="#f74b35" d="
  M 221.09 358.49
  L 232.13 363.51
  Q 232.36 363.80 232.78 364.06
  Q 233.21 364.33 233.21 364.82
  Q 233.28 384.18 233.26 403.54
  Q 233.26 404.08 233.05 404.94
  Q 232.75 406.21 233.39 406.36
  L 230.48 407.47
  L 227.54 407.55
  L 227.43 364.67
  L 214.46 359.17
  L 221.09 358.49
  Z"
/>
<path fill="#ff7665" d="
  M 245.27 360.30
  Q 245.42 360.25 245.53 360.24
  Q 245.87 360.22 245.87 360.56
  L 245.91 404.16
  L 233.39 406.36
  Q 232.75 406.21 233.05 404.94
  Q 233.26 404.08 233.26 403.54
  Q 233.28 384.18 233.21 364.82
  Q 233.21 364.33 232.78 364.06
  Q 232.36 363.80 232.13 363.51
  L 244.84 361.67
  Q 245.38 361.59 245.34 361.05
  L 245.27 360.30
  Z"
/>
<path fill="#867dc0" d="
  M 402.33 364.51
  L 419.55 367.58
  Q 417.40 368.92 415.49 370.02
  C 411.87 372.12 407.74 373.49 404.01 375.37
  C 403.02 375.86 402.13 375.81 401.04 376.34
  Q 396.49 378.55 391.29 380.94
  Q 347.49 401.10 303.61 421.09
  Q 301.92 421.87 300.23 421.85
  L 273.24 416.59
  A 0.96 0.96 0.0 0 0 272.12 417.38
  Q 266.65 452.22 271.60 489.02
  A 1.06 1.06 0.0 0 1 270.09 490.12
  Q 268.29 489.25 266.39 489.18
  Q 264.64 489.12 264.41 487.38
  Q 259.69 451.66 265.32 415.95
  Q 265.46 415.08 264.59 414.89
  L 254.96 412.86
  L 287.46 405.11
  Q 291.14 406.19 294.51 406.76
  C 296.68 407.13 298.48 406.59 300.37 405.68
  Q 308.89 401.59 317.57 397.26
  Q 327.64 393.64 333.13 390.40
  Q 335.33 389.09 336.79 388.76
  Q 337.73 388.55 338.16 388.30
  Q 340.40 387.01 338.84 386.89
  L 351.86 384.45
  L 356.86 383.58
  L 366.70 381.67
  Q 367.19 381.91 367.73 381.74
  Q 371.26 380.60 374.82 380.06
  Q 377.96 379.59 381.10 378.77
  Q 384.09 377.99 387.59 377.70
  C 389.19 377.56 390.09 376.47 391.60 376.30
  Q 394.18 376.00 396.68 375.36
  C 398.24 374.96 399.61 375.45 401.01 374.58
  Q 401.50 374.27 401.62 373.70
  Q 401.84 372.72 402.12 371.75
  Q 402.41 370.78 402.40 369.69
  Q 402.36 367.12 402.33 364.51
  Z"
/>
<path fill="#ff7665" d="
  M 227.43 364.67
  L 227.54 407.55
  L 216.59 409.44
  Q 217.21 404.36 217.20 399.13
  Q 217.17 385.71 217.15 372.28
  Q 217.14 368.64 216.98 368.26
  Q 216.27 366.59 213.56 365.30
  Q 215.31 365.63 216.85 365.98
  Q 218.59 366.37 220.17 366.11
  Q 223.58 365.56 227.43 364.67
  Z"
/>
<path fill="#7467bb" d="
  M 419.55 367.58
  Q 421.96 367.49 420.67 372.02
  Q 420.54 372.50 420.10 372.74
  L 416.90 374.50
  Q 362.02 399.74 307.05 425.12
  Q 305.86 425.67 305.34 427.52
  Q 303.91 432.53 303.60 435.43
  Q 301.22 451.24 302.55 468.52
  Q 303.42 479.87 306.73 490.76
  A 0.47 0.47 0.0 0 0 307.38 491.05
  L 419.74 437.38
  Q 421.37 438.29 419.58 441.42
  Q 419.33 441.86 418.88 442.08
  L 303.08 497.18
  Q 301.10 492.46 300.15 488.87
  C 294.51 467.52 295.36 444.86 301.08 423.68
  Q 301.57 421.88 300.23 421.85
  Q 301.92 421.87 303.61 421.09
  Q 347.49 401.10 391.29 380.94
  Q 396.49 378.55 401.04 376.34
  C 402.13 375.81 403.02 375.86 404.01 375.37
  C 407.74 373.49 411.87 372.12 415.49 370.02
  Q 417.40 368.92 419.55 367.58
  Z"
/>
<path fill="#776297" d="
  M 90.07 372.72
  Q 91.28 373.20 92.85 373.63
  Q 94.28 374.02 95.51 374.75
  Q 97.65 376.03 99.80 376.79
  Q 101.54 377.39 102.79 378.21
  Q 104.17 379.11 105.63 379.79
  C 107.32 380.58 108.74 381.42 110.56 382.22
  Q 111.20 382.50 111.74 383.04
  Q 112.09 383.38 112.52 383.59
  L 174.39 413.45
  Q 170.70 413.19 167.91 411.43
  Q 164.41 409.23 163.75 408.91
  Q 161.53 407.85 159.39 406.65
  Q 158.46 406.13 157.25 405.78
  Q 156.20 405.47 155.22 404.97
  Q 149.42 401.98 142.66 398.70
  C 141.50 398.14 140.39 398.49 139.18 397.72
  Q 133.61 394.14 127.98 391.74
  Q 127.85 391.69 127.74 391.78
  Q 127.59 391.92 127.40 391.84
  Q 121.09 389.21 114.89 386.37
  Q 112.90 385.46 105.51 384.71
  Q 100.85 383.06 98.40 384.16
  Q 98.40 383.07 97.37 382.88
  Q 87.62 381.05 76.01 378.75
  L 90.07 372.72
  Z"
/>
<path fill="#dab3a2" d="
  M 416.90 374.50
  L 416.91 383.38
  Q 383.84 399.34 350.54 414.84
  Q 327.70 425.48 303.60 435.43
  Q 303.91 432.53 305.34 427.52
  Q 305.86 425.67 307.05 425.12
  Q 362.02 399.74 416.90 374.50
  Z"
/>
<path fill="#6052a7" d="
  M 76.01 378.75
  Q 87.62 381.05 97.37 382.88
  Q 98.40 383.07 98.40 384.16
  C 92.43 406.14 93.33 429.78 95.85 452.42
  Q 96.25 456.00 97.70 458.42
  Q 97.96 458.85 97.57 459.16
  Q 97.13 459.52 96.20 459.38
  Q 86.79 457.59 77.32 455.92
  C 75.97 455.68 75.27 455.14 74.80 453.92
  Q 73.75 451.19 72.91 448.82
  C 72.20 445.08 71.28 441.26 70.88 437.69
  Q 68.60 417.43 71.00 395.75
  Q 72.13 385.48 76.01 378.75
  Z"
/>
<path fill="#867dc0" d="
  M 105.51 384.71
  C 99.88 407.59 99.86 431.58 103.29 454.73
  Q 103.39 455.45 103.44 457.78
  Q 103.47 459.49 104.08 460.81
  L 96.20 459.38
  Q 97.13 459.52 97.57 459.16
  Q 97.96 458.85 97.70 458.42
  Q 96.25 456.00 95.85 452.42
  C 93.33 429.78 92.43 406.14 98.40 384.16
  Q 100.85 383.06 105.51 384.71
  Z"
/>
<path fill="#ffedd9" d="
  M 416.91 383.38
  Q 417.39 406.91 418.17 430.25
  Q 418.32 434.61 419.74 437.38
  L 307.38 491.05
  A 0.47 0.47 0.0 0 1 306.73 490.76
  Q 303.42 479.87 302.55 468.52
  Q 301.22 451.24 303.60 435.43
  Q 327.70 425.48 350.54 414.84
  Q 383.84 399.34 416.91 383.38
  Z"
/>
<path fill="#6052a7" d="
  M 105.51 384.71
  Q 112.90 385.46 114.89 386.37
  Q 121.09 389.21 127.40 391.84
  Q 127.59 391.92 127.74 391.78
  Q 127.85 391.69 127.98 391.74
  Q 133.61 394.14 139.18 397.72
  C 140.39 398.49 141.50 398.14 142.66 398.70
  Q 149.42 401.98 155.22 404.97
  Q 156.20 405.47 157.25 405.78
  Q 158.46 406.13 159.39 406.65
  Q 161.53 407.85 163.75 408.91
  Q 164.41 409.23 167.91 411.43
  Q 170.70 413.19 174.39 413.45
  L 180.72 416.15
  L 216.59 409.44
  L 227.54 407.55
  L 230.48 407.47
  Q 231.83 407.45 232.14 408.02
  Q 232.32 408.34 232.66 408.49
  Q 234.85 409.38 235.49 409.50
  Q 245.34 411.23 254.96 412.86
  L 264.59 414.89
  Q 265.46 415.08 265.32 415.95
  Q 259.69 451.66 264.41 487.38
  Q 264.64 489.12 266.39 489.18
  Q 268.29 489.25 270.09 490.12
  A 1.06 1.06 0.0 0 0 271.60 489.02
  Q 266.65 452.22 272.12 417.38
  A 0.96 0.96 0.0 0 1 273.24 416.59
  L 300.23 421.85
  Q 301.57 421.88 301.08 423.68
  C 295.36 444.86 294.51 467.52 300.15 488.87
  Q 301.10 492.46 303.08 497.18
  Q 301.13 497.23 300.77 497.59
  Q 300.74 497.44 300.69 497.34
  Q 300.61 497.13 300.38 497.08
  L 104.08 460.81
  Q 103.47 459.49 103.44 457.78
  Q 103.39 455.45 103.29 454.73
  C 99.86 431.58 99.88 407.59 105.51 384.71
  Z"
/>
<path fill="#554080" d="
  M 337.72 386.80
  Q 338.23 386.73 338.84 386.89
  Q 340.40 387.01 338.16 388.30
  Q 337.73 388.55 336.79 388.76
  Q 335.33 389.09 333.13 390.40
  Q 327.64 393.64 317.57 397.26
  Q 309.18 398.32 306.50 399.31
  Q 294.78 403.65 283.34 404.68
  Q 274.09 403.42 265.84 400.44
  Q 283.29 397.10 299.36 394.20
  Q 301.11 393.88 302.66 393.95
  Q 303.87 394.00 304.92 393.61
  Q 306.01 393.20 307.09 392.99
  Q 319.82 390.53 332.26 388.02
  Q 332.35 388.00 334.75 387.64
  Q 336.34 387.40 337.72 386.80
  Z"
/>
<path fill="#6052a7" d="
  M 317.57 397.26
  Q 308.89 401.59 300.37 405.68
  C 298.48 406.59 296.68 407.13 294.51 406.76
  Q 291.14 406.19 287.46 405.11
  Q 285.04 405.41 283.34 404.68
  Q 294.78 403.65 306.50 399.31
  Q 309.18 398.32 317.57 397.26
  Z"
/>
<path fill="#776297" d="
  M 265.84 400.44
  Q 274.09 403.42 283.34 404.68
  Q 285.04 405.41 287.46 405.11
  L 254.96 412.86
  Q 245.34 411.23 235.49 409.50
  Q 234.85 409.38 232.66 408.49
  Q 232.32 408.34 232.14 408.02
  Q 231.83 407.45 230.48 407.47
  L 233.39 406.36
  L 245.91 404.16
  L 265.84 400.44
  Z"
/>
<path fill="#f4eae9" d="
  M 72.91 448.82
  Q 73.75 451.19 74.80 453.92
  C 75.27 455.14 75.97 455.68 77.32 455.92
  Q 86.79 457.59 96.20 459.38
  L 104.08 460.81
  L 300.38 497.08
  Q 300.61 497.13 300.69 497.34
  Q 300.74 497.44 300.77 497.59
  Q 271.57 508.47 255.13 513.90
  Q 253.69 514.37 251.87 513.93
  C 244.53 512.15 237.01 511.13 229.71 509.73
  Q 154.63 495.28 75.97 480.58
  Q 55.47 476.74 33.71 472.60
  Q 26.09 471.15 18.63 469.83
  Q 17.66 469.66 17.28 469.39
  Q 16.39 468.75 17.43 468.39
  L 72.91 448.82
  Z"
/>
</svg>
