<?xml version="1.0" encoding="utf-8"?>
<!-- Generator: Adobe Illustrator 27.5.0, SVG Export Plug-In . SVG Version: 6.00 Build 0)  -->
<svg version="1.1" xmlns="http://www.w3.org/2000/svg" xmlns:xlink="http://www.w3.org/1999/xlink" x="0px" y="0px"
	 viewBox="0 0 3710 3710" style="enable-background:new 0 0 3710 3710;" xml:space="preserve">
<g id="Background">
	<g>
		<g>
			<rect style="fill:#FFFFFF;" width="3710" height="3710"/>
		</g>
	</g>
</g>
<g id="Illustration">
	<g>
		<path style="fill:#F4F7FA;" d="M728.118,973.943c42.69-58.433,408.16-541.648,1000.568-518.111
			c29.602,1.176,607.36,31.688,820.463,410.47c157.638,280.195-9.254,528.799,183.053,719.703
			c167.564,166.342,373.494,56.24,476.467,190.751c156.854,204.9-92.939,758.282-476.732,1066.898
			c-396.291,318.667-1154.442,552.453-1743.706,127.29C326.653,2493.61,333.367,1514.263,728.118,973.943z"/>
		<g>
			<g>
				<g>
					<defs>
						<path id="SVGID_1_" d="M1560.045,1796.019c-64.212-60.257-148.941-158.121-187.281-296.496
							c-50.282-181.476,23.402-273.183,15.093-580.428c-5.254-194.268-10.877-329.791-108.817-402.279
							c-76.75-56.805-201.003-68.098-276.413-15.446c-62.701,43.779-98.975,136.893-110.044,203.357
							c-9.021,54.169-1.776,93.499-33.001,122.034c-31.911,29.162-66.36,12.652-96.199,34.251
							c-60.512,43.802-25.474,188.896-19.811,212.345c62.993,260.852,303.346,436.779,409.113,512.256
							C1240.137,1648.022,1375.421,1731.183,1560.045,1796.019z"/>
					</defs>
					
						<linearGradient id="SVGID_00000085251765360412220210000001250398316942641297_" gradientUnits="userSpaceOnUse" x1="728.3546" y1="1131.7292" x2="1560.0447" y2="1131.7292">
						<stop  offset="0" style="stop-color:#FF9085"/>
						<stop  offset="1" style="stop-color:#FB6FBB"/>
					</linearGradient>
					
						<use xlink:href="#SVGID_1_"  style="overflow:visible;opacity:0.7;fill:url(#SVGID_00000085251765360412220210000001250398316942641297_);"/>
					<clipPath id="SVGID_00000102503500054371227290000018303301073806749600_">
						<use xlink:href="#SVGID_1_"  style="overflow:visible;opacity:0.7;"/>
					</clipPath>
					<g style="opacity:0.5;clip-path:url(#SVGID_00000102503500054371227290000018303301073806749600_);">
						<path style="fill:#FFFFFF;" d="M1633.157,1844.924c-112.028-42.569-208.456-93.357-286.605-150.948
							c-115.758-85.309-187.861-183.335-214.309-291.358c-20.679-84.454-13.018-175.89-3.316-291.653
							c8.041-95.966,22.381-163.18,35.032-222.48c16.371-76.739,29.302-137.352,20.334-224.94
							c-9.112-89.006-38.478-177.521-87.279-263.086l5.956-3.398c49.277,86.401,78.934,175.823,88.143,265.784
							c9.08,88.662-3.951,149.742-20.449,227.071c-12.608,59.101-26.899,126.087-34.903,221.608
							c-10.026,119.653-17.27,206.097,3.142,289.463c55.508,226.717,300.74,363.067,496.691,437.528L1633.157,1844.924z"/>
						<path style="fill:#FFFFFF;" d="M1137.787,1045.053l-1.107-3.712c-51.624-173.288-144.316-281.7-212.983-342.13
							c-74.315-65.401-137.062-90.132-137.689-90.373l2.478-6.395c0.636,0.248,64.522,25.425,139.741,91.62
							c68.838,60.583,161.573,168.872,213.88,341.509c14.091-6.832,68.314-35.198,122.558-91.09
							c57.814-59.57,127.51-163.548,131.226-320.605l6.854,0.161c-3.77,159.412-74.605,264.957-133.363,325.428
							c-63.666,65.521-127.41,93.76-128.046,94.038L1137.787,1045.053z"/>
						<path style="fill:#FFFFFF;" d="M1124.224,1303.718l-2.392-0.701c-84.603-24.83-180.556-122.091-285.194-289.078
							C758.912,889.899,705.2,771.566,704.668,770.386l6.248-2.823c2.116,4.681,212.98,467.015,410.486,528.16
							c9.852-14.109,69.181-97.585,143.846-170.844c82.011-80.469,266.786-107.389,274.61-108.496l0.961,6.79
							c-1.895,0.268-190.376,27.718-270.77,106.6c-80.975,79.45-143.794,170.97-144.42,171.885L1124.224,1303.718z"/>
						<path style="fill:#FFFFFF;" d="M1317.469,1670.814l-6.785-0.807c-0.944-0.112-95.93-11.747-219.956-54.993
							c-114.505-39.924-277.977-115.743-406.501-250.214l-247.89-259.361l4.959-4.738l247.89,259.361
							c127.533,133.436,289.888,208.741,403.63,248.417c104.489,36.449,188.191,50.329,211.922,53.791
							c-47.417-87.254-38.623-182.181,25.601-274.984c49.389-71.367,114.85-116.968,115.507-117.422l3.894,5.645
							c-0.646,0.445-65.203,45.445-113.866,115.83c-64.912,93.887-72.251,185.923-21.812,273.551L1317.469,1670.814z"/>
					</g>
				</g>
			</g>
			<g>
				<g>
					<defs>
						<path id="SVGID_00000017512961389707837050000004329237046387370914_" d="M1746.913,2278.874
							c-200.004,29.405-458.985,38.328-718.915-37.985c-66.335-19.475-476.119-139.783-455.199-321.675
							c7.369-64.072,61.958-81.674,73.307-167.167c13.449-101.301-54.586-141.427-114.041-256.998
							c-35.477-68.961-139.302-270.775-28.636-406.077c66.131-80.852,205.863-134.296,319.359-124.038
							c166.474,15.046,243.881,164.191,370.49,418.813c112.234,225.713,100.066,286.684,183.721,447.807
							C1439.086,1951.134,1547.069,2112.62,1746.913,2278.874z"/>
					</defs>
					
						<linearGradient id="SVGID_00000023959886123587995570000001052429060571155337_" gradientUnits="userSpaceOnUse" x1="1327.6171" y1="1124.1145" x2="995.4858" y2="2015.6262">
						<stop  offset="0" style="stop-color:#FF9085"/>
						<stop  offset="1" style="stop-color:#FB6FBB"/>
					</linearGradient>
					
						<use xlink:href="#SVGID_00000017512961389707837050000004329237046387370914_"  style="overflow:visible;opacity:0.7;fill:url(#SVGID_00000023959886123587995570000001052429060571155337_);"/>
					<clipPath id="SVGID_00000073710771624249453060000018357379030273236402_">
						<use xlink:href="#SVGID_00000017512961389707837050000004329237046387370914_"  style="overflow:visible;opacity:0.7;"/>
					</clipPath>
					<g style="opacity:0.5;clip-path:url(#SVGID_00000073710771624249453060000018357379030273236402_);">
						<path style="fill:#FFFFFF;" d="M2093.97,2328.389c-39.005,0.002-77.899-1.892-116.648-5.683
							c-279.216-27.316-536.066-156.189-763.414-383.036c-236.354-235.831-381.643-518.549-461.906-714.194
							c-55.908-136.284-70.89-293.621-44.525-467.641l6.78,1.028c-26.176,172.774-11.344,328.89,44.089,464.012
							c97.626,237.966,474.1,1020.066,1219.643,1093.007c38.511,3.768,77.2,5.648,115.969,5.65
							c171.002,0.005,344.121-36.577,516.217-109.222l2.665,6.318C2439.906,2291.628,2265.875,2328.389,2093.97,2328.389z"/>
						<path style="fill:#FFFFFF;" d="M950.991,1605.654l-2.796-1.299c-470.519-218.571-511.079-540.047-512.303-633.368
							c-0.025-1.867-0.029-3.072-0.087-3.574l6.785-0.991c0.104,0.685,0.121,1.684,0.157,4.475
							c1.209,92.124,41.263,409.063,505.5,625.918c8.28-14.503,47.943-86.878,74.936-187.478
							c27.753-103.428,47.412-258.735-16.542-411.256l6.325-2.652c64.733,154.381,44.858,311.37,16.786,415.883
							c-30.387,113.138-76.709,190.928-77.175,191.7L950.991,1605.654z"/>
						<path style="fill:#FFFFFF;" d="M926.18,1980.821c-109.989,0-195.087-21.798-255.818-46.118
							c-115.04-46.068-170.021-111.05-170.563-111.701l5.268-4.388c0.534,0.64,54.666,64.502,168.261,109.89
							c104.642,41.807,282.539,76.031,536.325,2.031c6.83-23.298,76.572-274.779,8.203-589.051l-72.484-333.176l6.7-1.456
							l72.484,333.176c71.844,330.242-8.066,591.698-8.881,594.299l-0.547,1.749l-1.76,0.516
							C1103.753,1968.728,1008.061,1980.821,926.18,1980.821z"/>
					</g>
				</g>
			</g>
		</g>
		<g>
			<g>
				<path style="fill:#97A6B7;" d="M2995.246,1242.065l-60.967,0.105c-4.2-40.272-13.882-78.931-28.289-115.25l51.548-29.894
					c14.088-8.17,18.905-26.597,10.785-41.2l-21.662-38.954c-8.17-14.693-26.314-20.089-40.55-12.009l-50.907,28.892
					c-23.693-33.201-51.97-63.137-83.999-88.884l29.28-50.297c8.402-14.432,3.417-33.424-11.158-42.467l-38.969-24.179
					c-14.732-9.14-33.634-4.82-42.192,9.697l-29.347,49.783c-37.708-17.564-78.454-30.234-121.432-37.031v-59.035
					c0-17.416-14.326-32.188-32.055-32.997l-47.447-2.165c-17.956-0.819-32.558,12.788-32.558,30.395v59.684
					c-44.302,3.691-87.01,13.65-127.159,29.06l-31.672-53.957c-9.307-15.856-29.979-22.004-46.202-13.684l-43.39,22.254
					c-16.408,8.416-22.042,28.218-12.552,44.182l32.816,55.203c-35.917,25.393-68.026,55.791-95.223,90.259l-59.357-33.583
					c-16.829-9.521-38.424-4.585-48.204,11.078l-26.094,41.794c-9.845,15.768-4,36.23,13.022,45.65l61.42,33.989
					c-17.03,39.221-28.534,81.264-33.539,125.224l-73.675,0.127c-19.828,0.034-35.956,15.063-35.956,33.568v49.211
					c0,18.505,16.127,33.305,35.956,33.058l75.631-0.941c6.385,42.931,18.997,83.802,36.918,121.745l-66.756,37.887
					c-17.022,9.661-22.867,30.205-13.022,45.834l26.094,41.425c9.78,15.525,31.375,20.155,48.204,10.395l67.52-39.157
					c26.978,31.908,58.354,59.944,93.171,83.279l-38.927,66.033c-9.49,16.098-3.856,35.821,12.552,44.004l43.389,21.639
					c16.223,8.091,36.896,1.65,46.203-14.338l38.606-66.317c38.121,13.446,78.465,21.979,120.225,24.925v73.929
					c0,17.607,14.602,31.007,32.558,29.934l47.447-2.837c17.728-1.06,32.055-16.035,32.055-33.451v-73.126
					c40.531-6.928,79.077-19.054,114.961-35.546l35.819,60.253c8.558,14.396,27.459,18.448,42.192,9.099l38.969-24.73
					c14.575-9.249,19.559-28.313,11.158-42.625l-34.771-59.237c31.124-24.631,58.832-53.125,82.404-84.641l57.993,32.093
					c14.236,7.878,32.379,2.225,40.55-12.583l21.662-39.262c8.121-14.719,3.303-33.077-10.785-41.047l-56.08-31.728
					c15.188-35.629,25.817-73.558,31.18-113.066l62.608-0.779c16.139-0.201,29.182-13.835,29.182-30.453v-44.195
					C3024.428,1255.487,3011.384,1242.038,2995.246,1242.065z M2501.664,1605.88c-180.403,6.694-331.373-133.317-331.373-312.941
					c0-179.624,150.97-321.565,331.373-317.176c174.272,4.239,311.261,144.348,311.261,313.069
					C2812.924,1457.554,2675.936,1599.413,2501.664,1605.88z"/>
				<polygon style="fill:#97A6B7;" points="2299.801,805.364 2256.378,803.866 2241.404,842.797 				"/>
				<polygon style="fill:#97A6B7;" points="2730.376,823.332 2780.448,823.831 2780.448,860.766 				"/>
				<polygon style="fill:#97A6B7;" points="2921.198,1001.496 2971.11,1003.512 2958.632,1031.463 				"/>
				<polygon style="fill:#97A6B7;" points="2999.559,1242.588 3049.97,1246.581 3033.499,1271.037 				"/>
				<polygon style="fill:#97A6B7;" points="2915.708,1588.474 2964.621,1595.462 2970.611,1555.533 				"/>
				<polygon style="fill:#97A6B7;" points="2728.54,1768.655 2772.462,1776.641 2775.956,1744.198 				"/>
				<polygon style="fill:#97A6B7;" points="2508.93,1846.516 2469.5,1839.529 2503.439,1789.118 				"/>
				<polygon style="fill:#97A6B7;" points="2295.309,1804.092 2249.39,1794.609 2284.827,1751.685 				"/>
				<polygon style="fill:#97A6B7;" points="2037.267,981.551 2085.182,983.049 2066.215,1017.987 				"/>
				<polygon style="fill:#97A6B7;" points="1941.936,1357.384 1985.858,1363.873 1982.364,1327.937 				"/>
				<polygon style="fill:#97A6B7;" points="2036.268,1620.418 2079.192,1627.405 2082.686,1598.956 				"/>
			</g>
			<path style="fill:#D8DEE8;" d="M3044.503,1246.024l-61.473,0.106c-4.234-40.6-13.997-79.574-28.523-116.188l51.976-30.138
				c14.204-8.237,19.062-26.813,10.874-41.536l-21.841-39.272c-8.238-14.812-26.531-20.252-40.885-12.107l-51.329,29.128
				c-23.889-33.472-52.401-63.651-84.695-89.609l29.523-50.707c8.471-14.549,3.446-33.696-11.25-42.813l-39.292-24.375
				c-14.854-9.215-33.913-4.859-42.542,9.776l-29.59,50.188c-38.02-17.707-79.105-30.481-122.439-37.332v-59.516
				c0-17.558-14.445-32.45-32.321-33.266l-47.84-2.183c-18.104-0.826-32.827,12.892-32.827,30.643v60.17
				c-44.67,3.721-87.732,13.761-128.213,29.297l-31.935-54.397c-9.384-15.985-30.228-22.183-46.585-13.795l-43.749,22.435
				c-16.544,8.484-22.224,28.448-12.656,44.542l33.088,55.652c-36.215,25.599-68.59,56.246-96.012,90.995l-59.849-33.856
				c-16.968-9.599-38.743-4.622-48.604,11.169l-26.311,42.134c-9.927,15.896-4.033,36.525,13.13,46.022l61.929,34.266
				c-17.172,39.541-28.771,81.926-33.817,126.244l-74.285,0.128c-19.993,0.034-36.254,15.186-36.254,33.841v49.612
				c0,18.655,16.261,33.576,36.254,33.327l76.258-0.949c6.438,43.281,19.154,84.484,37.224,122.737l-67.309,38.196
				c-17.163,9.74-23.056,30.452-13.13,46.208l26.311,41.762c9.861,15.651,31.635,20.319,48.604,10.48l68.079-39.476
				c27.201,32.168,58.838,60.432,93.944,83.957l-39.249,66.571c-9.569,16.229-3.888,36.113,12.656,44.363l43.749,21.815
				c16.358,8.157,37.201,1.663,46.585-14.455l38.926-66.857c38.438,13.555,79.115,22.158,121.222,25.128v74.532
				c0,17.75,14.723,31.26,32.827,30.177l47.84-2.86c17.875-1.069,32.321-16.165,32.321-33.723v-73.722
				c40.867-6.984,79.732-19.209,115.914-35.836l36.115,60.744c8.629,14.513,27.687,18.599,42.542,9.173l39.293-24.932
				c14.696-9.325,19.721-28.543,11.25-42.973l-35.059-59.72c31.382-24.831,59.32-53.558,83.087-85.33l58.474,32.354
				c14.354,7.942,32.648,2.243,40.885-12.686l21.841-39.582c8.188-14.838,3.331-33.346-10.874-41.381l-56.545-31.987
				c15.313-35.92,26.031-74.157,31.438-113.987l63.127-0.785c16.272-0.203,29.425-13.948,29.425-30.701v-44.555
				C3073.927,1259.555,3060.775,1245.996,3044.503,1246.024z M2546.83,1612.803c-181.898,6.749-334.119-134.403-334.119-315.491
				c0-181.087,152.221-324.185,334.119-319.76c175.717,4.274,313.841,145.524,313.841,315.62
				C2860.671,1463.269,2722.547,1606.283,2546.83,1612.803z"/>
		</g>
		<g>
			<g>
				<g>
					<g>
						
							<linearGradient id="SVGID_00000064329196706919356310000004011186808233675397_" gradientUnits="userSpaceOnUse" x1="1874.3597" y1="1731.5669" x2="1435.1862" y2="1779.4764">
							<stop  offset="0" style="stop-color:#444B8C"/>
							<stop  offset="0.9964" style="stop-color:#26264F"/>
						</linearGradient>
						<path style="fill:url(#SVGID_00000064329196706919356310000004011186808233675397_);" d="M2398.755,625.086l267.552,2223.841
							c4.01,33.343-18.97,63.233-51.163,66.428l-1114.389,122.344c-68.267,4.246-105.645-30.631-109.857-66.087L1109.999,607.297
							c-4.189-35.258,29.303-67.189,97.86-67.19l1124.528,23.685C2364.941,564.337,2394.764,591.918,2398.755,625.086z"/>
						
							<linearGradient id="SVGID_00000016788892717403955870000008916140725272152449_" gradientUnits="userSpaceOnUse" x1="2261.313" y1="624.5425" x2="1175.3641" y2="4321.5688">
							<stop  offset="0" style="stop-color:#444B8C"/>
							<stop  offset="0.9964" style="stop-color:#26264F"/>
						</linearGradient>
						<path style="fill:url(#SVGID_00000016788892717403955870000008916140725272152449_);" d="M2448.91,621.259l269.021,2234.965
							c4.034,33.511-19.026,63.556-51.337,66.773l-1155.309,115.024c-36.221,3.605-69.415-22.597-73.651-58.236L1155.157,603.253
							c-4.212-35.44,22.392-63.927,59.009-63.31l1168.115,19.71C2414.957,560.203,2444.897,587.925,2448.91,621.259z"/>
						
							<linearGradient id="SVGID_00000147918820760597538440000012770961174685957805_" gradientUnits="userSpaceOnUse" x1="1065.9175" y1="4710.3472" x2="2141.6528" y2="1116.9425">
							<stop  offset="0.0036" style="stop-color:#F36F56"/>
							<stop  offset="1" style="stop-color:#FFC444"/>
						</linearGradient>
						<path style="fill:url(#SVGID_00000147918820760597538440000012770961174685957805_);" d="M2426.988,744.538l249.348,2072.256
							c3.767,31.308-17.828,59.325-48.073,62.265l-1086.529,105.619c-33.672,3.273-64.528-21.185-68.473-54.358L1212.212,734.954
							c-3.924-33.001,20.774-59.703,54.786-59.341l1097.68,11.689C2395.237,687.628,2423.239,713.382,2426.988,744.538z"/>
						
							<linearGradient id="SVGID_00000080895320975919753750000014708056203387410588_" gradientUnits="userSpaceOnUse" x1="1854.3822" y1="533.4819" x2="578.1012" y2="3990.0759">
							<stop  offset="0" style="stop-color:#311944"/>
							<stop  offset="1" style="stop-color:#893976"/>
						</linearGradient>
						<path style="fill:url(#SVGID_00000080895320975919753750000014708056203387410588_);" d="M1844.334,619.724
							c1.424,11.898-7.114,21.421-19.083,21.27c-11.983-0.15-22.862-9.938-24.288-21.859c-1.427-11.922,7.144-21.444,19.128-21.269
							C1832.062,598.041,1842.911,607.826,1844.334,619.724z"/>
						<g style="opacity:0.5;">
							<path style="fill:#FFFFFF;" d="M2239.137,2135.566c-222.437-411.253-554.723-534.352-654.766-958.194
								c-54.078-229.103-17.233-448.385,44.822-630.426l-415.027-7.003c-36.617-0.617-63.22,27.87-59.008,63.31l282.476,2376.533
								c4.236,35.639,37.429,61.842,73.652,58.235l908.185-90.42C2426.187,2579.102,2338.29,2318.885,2239.137,2135.566z"/>
						</g>
					</g>
				</g>
			</g>
			<g>
				
					<linearGradient id="SVGID_00000108287631343422856780000008062131714486028219_" gradientUnits="userSpaceOnUse" x1="1276.6077" y1="6157.249" x2="1452.9587" y2="1257.2804" gradientTransform="matrix(1 0 0.1368 0.9896 233.6808 -18.2519)">
					<stop  offset="0" style="stop-color:#AA80F9"/>
					<stop  offset="0.9964" style="stop-color:#6165D7"/>
				</linearGradient>
				<path style="fill:url(#SVGID_00000108287631343422856780000008062131714486028219_);" d="M2207.521,1223.632l49.793,360.223
					c5.38,38.92-13.814,74.945-51.365,104.378c-9,7.044-18.892,13.74-29.906,19.983c-60.049,34.177-148.278,55.45-249.314,55.45
					c-101.036,0-195.23-21.273-264.727-55.45c-65.749-32.293-109.418-76.095-116.09-124.361l-49.793-360.223H2207.521z"/>
				
					<linearGradient id="SVGID_00000182517149448239992400000011640963253134534035_" gradientUnits="userSpaceOnUse" x1="1405.7023" y1="1799.624" x2="1418.5786" y2="1441.8529" gradientTransform="matrix(1 0 0.1368 0.9896 233.6808 -18.2519)">
					<stop  offset="0" style="stop-color:#AA80F9"/>
					<stop  offset="0.9964" style="stop-color:#6165D7"/>
				</linearGradient>
				<path style="opacity:0.3;fill:url(#SVGID_00000182517149448239992400000011640963253134534035_);" d="M2206.233,1688.233
					c-9,7.044-19.034,13.74-30.048,19.983c-60.049,34.177-148.349,55.45-249.385,55.45s-195.266-21.273-264.763-55.45
					c-65.749-32.293-109.454-76.095-116.126-124.361l-25.838-186.925c53.832,21.831,129.712,64.587,152.372,133.672
					c35.454,108.11,190.668,144.727,336.575,120.315C2073.291,1640.142,2144.48,1657.056,2206.233,1688.233z"/>
				
					<linearGradient id="SVGID_00000181083249880952509670000001247976658666490524_" gradientUnits="userSpaceOnUse" x1="1509.2012" y1="900.8759" x2="1435.4917" y2="1450.7694" gradientTransform="matrix(1 0 0.1368 0.9896 233.6808 -18.2519)">
					<stop  offset="0" style="stop-color:#AA80F9"/>
					<stop  offset="0.9964" style="stop-color:#6165D7"/>
				</linearGradient>
				<polygon style="fill:url(#SVGID_00000181083249880952509670000001247976658666490524_);" points="2399.024,1257.155 
					1829.018,996.216 1331.151,1257.155 1311.045,1257.155 1312.219,1265.648 1312.219,1265.648 1905.306,1537.05 
					2423.361,1265.648 2423.361,1265.648 2422.188,1257.155 				"/>
				
					<linearGradient id="SVGID_00000008843659990232995890000003366784541553498298_" gradientUnits="userSpaceOnUse" x1="1497.7748" y1="744.5041" x2="1401.4508" y2="1968.5264" gradientTransform="matrix(1 0 0.1368 0.9896 233.6808 -18.2519)">
					<stop  offset="0" style="stop-color:#AA80F9"/>
					<stop  offset="0.9964" style="stop-color:#6165D7"/>
				</linearGradient>
				<polygon style="fill:url(#SVGID_00000008843659990232995890000003366784541553498298_);" points="1827.3,983.784 
					1309.471,1255.186 1902.331,1526.587 2420.159,1255.186 				"/>
				<g>
					
						<linearGradient id="SVGID_00000003062814464982861280000016428050490378561696_" gradientUnits="userSpaceOnUse" x1="2051.3625" y1="913.2221" x2="1403.7924" y2="2039.5497" gradientTransform="matrix(1 0 0.1368 0.9896 233.6808 -18.2519)">
						<stop  offset="0" style="stop-color:#FF9085"/>
						<stop  offset="1" style="stop-color:#FB6FBB"/>
					</linearGradient>
					<path style="fill:url(#SVGID_00000003062814464982861280000016428050490378561696_);" d="M2468.918,1631.987
						c-4.073,0-8.921-3.267-9.478-7.298l-49.176-355.756c-1.112-8.048-6.551-15.13-14.683-15.13h-530.958
						c-4.073,0-7.744-2.675-8.301-6.705c-0.557-4.03,2.375-6.705,6.448-6.705h530.958c16.265,0,31.25,12.444,33.475,28.539
						l49.176,355.756C2476.936,1628.719,2472.991,1631.987,2468.918,1631.987z"/>
				</g>
				
					<linearGradient id="SVGID_00000007422413263464172440000013140271809044471957_" gradientUnits="userSpaceOnUse" x1="1980.4669" y1="1925.2874" x2="2022.8503" y2="1529.0944" gradientTransform="matrix(1 0 0.1368 0.9896 233.6808 -18.2519)">
					<stop  offset="0" style="stop-color:#FF9085"/>
					<stop  offset="1" style="stop-color:#FB6FBB"/>
				</linearGradient>
				<path style="fill:url(#SVGID_00000007422413263464172440000013140271809044471957_);" d="M2479.116,1567.334l-8.022-11.047
					c-2.979-4.19-7.938-6.749-12.793-6.671c-4.856,0.078-8.959,2.781-10.631,7.045l-4.234,11.498
					c-1.089,2.779-1.16,5.87-0.726,9.007l13.378,96.781c0.287,2.078,9.646,3.763,20.846,3.763s20.093-1.685,19.806-3.763
					l-13.416-97.054C2482.859,1573.543,2481.188,1570.25,2479.116,1567.334z"/>
			</g>
			<path style="fill:#FFFFFF;" d="M1816.422,1389.678l-35.983-267.759c-2.317-17.242,10.059-28.802,23.052-21.572l229.752,127.833
				c14.207,7.905,17.455,32.577,5.438,41.268l-193.724,140.112C1834.036,1417.46,1818.725,1406.813,1816.422,1389.678z"/>
		</g>
		<g>
			
				<linearGradient id="SVGID_00000161600156153213531220000004147303902387690377_" gradientUnits="userSpaceOnUse" x1="578.2588" y1="2557.657" x2="2194.1182" y2="2557.657">
				<stop  offset="0" style="stop-color:#FF9085"/>
				<stop  offset="1" style="stop-color:#FB6FBB"/>
			</linearGradient>
			<polygon style="fill:url(#SVGID_00000161600156153213531220000004147303902387690377_);" points="578.259,2481.877 
				1329.062,2449.233 2194.118,2479.545 1340.721,2666.081 			"/>
			<g>
				
					<linearGradient id="SVGID_00000039132952314848160800000011441224498772384672_" gradientUnits="userSpaceOnUse" x1="757.1781" y1="3198.2847" x2="888.8974" y2="2898.687">
					<stop  offset="0" style="stop-color:#AA80F9"/>
					<stop  offset="0.9964" style="stop-color:#6165D7"/>
				</linearGradient>
				<path style="fill:url(#SVGID_00000039132952314848160800000011441224498772384672_);" d="M1183.193,3205.375l-608.164-163.681
					c-61.248-16.484-108.835-77.169-108.835-136.02v-0.647c0-58.85,47.586-98.334,108.835-87.531l652.286,106.743L1183.193,3205.375
					z"/>
				<g>
					
						<linearGradient id="SVGID_00000041277391553805769630000005866298719143237266_" gradientUnits="userSpaceOnUse" x1="1100.3466" y1="3026.4353" x2="2195.1604" y2="3026.4353">
						<stop  offset="0.494" style="stop-color:#EBEFF2"/>
						<stop  offset="1" style="stop-color:#FFFFFF"/>
					</linearGradient>
					<path style="fill:url(#SVGID_00000041277391553805769630000005866298719143237266_);" d="M2195.16,3082.455l-982.665,109.74
						c-61.548,6.873-112.149-36.047-112.149-95.963v-40.646c0-59.916,50.601-112.515,112.149-117.414l982.665-78.219
						C2151.677,2940.903,2141.645,3016.635,2195.16,3082.455z"/>
					
						<linearGradient id="SVGID_00000031165142414347095740000008817181855445807762_" gradientUnits="userSpaceOnUse" x1="1073.9263" y1="3026.9531" x2="2214.4148" y2="3026.9531">
						<stop  offset="0" style="stop-color:#AA80F9"/>
						<stop  offset="0.9964" style="stop-color:#6165D7"/>
					</linearGradient>
					<path style="fill:url(#SVGID_00000031165142414347095740000008817181855445807762_);" d="M2203.713,3093.352l-982.983,111.457
						c-80.279,9.103-146.803-47.126-146.803-125.512v-0.862c0-78.386,66.524-147.345,146.803-153.607l982.983-76.667
						c5.915-0.461,10.702,4.463,10.702,10.999s-4.788,12.224-10.702,12.705l-982.983,80.031
						c-64.583,5.258-117.908,60.819-117.908,123.776v0.858c0,62.957,53.325,108.313,117.908,101.211l982.983-108.094
						c5.915-0.65,10.702,4.122,10.702,10.657C2214.415,3086.84,2209.627,3092.681,2203.713,3093.352z"/>
				</g>
			</g>
			<g>
				
					<linearGradient id="SVGID_00000023243650268524970720000013065032787934206121_" gradientUnits="userSpaceOnUse" x1="948.3944" y1="2390.4524" x2="717.4706" y2="3168.303">
					<stop  offset="0" style="stop-color:#FF9085"/>
					<stop  offset="1" style="stop-color:#FB6FBB"/>
				</linearGradient>
				<path style="fill:url(#SVGID_00000023243650268524970720000013065032787934206121_);" d="M1208.743,2924.9l-633.714-107.402
					c-61.248-10.804-108.835-91.087-108.835-179.452v-0.971c0-88.365,47.586-158.486,108.835-156.211l672.246,24.971
					L1208.743,2924.9z"/>
				<g>
					
						<linearGradient id="SVGID_00000139974342601740818120000012617122955286965145_" gradientUnits="userSpaceOnUse" x1="1100.3466" y1="2699.1919" x2="2195.1604" y2="2699.1919">
						<stop  offset="0.494" style="stop-color:#EBEFF2"/>
						<stop  offset="1" style="stop-color:#FFFFFF"/>
					</linearGradient>
					<path style="fill:url(#SVGID_00000139974342601740818120000012617122955286965145_);" d="M2195.16,2831.01l-927.592,69.964
						c-91.483,6.9-167.222-60.318-167.222-150.281v-61.031c0-89.964,75.739-164.959,167.222-167.453l927.592-25.288
						C2151.537,2618.22,2141.786,2731.804,2195.16,2831.01z"/>
					
						<linearGradient id="SVGID_00000032641250632715099120000000827016773431292593_" gradientUnits="userSpaceOnUse" x1="1073.9263" y1="2702.5688" x2="2214.4148" y2="2702.5688">
						<stop  offset="0" style="stop-color:#FF9085"/>
						<stop  offset="1" style="stop-color:#FB6FBB"/>
					</linearGradient>
					<path style="fill:url(#SVGID_00000032641250632715099120000000827016773431292593_);" d="M2203.713,2848.161l-982.983,76.667
						c-80.279,6.262-146.803-84.303-146.803-202v-1.293c0-117.697,66.524-215.104,146.803-217.099l982.983-24.431
						c5.915-0.147,10.702,7.689,10.702,17.503c0,9.813-4.788,17.912-10.702,18.09l-982.983,29.48
						c-64.583,1.937-117.908,80.442-117.908,174.973v1.289c0,94.53,53.325,167.552,117.908,162.846l982.983-71.617
						c5.915-0.431,10.702,7.176,10.702,16.989C2214.415,2839.371,2209.627,2847.7,2203.713,2848.161z"/>
				</g>
			</g>
			<path style="opacity:0.5;fill:#FFFFFF;" d="M1012.229,2836.343l-135.46-23.673c-31.63-86.336-29.253-165.645,0-260.435
				l135.46,9.63C984.465,2661.613,988.668,2751.963,1012.229,2836.343z"/>
		</g>
		<g>
			
				<linearGradient id="SVGID_00000150813888997218328360000004639498125553269181_" gradientUnits="userSpaceOnUse" x1="743.9036" y1="2069.1172" x2="1456.7893" y2="2069.1172">
				<stop  offset="0.494" style="stop-color:#EBEFF2"/>
				<stop  offset="1" style="stop-color:#FFFFFF"/>
			</linearGradient>
			<path style="fill:url(#SVGID_00000150813888997218328360000004639498125553269181_);" d="M1177.226,1880.408v-237.041h-153.76
				v237.041c0,23.087-14.458,43.724-36.183,51.537c-141.434,50.866-243.38,190.444-243.38,319.093
				c0,160.965,159.585,243.83,356.443,243.83s356.443-82.865,356.443-243.83c0-128.649-101.946-268.227-243.38-319.093
				C1191.684,1924.132,1177.226,1903.495,1177.226,1880.408z"/>
			
				<linearGradient id="SVGID_00000141437464083439091590000012588623194691627138_" gradientUnits="userSpaceOnUse" x1="769.445" y1="2307.3281" x2="1431.2479" y2="2307.3281">
				<stop  offset="0" style="stop-color:#AA80F9"/>
				<stop  offset="0.9964" style="stop-color:#6165D7"/>
			</linearGradient>
			<path style="fill:url(#SVGID_00000141437464083439091590000012588623194691627138_);" d="M804.927,2139.59
				c-22.686,31.327-35.482,66.744-35.482,104.254c0,127.7,148.149,231.222,330.902,231.222
				c182.752,0,330.901-103.522,330.901-231.222c0-37.51-12.796-72.927-35.482-104.254H804.927z"/>
			
				<linearGradient id="SVGID_00000039132643830604647070000005679327019837196939_" gradientUnits="userSpaceOnUse" x1="1089.5852" y1="2153.9927" x2="1244.51" y2="1946.65">
				<stop  offset="0" style="stop-color:#AA80F9"/>
				<stop  offset="0.9964" style="stop-color:#6165D7"/>
			</linearGradient>
			
				<ellipse style="fill:url(#SVGID_00000039132643830604647070000005679327019837196939_);" cx="1100.346" cy="2139.59" rx="295.288" ry="25.627"/>
			<g style="opacity:0.62;">
				<path style="fill:#FFFFFF;" d="M1131.215,2388.867c-39.81-0.134-121.994-0.41-185.21-61.737
					c-38.259-37.116-85.949-112.482-62.902-174.727c34.962-94.423,204.907-83.58,216.661-161.913
					c5.345-35.62-29.183-41.944-37.275-103.671c-8.922-68.057,28.5-95.084,27.956-157.254c-0.195-22.326-5.313-51.507-25.033-86.198
					h-41.945v237.041c0,23.087-14.458,43.724-36.183,51.537c-141.434,50.866-243.38,190.444-243.38,319.093
					c0,160.965,159.585,243.83,356.443,243.83s356.443-82.865,356.443-243.83c0-9.191-0.538-18.439-1.556-27.706
					C1399.995,2285.06,1284.571,2389.383,1131.215,2388.867z"/>
			</g>
			<path style="fill:#FFFFFF;" d="M1170.82,1672.487h-140.947c-13.51,0-24.462-10.952-24.462-24.462l0,0
				c0-13.51,10.952-24.462,24.462-24.462h140.947c13.51,0,24.462,10.952,24.462,24.462l0,0
				C1195.281,1661.535,1184.33,1672.487,1170.82,1672.487z"/>
		</g>
		<g>
			<g>
				<g>
					<path style="fill:#FFFFFF;" d="M2170.558,1592.743c4.119-6.382,11.633-19.964,12.113-38.202
						c0.934-35.44-25.352-63.082-28.885-61.495c-1.903,0.856,0.512,11.24,1.864,15.84c2.816,9.582,5.845,10.507,5.591,14.908
						c-0.522,9.059-13.599,9.409-20.498,21.431c-4.967,8.657-5.365,20.989,0,30.748
						C2149.642,1592.162,2169.711,1592.732,2170.558,1592.743z"/>
					
						<linearGradient id="SVGID_00000165946451942187599890000000340381457026491780_" gradientUnits="userSpaceOnUse" x1="5637.5532" y1="2302.3655" x2="5653.9321" y2="2336.0459" gradientTransform="matrix(1 0 0 1 -2887.1284 0)">
						<stop  offset="0" style="stop-color:#FFC444"/>
						<stop  offset="0.9964" style="stop-color:#F36F56"/>
					</linearGradient>
					<polygon style="fill:url(#SVGID_00000165946451942187599890000000340381457026491780_);" points="2732.038,2362.495 
						2721.936,2327.729 2764.115,2296.475 2790.407,2286.644 2774.84,2335.287 					"/>
					
						<linearGradient id="SVGID_00000181801905830314666340000004900520886363449234_" gradientUnits="userSpaceOnUse" x1="4346.2905" y1="3160.064" x2="4346.2905" y2="3054.4011" gradientTransform="matrix(1 0 0 1 -1637.5653 0)">
						<stop  offset="0" style="stop-color:#FFC444"/>
						<stop  offset="0.9964" style="stop-color:#F36F56"/>
					</linearGradient>
					<path style="fill:url(#SVGID_00000181801905830314666340000004900520886363449234_);" d="M2679.828,3062.686
						c0,0,23.071,58.039,17,83.779c24.77-0.485,40.796-3.642,40.796-3.642s-9.956-26.469-11.898-39.583
						c-2.625-17.717-2.43-46.383-2.43-46.383L2679.828,3062.686z"/>
					<path style="fill:#26264F;" d="M2425.516,3198.433c1.492,1.801,4.139,5.563,4.362,10.661c0.121,2.77-0.513,5.049-1.309,7.144
						c-3.934,10.351-10.111,11.717-16.779,22.7c-4.073,6.711-3.304,8.735-7.036,11.764c-4.919,3.993-10.87,4.221-16.027,4.28
						c-8.716,0.1-21.264-0.211-37.064-2.094c8.28-10.671,17.084-21.511,26.448-32.457c4.107-4.799,8.207-9.487,12.296-14.063
						l24.344-8.225C2418.34,3198.24,2421.929,3198.337,2425.516,3198.433z"/>
					
						<linearGradient id="SVGID_00000078748133951618249060000003621353122061818807_" gradientUnits="userSpaceOnUse" x1="4024.2305" y1="3190.1768" x2="4024.2305" y2="3062.8367" gradientTransform="matrix(1 0 0 1 -1637.5653 0)">
						<stop  offset="0" style="stop-color:#FFC444"/>
						<stop  offset="0.9964" style="stop-color:#F36F56"/>
					</linearGradient>
					<path style="fill:url(#SVGID_00000078748133951618249060000003621353122061818807_);" d="M2405.273,3080.243
						c0,0-13.915,72.604,3.792,92.934c15.083,20.33-7.285,5.828-7.285,5.828l-26.713,23.312l-16.026,27.684
						c0,0,14.752-71.062,10.817-99.262c-3.934-28.199-5.901-47.218-5.901-47.218L2405.273,3080.243z"/>
					
						<linearGradient id="SVGID_00000068648198189060711880000018445355913065441184_" gradientUnits="userSpaceOnUse" x1="3952.9919" y1="2689.9629" x2="4369.6035" y2="2689.9629" gradientTransform="matrix(1 0 0 1 -1637.5653 0)">
						<stop  offset="0" style="stop-color:#311944"/>
						<stop  offset="1" style="stop-color:#893976"/>
					</linearGradient>
					<path style="fill:url(#SVGID_00000068648198189060711880000018445355913065441184_);" d="M2352.807,2286.057
						c0,0-37.381,33.446-37.381,171.167s17.707,436.769,17.707,436.769l28.334,214.104c0,0,29.379,1.047,49.053-4.855
						c17.706-80.665,46.561-217.118,32.788-331.228c-5.902-123.95,49.186-279.376,49.186-279.376s47.219,157.395,80.665,236.092
						c33.447,78.696,97.124,325.235,103.026,342.943c39.137,3.547,55.852-6.801,55.852-6.801s-25.094-265.316-48.702-365.654
						c-23.608-100.339-21.642-342.333-60.991-411.193C2533.812,2252.611,2352.807,2286.057,2352.807,2286.057z"/>
					
						<linearGradient id="SVGID_00000044871979029217206890000017828943533308574862_" gradientUnits="userSpaceOnUse" x1="3939.751" y1="2379.4006" x2="4239.8975" y2="2883.531" gradientTransform="matrix(1 0 0 1 -1637.5653 0)">
						<stop  offset="0" style="stop-color:#311944"/>
						<stop  offset="1" style="stop-color:#893976"/>
					</linearGradient>
					<path style="fill:url(#SVGID_00000044871979029217206890000017828943533308574862_);" d="M2352.808,2286.057
						c0,0-37.383,33.446-37.383,171.167s17.708,436.769,17.708,436.769l28.334,214.104c0,0,29.379,1.047,49.053-4.855
						c17.707-80.665,46.561-217.118,32.789-331.228c-5.902-123.95,49.185-279.376,49.185-279.376s47.219,157.395,80.665,236.092
						c33.447,78.696,97.125,325.236,103.027,342.943c39.135,3.547,55.851-6.801,55.851-6.801s-25.094-265.316-48.702-365.654
						c-23.61-100.339-21.642-342.333-60.99-411.194C2533.813,2252.611,2352.808,2286.057,2352.808,2286.057z"/>
					
						<linearGradient id="SVGID_00000130616372181220785180000002564050146108059522_" gradientUnits="userSpaceOnUse" x1="4057.9102" y1="2309.0515" x2="4358.0566" y2="2813.1819" gradientTransform="matrix(1 0 0 1 -1637.5653 0)">
						<stop  offset="0" style="stop-color:#311944"/>
						<stop  offset="1" style="stop-color:#893976"/>
					</linearGradient>
					<path style="opacity:0.25;fill:url(#SVGID_00000130616372181220785180000002564050146108059522_);" d="M2546.996,2538.4
						c11.655,75.765,34.968,116.563,93.25,169.015c46.624,34.969,11.656,110.735,29.142,169.015
						c5.827,17.484,23.312,34.969,29.139,52.453c21.688,43.376,1.431,96.432,11.265,142.359c15.303-2.113,22.247-6.37,22.247-6.37
						s-25.094-265.316-48.702-365.654c-23.61-100.339-21.642-342.334-60.99-411.194c-88.533-35.413-269.538-1.967-269.538-1.967
						s-37.383,33.446-37.383,171.167c0,11.174,0.119,23.423,0.333,36.477c38.808,34.344,118.178,41.976,167.129,3.905
						c2.957-2.219,6.103-3.578,9.353-4.238c0.151-0.436,0.254-0.73,0.254-0.73s0.082,0.272,0.205,0.681
						C2514.979,2489.254,2541.942,2518.183,2546.996,2538.4z"/>
					<g>
						<path style="fill:#26264F;" d="M2690.759,3168.49c0,0-5.75,0-5.271,7.427c0.48,7.427-2.589,32.975,26.638,34.172
							c29.228,1.197,33.735-2.07,34.694-2.07s-7.667-24.438-7.667-24.438l-9.344-11.978l-25.155-2.635L2690.759,3168.49z"/>
						<path style="fill:#444B8C;" d="M2755.565,3194.134c-0.623-6.17-4.075-15.881-7.548-23.696
							c-5.16-11.61-0.924-15.954-5.855-26.528c-1.706-3.656-3.363-7.123-6.966-10.559c-0.83-0.791-8.894-8.243-20.639-7.864
							c-2.311,0.074-5.87,0.23-9.716,2.279c-4.531,2.415-6.802,6.043-8.742,9.228c-3.048,5.007-2.348,6.542-7.042,20.885
							c-0.378,1.149-1.203,3.653-1.839,7.107c-0.487,2.643-0.683,4.861-0.771,6.378c7.667,0,37.135,1.198,43.362,5.751
							c6.23,4.551,9.344,12.218,9.344,19.885c0,7.665,3.833,11.259,7.667,11.02
							C2750.244,3207.806,2757.047,3201.463,2755.565,3194.134z"/>
					</g>
					<path style="fill:#444B8C;" d="M2401.536,3162.979c6.584,0.103,11.414,5.342,15.056,17.969
						c3.643,12.629,21.127,23.799,0.729,21.127c-20.399-2.67-35.212,26.226-42.497,36.913c-7.286,10.684-26.842,20.178-26.356,9.736
						c0.485-10.441,9.114-15.321,11.542-26.006C2362.44,3212.031,2386.519,3162.743,2401.536,3162.979z"/>
					
						<linearGradient id="SVGID_00000121995437719373298830000012683832099619946627_" gradientUnits="userSpaceOnUse" x1="-3168.4109" y1="-2861.9214" x2="-2850.5393" y2="-2208.269" gradientTransform="matrix(-0.9906 -0.1367 0.1367 -0.9906 -95.808 -1269.0822)">
						<stop  offset="0.0036" style="stop-color:#E38DDD"/>
						<stop  offset="1" style="stop-color:#9571F6"/>
					</linearGradient>
					<path style="fill:url(#SVGID_00000121995437719373298830000012683832099619946627_);" d="M2747.518,2302.679
						c4.841-13.458,35.051-101.861-13.777-182.483c-39.972-66-109.139-87.531-119.001-90.444
						c-60.035-17.73-90.124,5.047-109.066-15.915c-32.144-35.573,4.268-156.744,74.698-181.014
						c79.391-27.357,174.63,77.84,213.225,146.936c50.634,90.651,38.171,180.747,35.241,199.303
						c-7.613,48.219-25.314,84.999-38.43,107.581C2776.111,2291.989,2761.814,2297.334,2747.518,2302.679z"/>
					
						<linearGradient id="SVGID_00000121988117536780563120000017353598466611841187_" gradientUnits="userSpaceOnUse" x1="5244.4297" y1="1837.8938" x2="5566.3643" y2="2499.8999" gradientTransform="matrix(1 0 0 1 -2887.1284 0)">
						<stop  offset="0.0036" style="stop-color:#E38DDD"/>
						<stop  offset="1" style="stop-color:#9571F6"/>
					</linearGradient>
					<path style="fill:url(#SVGID_00000121988117536780563120000017353598466611841187_);" d="M2540.198,1815.718
						c-70.866-2.834-125.517-1.71-156.388,29.14c-32.607,32.586,0.345,69.373-6.735,154.61
						c-10.839,130.496-93.995,162.38-100.253,294.771c-2.108,44.608,5.44,81.067,11.303,103.023
						c18.249,22.728,48.12,54.803,92.203,81.624c64.149,39.029,101.35,32.223,193.478,57.438
						c150.693,41.242,164.1,90.357,238.823,77.844c75.518-12.646,141.775-76.198,133.772-111.098
						c-4.794-20.9-35.236-14.979-70.286-46.857c-45.174-41.084-27.753-80.301-62.098-124.449
						c-49.332-63.414-118.059-24.649-160.099-79.609c-42.525-55.596-25.657-165.148,10.188-224.865
						c23.414-39.004,33.44-84.711,53.363-125.607c1.656-3.397,3.577-8.969,2.73-15.935c-3.234-26.635-47.631-41.082-81.258-51.68
						C2587.653,1817.902,2546.026,1815.949,2540.198,1815.718z"/>
					
						<linearGradient id="SVGID_00000075134525325414574580000010362250982770205870_" gradientUnits="userSpaceOnUse" x1="4135.0747" y1="1755.0635" x2="4196.5972" y2="1852.8492" gradientTransform="matrix(1 0 0 1 -1637.5653 0)">
						<stop  offset="0.0036" style="stop-color:#E38DDD"/>
						<stop  offset="1" style="stop-color:#9571F6"/>
					</linearGradient>
					<path style="fill:url(#SVGID_00000075134525325414574580000010362250982770205870_);" d="M2480.507,1812.788l13.977-4.301
						c0,0,3.655,18.922,48.594,21.287c24.942,0,41.068-13.976,41.068-13.976l9.55,6.962c0,0-20.952,26.172-54.273,25.506
						C2496.419,1847.406,2480.507,1812.788,2480.507,1812.788z"/>
					<g>
						<path style="fill:#FFFFFF;" d="M2508.966,1755.228c2.694-20.783,19.123-34.098,22.708-36.949
							c15.01-11.931,18.064-13.132,23.22-14.112l7.04-1.067c0,0,0.379,0.01,0.769,0.033c4.122,0.249,16.474,5.071,18.721,6.65
							c7.174,5.045,1.89,40.775-19.859,85.214c-0.856,3.763-1.71,7.527-2.566,11.289c18.957,3.332,23.652,6.752,23.801,9.483
							c0.323,5.915-20.432,13.461-39.668,13.952c-24.122,0.615-49.735-9.763-49.246-17.509c0.2-3.135,4.75-7.003,22.264-10.801
							c2.738-3.848,5.474-7.697,8.211-11.545C2521.877,1786.853,2506.982,1770.538,2508.966,1755.228z"/>
						<path style="fill:#FFFFFF;" d="M2538.786,1747.402c5.471-3.275,9.639,3.764,7.062,9.916
							c-2.577,6.152-11.237,10.001-16.49,6.333C2524.104,1759.984,2531.424,1751.808,2538.786,1747.402z"/>
						
							<linearGradient id="SVGID_00000152944199445927427250000015279858179964483762_" gradientUnits="userSpaceOnUse" x1="5389.9063" y1="1312.6228" x2="5925.1392" y2="2163.3384" gradientTransform="matrix(1 0 0 1 -2887.1284 0)">
							<stop  offset="0" style="stop-color:#444B8C"/>
							<stop  offset="0.9964" style="stop-color:#26264F"/>
						</linearGradient>
						<path style="fill:url(#SVGID_00000152944199445927427250000015279858179964483762_);" d="M3152.658,1755.731
							c-55.584-50.007-167.088-38.648-237.245-2.387c-55.498,28.685-64.791,63.584-116.389,66.508
							c-38.794,2.198-100.511-12.389-133.015-54.416c-4.095-5.294-20.474-27.5-45.066-55.502
							c-10.843-12.345-21.626-23.929-38.339-26.549c-4.245-0.666-18.37-2.964-27.709,6.158c-7.567,7.391-9.424,20.243-7.185,29.506
							c1.338,5.539,3.069,6.123,2.823,9.75c-0.692,10.188-19.251,14.626-18.218,19.757c0.737,3.666,10.396,2.325,12.06,6.927
							c1.822,5.042-8.785,9.382-13.343,22.065c-8.538,5.716-13.933,19.94-15.8,38.972c-2.743,27.977,0.068,50.709,5.37,67.832
							c29.953,96.734,44.885,145.115,87.966,174.323c46.837,31.754,99.662,29.467,141.882,27.639
							c62.194-2.693,72.841-20.699,126.722-27.549c112.316-14.278,150.543,53.219,209.369,33.058
							C3180.183,2059.73,3240.554,1834.806,3152.658,1755.731z"/>
					</g>
					
						<linearGradient id="SVGID_00000022546642225538989380000016075821303430587017_" gradientUnits="userSpaceOnUse" x1="5208.6016" y1="1853.3279" x2="5525.2334" y2="2504.4304" gradientTransform="matrix(1 0 0 1 -2887.1284 0)">
						<stop  offset="0.0036" style="stop-color:#E38DDD"/>
						<stop  offset="1" style="stop-color:#9571F6"/>
					</linearGradient>
					<path style="fill:url(#SVGID_00000022546642225538989380000016075821303430587017_);" d="M2179.168,1587.778
						c-1.817,17.049-7.963,92.471,44.061,156.153c48.61,59.504,117.453,71.389,130.249,73.323
						c61.897,9.353,88.59-17.323,110.22,0.854c36.705,30.843,17.203,155.853-49.248,189.527
						c-74.904,37.956-183.633-53.233-231.312-116.404c-62.553-82.875-62.526-173.83-62.16-192.612
						c0.947-48.807,13.453-87.662,23.358-111.824c4.069-1.226,10.262-2.582,17.856-2.318
						C2169.429,1584.729,2175.269,1586.359,2179.168,1587.778z"/>
					
						<linearGradient id="SVGID_00000086665536629481697980000016939564369038692779_" gradientUnits="userSpaceOnUse" x1="5197.937" y1="1860.504" x2="5519.8706" y2="2522.5088" gradientTransform="matrix(1 0 0 1 -2887.1284 0)">
						<stop  offset="0" style="stop-color:#AA80F9"/>
						<stop  offset="0.9964" style="stop-color:#6165D7"/>
					</linearGradient>
					<path style="opacity:0.3;fill:url(#SVGID_00000086665536629481697980000016939564369038692779_);" d="M2814.895,2564.285
						c-18.12-18.577,1.826-56.039-24.94-83.89c-24.842-25.849-52.968-4.967-92.961-27.208
						c-51.293-28.528-37.159-80.754-86.157-108.832c-35.234-20.19-51.792,1.518-106.565-9.07
						c-54.68-10.568-121.279-48.265-154.177-115.633c-13.979-28.625-19.131-57.082-19.815-82.519
						c-24.592,43.938-50.102,86.044-53.46,157.103c-2.108,44.608,5.44,81.067,11.303,103.023
						c18.249,22.728,48.12,54.803,92.203,81.623c64.149,39.029,101.35,32.224,193.478,57.439
						c150.693,41.242,164.1,90.357,238.823,77.844c48.264-8.082,92.641-36.956,116.371-65.855
						C2859.356,2579.313,2828.046,2577.769,2814.895,2564.285z"/>
				</g>
			</g>
		</g>
	</g>
</g>
</svg>
